<?xml version="1.0" encoding="UTF-8"?><svg id="uuid-ffd55014-6d93-470a-9e4e-b5e93918c854" xmlns="http://www.w3.org/2000/svg" width="1050" height="500" viewBox="0 0 1050 500"><defs><style>.uuid-93caff5e-70ed-46db-a328-03a7a0bf7298{fill:#fff;}.uuid-f7e77cd4-fac3-4c34-8721-3fccf704a409,.uuid-d0cef108-6e51-43d8-9942-66627139754e{stroke:#959595;}.uuid-f7e77cd4-fac3-4c34-8721-3fccf704a409,.uuid-d0cef108-6e51-43d8-9942-66627139754e,.uuid-538b45dd-0855-472a-a774-c1df265b26c2,.uuid-8c08b08e-26df-4b13-b1b3-73398ed57fe4{fill:none;stroke-linecap:round;}.uuid-f7e77cd4-fac3-4c34-8721-3fccf704a409,.uuid-d0cef108-6e51-43d8-9942-66627139754e,.uuid-8c08b08e-26df-4b13-b1b3-73398ed57fe4{stroke-linejoin:round;}.uuid-ecd60dbe-7159-4e22-8590-89c5203cc6bb{fill:#222;}.uuid-d0cef108-6e51-43d8-9942-66627139754e{stroke-dasharray:4 4;}.uuid-c527dd77-1825-42e7-a83e-0cab83790a39{fill:#959595;}.uuid-538b45dd-0855-472a-a774-c1df265b26c2{stroke-miterlimit:10;}.uuid-538b45dd-0855-472a-a774-c1df265b26c2,.uuid-8c08b08e-26df-4b13-b1b3-73398ed57fe4{stroke:#222;}.uuid-8c08b08e-26df-4b13-b1b3-73398ed57fe4{stroke-width:2px;}</style></defs><g id="uuid-4670cb22-6a48-42e7-9225-7971f7256e84"><path class="uuid-c527dd77-1825-42e7-a83e-0cab83790a39" d="M242.66,455.83c-.36,0-.96,0-1.79-.02-.83-.01-1.48-.02-1.95-.02-1.72,0-2.81.01-3.28.04h-.3c-.08-.08-.12-.14-.13-.17,0-.03,0-.16.05-.37.05-.17.12-.3.2-.38h.56c.8,0,1.34-.02,1.62-.06.23-.01.39-.05.5-.12.01-.01.03-.02.04-.02.07-.04.13-.18.2-.41.07-.23.33-1.28.8-3.13.23-.91.41-1.65.56-2.22.93-3.67,1.4-5.54,1.4-5.62,0-.07-.19-.1-.58-.1h-.62c-.89,0-1.48.04-1.76.12-.57.12-1.01.35-1.3.7-.36.4-.75,1.21-1.18,2.44-.09.29-.16.47-.2.52-.04.05-.13.08-.28.08h-.06c-.17,0-.28-.02-.32-.06s-.06-.07-.06-.1c0-.08.2-.72.6-1.92.29-.92.54-1.65.74-2.2.08-.25.17-.43.26-.52h9.36c1.77.03,2.67.07,2.68.12l.02.02v.06c0,.08-.12.84-.35,2.28-.23,1.44-.36,2.17-.37,2.18,0,.04-.03.07-.08.1-.03.03-.13.04-.3.04-.08,0-.14,0-.19,0-.05,0-.08-.01-.09-.02-.01,0-.03-.03-.06-.06-.03-.03-.05-.06-.06-.07,0-.09.02-.27.06-.54.12-.72.18-1.25.18-1.58,0-.31-.04-.56-.12-.76-.08-.2-.17-.35-.27-.46-.1-.11-.28-.19-.54-.24-.26-.05-.48-.09-.67-.1-.19-.01-.49-.03-.92-.04-.61,0-1,0-1.17.03-.17.02-.28.07-.35.15-.01.01-.49,1.88-1.42,5.59-.93,3.71-1.4,5.6-1.4,5.65,0,.09.09.15.26.18.19.05.69.09,1.5.1.45,0,.72,0,.81.02.09.01.14.05.17.12.01.04,0,.15-.04.34-.01.04-.02.08-.03.13s-.01.08-.02.1c0,.02-.02.05-.03.08-.01.03-.02.05-.03.06,0,0-.02.02-.03.03-.01.01-.03.02-.05.03s-.04,0-.07,0h-.1Z"/><line class="uuid-d0cef108-6e51-43d8-9942-66627139754e" x1="241.32" y1="423.03" x2="241.32" y2="232.84"/><polyline class="uuid-f7e77cd4-fac3-4c34-8721-3fccf704a409" points="137.41 423.03 140.91 388.13 144.41 373.68 147.9 362.59 151.4 353.23 154.9 345 158.4 337.55 161.9 330.7 165.41 324.32 168.89 318.33 172.39 312.66 175.89 307.28 179.4 302.13 182.9 297.19 186.38 292.45 189.88 287.87 193.39 283.44 196.89 279.14 200.39 274.97 203.89 270.9 207.37 266.96 210.88 263.1 214.38 259.34 217.88 255.66 221.38 252.05 224.87 248.54 228.37 245.09 231.87 241.69 235.37 238.35 238.88 235.09 241.32 232.84"/></g><g id="uuid-b232596b-5c08-48f5-829d-778f0a95143c"><line class="uuid-d0cef108-6e51-43d8-9942-66627139754e" x1="137.41" y1="122.32" x2="397.18" y2="122.32"/><path class="uuid-c527dd77-1825-42e7-a83e-0cab83790a39" d="M42.36,132.44c.36.08.55.12.58.12.31,0,.57-.28.8-.84.16-.44.65-2.81,1.46-7.12.37-2.01.57-3.03.58-3.04v-.06h-.94c-.63,0-.96-.01-1-.04-.09-.05-.11-.2-.04-.44.05-.2.09-.31.1-.32.03-.07.09-.1.18-.11.09,0,.4-.01.92-.01.64,0,.96,0,.96-.02,0-.03.06-.36.18-1,.12-.64.2-1.03.24-1.16.28-1.27.7-2.15,1.26-2.64.53-.44,1.09-.66,1.66-.66.48.03.88.17,1.21.44.33.27.49.62.49,1.06,0,.39-.12.71-.36.98-.24.27-.54.4-.9.4-.59,0-.88-.28-.88-.84,0-.49.23-.85.7-1.08l.18-.1c-.24-.08-.44-.12-.6-.12-.39,0-.64.25-.76.76-.11.4-.28,1.27-.52,2.62l-.26,1.32s.37.04,1.1.04c.6,0,.96,0,1.08.02.12.01.18.06.18.14,0,.15-.05.36-.14.64-.03.07-.09.1-.19.11s-.46,0-1.07,0h-1.12l-.46,2.44c-.49,2.55-.8,4.09-.92,4.62-.45,2.01-1.06,3.38-1.82,4.1-.49.43-.98.64-1.46.64s-.88-.13-1.2-.4c-.32-.27-.48-.62-.48-1.06,0-.4.12-.74.36-1.01.24-.27.54-.41.9-.41.59,0,.88.28.88.84,0,.49-.23.85-.7,1.08l-.18.1Z"/><path class="uuid-c527dd77-1825-42e7-a83e-0cab83790a39" d="M53.96,123.64c0-3.86,1.7-6.92,4.48-9.08l.92.84c-2.68,2.26-3.92,4.88-3.92,8.24s1.24,5.98,3.92,8.24l-.92.84c-2.78-2.16-4.48-5.22-4.48-9.08Z"/><path class="uuid-c527dd77-1825-42e7-a83e-0cab83790a39" d="M70.1,129.2c-.36,0-.96,0-1.79-.02-.83-.01-1.48-.02-1.95-.02-1.72,0-2.81.01-3.28.04h-.3c-.08-.08-.12-.14-.13-.17,0-.03,0-.16.05-.37.05-.17.12-.3.2-.38h.56c.8,0,1.34-.02,1.62-.06.23-.01.39-.05.5-.12.01-.01.03-.02.04-.02.07-.04.13-.18.2-.41.07-.23.33-1.28.8-3.13.23-.91.41-1.65.56-2.22.93-3.67,1.4-5.54,1.4-5.62,0-.07-.19-.1-.58-.1h-.62c-.89,0-1.48.04-1.76.12-.57.12-1.01.35-1.3.7-.36.4-.75,1.21-1.18,2.44-.09.29-.16.47-.2.52s-.13.08-.28.08h-.06c-.17,0-.28-.02-.32-.06s-.06-.07-.06-.1c0-.08.2-.72.6-1.92.29-.92.54-1.65.74-2.2.08-.25.17-.43.26-.52h9.36c1.77.03,2.67.07,2.68.12l.02.02v.06c0,.08-.12.84-.35,2.28-.23,1.44-.36,2.17-.37,2.18,0,.04-.03.07-.08.1-.03.03-.13.04-.3.04-.08,0-.14,0-.19,0-.05,0-.08-.01-.09-.02-.01,0-.03-.03-.06-.06-.03-.03-.05-.06-.06-.07,0-.09.02-.27.06-.54.12-.72.18-1.25.18-1.58,0-.31-.04-.56-.12-.76-.08-.2-.17-.35-.27-.46-.1-.11-.28-.19-.54-.24-.26-.05-.48-.09-.67-.1-.19-.01-.49-.03-.92-.04-.61,0-1,.01-1.17.03-.17.02-.28.07-.35.15-.01.01-.49,1.88-1.42,5.59-.93,3.71-1.4,5.6-1.4,5.65,0,.09.09.15.26.18.19.05.69.09,1.5.1.45,0,.72,0,.81.02.09.01.14.05.17.12.01.04,0,.15-.04.34-.01.04-.02.08-.03.13,0,.05-.01.08-.02.1s-.02.05-.03.08c-.01.03-.02.05-.03.06l-.03.03s-.03.02-.05.03-.04,0-.07,0h-.1Z"/><path class="uuid-c527dd77-1825-42e7-a83e-0cab83790a39" d="M85.08,118.55v4.7h4.52v1.2h-4.52v4.74h-1.28v-4.74h-4.52v-1.2h4.52v-4.7h1.28Z"/><path class="uuid-c527dd77-1825-42e7-a83e-0cab83790a39" d="M100.34,116.64s0-.03-.02-.05c-.01-.02-.03-.03-.06-.04-.03,0-.05-.02-.08-.03-.03-.01-.07-.02-.12-.03s-.1-.01-.14-.01h-.16c-.07,0-.12,0-.17,0-.05,0-.11-.01-.19-.01h-.2c-.32,0-.51,0-.58-.02-.07-.01-.11-.05-.14-.12-.03-.04-.02-.16.02-.36.07-.25.13-.39.18-.4.04-.01.14-.02.3-.02.72.04,1.57.06,2.54.06.19,0,.45,0,.8,0,.35,0,.6-.01.76-.01.2,0,.44,0,.73,0s.51-.01.66-.02c.15,0,.25-.01.29-.01h.24c.08.08.12.14.13.17,0,.03-.01.16-.05.37-.05.19-.11.31-.18.38h-.76c-.92.01-1.46.07-1.62.18-.09.05-.19.24-.28.57-.09.33-.54,2.08-1.34,5.27-.21.87-.44,1.79-.68,2.77-.24.98-.42,1.71-.54,2.19l-.18.72c0,.05.06.08.18.09.12,0,.51.02,1.18.03,1,0,1.71-.03,2.13-.1.42-.07.88-.25,1.39-.54.53-.31.96-.72,1.29-1.23.33-.51.65-1.2.97-2.05.09-.27.17-.45.22-.56.07-.04.18-.06.34-.06h.26c.08.12.12.19.12.22s-.14.42-.41,1.18c-.27.76-.56,1.56-.87,2.41-.31.85-.48,1.34-.52,1.47-.04.08-.07.13-.1.14-.04.03-1.76.04-5.16.04s-5.12-.01-5.16-.04c-.09-.05-.11-.2-.04-.44,0-.01,0-.04.02-.08.07-.21.14-.33.22-.34.04-.01.13-.02.26-.02h.12c.36,0,.76-.02,1.2-.06.19-.04.31-.12.38-.24.04-.05.52-1.91,1.44-5.56.92-3.65,1.38-5.58,1.38-5.78Z"/><path class="uuid-c527dd77-1825-42e7-a83e-0cab83790a39" d="M110.7,131.88c2.68-2.26,3.92-4.88,3.92-8.24s-1.24-5.98-3.92-8.24l.92-.84c2.78,2.16,4.48,5.22,4.48,9.08s-1.7,6.92-4.48,9.08l-.92-.84Z"/><path class="uuid-c527dd77-1825-42e7-a83e-0cab83790a39" d="M381.56,455.83c-.36,0-.96,0-1.79-.02-.83-.01-1.48-.02-1.95-.02-1.72,0-2.81.01-3.28.04h-.3c-.08-.08-.12-.14-.13-.17,0-.03,0-.16.05-.37.05-.17.12-.3.2-.38h.56c.8,0,1.34-.02,1.62-.06.23-.01.39-.05.5-.12.01-.01.03-.02.04-.02.07-.04.13-.18.2-.41.07-.23.33-1.28.8-3.13.23-.91.41-1.65.56-2.22.93-3.67,1.4-5.54,1.4-5.62,0-.07-.19-.1-.58-.1h-.62c-.89,0-1.48.04-1.76.12-.57.12-1.01.35-1.3.7-.36.4-.75,1.21-1.18,2.44-.09.29-.16.47-.2.52-.04.05-.13.08-.28.08h-.06c-.17,0-.28-.02-.32-.06s-.06-.07-.06-.1c0-.08.2-.72.6-1.92.29-.92.54-1.65.74-2.2.08-.25.17-.43.26-.52h9.36c1.77.03,2.67.07,2.68.12l.02.02v.06c0,.08-.12.84-.35,2.28-.23,1.44-.36,2.17-.37,2.18,0,.04-.03.07-.08.1-.03.03-.13.04-.3.04-.08,0-.14,0-.19,0-.05,0-.08-.01-.09-.02-.01,0-.03-.03-.06-.06-.03-.03-.05-.06-.06-.07,0-.09.02-.27.06-.54.12-.72.18-1.25.18-1.58,0-.31-.04-.56-.12-.76-.08-.2-.17-.35-.27-.46-.1-.11-.28-.19-.54-.24-.26-.05-.48-.09-.67-.1-.19-.01-.49-.03-.92-.04-.61,0-1,0-1.17.03-.17.02-.28.07-.35.15-.01.01-.49,1.88-1.42,5.59-.93,3.71-1.4,5.6-1.4,5.65,0,.09.09.15.26.18.19.05.69.09,1.5.1.45,0,.72,0,.81.02.09.01.14.05.17.12.01.04,0,.15-.04.34-.01.04-.02.08-.03.13,0,.05-.01.08-.02.1,0,.02-.02.05-.03.08-.01.03-.02.05-.03.06s-.02.02-.03.03c-.01.01-.03.02-.05.03s-.04,0-.07,0h-.1Z"/><path class="uuid-c527dd77-1825-42e7-a83e-0cab83790a39" d="M397.74,445.19v4.7h4.52v1.2h-4.52v4.74h-1.28v-4.74h-4.52v-1.2h4.52v-4.7h1.28Z"/><path class="uuid-c527dd77-1825-42e7-a83e-0cab83790a39" d="M414.96,443.27s0-.03-.02-.05c-.01-.02-.03-.03-.06-.04-.03,0-.05-.02-.08-.03-.03-.01-.07-.02-.12-.03s-.1-.01-.14-.01h-.16c-.07,0-.12,0-.17,0-.05,0-.11,0-.19,0h-.2c-.32,0-.51,0-.58-.02-.07-.01-.11-.05-.14-.12-.03-.04-.02-.16.02-.36.07-.25.13-.39.18-.4.04-.01.14-.02.3-.02.72.04,1.57.06,2.54.06.19,0,.45,0,.8,0,.35,0,.6,0,.76,0,.2,0,.44,0,.73,0s.51-.01.66-.02c.15,0,.25,0,.29,0h.24c.08.08.12.14.13.17,0,.03-.01.16-.05.37-.05.19-.11.31-.18.38h-.76c-.92.01-1.46.07-1.62.18-.09.05-.19.24-.28.57-.09.33-.54,2.08-1.34,5.27-.21.87-.44,1.79-.68,2.77-.24.98-.42,1.71-.54,2.19l-.18.72c0,.05.06.08.18.09s.51.02,1.18.03c1,0,1.71-.03,2.13-.1.42-.07.88-.25,1.39-.54.53-.31.96-.72,1.29-1.23s.65-1.2.97-2.05c.09-.27.17-.45.22-.56.07-.04.18-.06.34-.06h.26c.08.12.12.19.12.22s-.14.42-.41,1.18c-.27.76-.56,1.56-.87,2.41-.31.85-.48,1.34-.52,1.47-.04.08-.07.13-.1.14-.04.03-1.76.04-5.16.04s-5.12-.01-5.16-.04c-.09-.05-.11-.2-.04-.44,0-.01,0-.04.02-.08.07-.21.14-.33.22-.34.04-.01.13-.02.26-.02h.12c.36,0,.76-.02,1.2-.06.19-.04.31-.12.38-.24.04-.05.52-1.91,1.44-5.56.92-3.65,1.38-5.58,1.38-5.78Z"/><line class="uuid-d0cef108-6e51-43d8-9942-66627139754e" x1="397.18" y1="423.03" x2="397.18" y2="122.32"/><polyline class="uuid-f7e77cd4-fac3-4c34-8721-3fccf704a409" points="241.32 232.84 242.38 231.87 245.86 228.73 249.36 225.6 252.86 222.56 256.37 219.53 259.87 216.56 263.35 213.64 266.85 210.75 270.36 207.89 273.86 205.08 277.36 202.3 280.86 199.56 284.35 196.86 287.85 194.18 291.35 191.54 294.85 188.91 298.35 186.33 301.84 183.78 305.34 181.23 308.84 178.75 312.34 176.26 315.85 173.81 319.35 171.38 322.83 168.96 326.33 166.57 329.84 164.22 333.34 161.87 336.84 159.55 340.32 157.26 343.82 154.96 347.33 152.7 350.83 150.46 354.33 148.23 357.83 146.03 361.32 143.83 364.82 141.67 368.32 139.51 371.82 137.37 375.33 135.24 378.81 133.14 382.31 131.04 385.81 128.97 389.31 126.91 392.82 124.85 396.32 122.82 397.18 122.32"/></g><g id="uuid-755e0307-6caf-4c56-bd1e-68e17fc6717f"><line class="uuid-f7e77cd4-fac3-4c34-8721-3fccf704a409" x1="241.32" y1="232.84" x2="397.18" y2="232.84"/><line class="uuid-8c08b08e-26df-4b13-b1b3-73398ed57fe4" x1="241.32" y1="232.84" x2="397.18" y2="142.61"/><path class="uuid-c527dd77-1825-42e7-a83e-0cab83790a39" d="M315.29,242.44s0-.03-.02-.05c-.01-.02-.03-.03-.06-.04-.03,0-.05-.02-.08-.03-.03-.01-.07-.02-.12-.03s-.1,0-.14,0h-.16c-.07,0-.12,0-.17-.01-.05,0-.11,0-.19,0h-.2c-.32,0-.51,0-.58-.02-.07-.01-.11-.05-.14-.12-.03-.04-.02-.16.02-.36.07-.25.13-.39.18-.4.04-.01.14-.02.3-.02.72.04,1.57.06,2.54.06.19,0,.45,0,.8-.01.35,0,.6,0,.76,0,.2,0,.44,0,.73,0s.51-.01.66-.02c.15,0,.25,0,.29,0h.24c.08.08.12.14.13.17,0,.03-.01.16-.05.37-.05.19-.11.31-.18.38h-.76c-.92.01-1.46.07-1.62.18-.09.05-.19.24-.28.57-.09.33-.54,2.08-1.34,5.27-.21.87-.44,1.79-.68,2.77-.24.98-.42,1.71-.54,2.19l-.18.72c0,.05.06.08.18.09s.51.02,1.18.03c1,0,1.71-.03,2.13-.1.42-.07.88-.25,1.39-.54.53-.31.96-.72,1.29-1.23.33-.51.65-1.2.97-2.05.09-.27.17-.45.22-.56.07-.04.18-.06.34-.06h.26c.08.12.12.19.12.22s-.14.42-.41,1.18c-.27.76-.56,1.56-.87,2.41-.31.85-.48,1.34-.52,1.47-.04.08-.07.13-.1.14-.04.03-1.76.04-5.16.04s-5.12-.01-5.16-.04c-.09-.05-.11-.2-.04-.44,0-.01,0-.04.02-.08.07-.21.14-.33.22-.34.04-.01.13-.02.26-.02h.12c.36,0,.76-.02,1.2-.06.19-.04.31-.12.38-.24.04-.05.52-1.91,1.44-5.56.92-3.65,1.38-5.58,1.38-5.78Z"/><path class="uuid-c527dd77-1825-42e7-a83e-0cab83790a39" d="M410.38,126.07c-1.46,1.96-2.52,4.56-2.52,8.18s1.1,6.12,2.52,8.12h-1.38c-1.26-1.66-2.62-4.22-2.62-8.12.02-3.94,1.36-6.5,2.62-8.18h1.38Z"/><path class="uuid-c527dd77-1825-42e7-a83e-0cab83790a39" d="M419.69,139.95c-.23-.04-1.29-.06-3.18-.06s-2.91.02-3.14.06h-.24v-.92h.52c.77,0,1.27-.02,1.5-.06.11-.01.27-.09.48-.24v-10.34s-.08.02-.16.06c-.61.24-1.3.37-2.06.38h-.38v-.92h.38c1.12-.04,2.05-.29,2.8-.76.24-.13.45-.29.62-.46.03-.04.11-.06.24-.06s.25.04.34.12v5.98l.02,6c.2.2.63.3,1.3.3h1.18v.92h-.22Z"/><path class="uuid-c527dd77-1825-42e7-a83e-0cab83790a39" d="M427.52,133.89v1.3h-4.94v-1.3h4.94Z"/><path class="uuid-c527dd77-1825-42e7-a83e-0cab83790a39" d="M429.29,134.39c-.08-.08-.12-.14-.12-.18,0-.11.09-.42.26-.94.25-.77.55-1.33.9-1.68.32-.32.67-.48,1.06-.48,1,0,1.64.43,1.92,1.28l.2-.18c.6-.56,1.22-.91,1.86-1.06.16-.03.33-.04.5-.04s.34.01.5.04c.69.16,1.25.52,1.66,1.07s.62,1.26.62,2.11c0,.63-.13,1.31-.38,2.04-.33.88-.83,1.65-1.48,2.31-.65.66-1.37,1.11-2.14,1.35-.29.08-.61.12-.96.12-.71,0-1.26-.27-1.66-.82l-.1-.1s-.16.59-.44,1.74c-.28,1.15-.42,1.73-.42,1.74,0,.03,0,.05.01.07,0,.02.02.04.04.05s.04.02.06.03c.02,0,.05.01.08.02.03,0,.07,0,.1,0s.08,0,.13.01c.05,0,.1,0,.14,0h.84c.07.09.1.15.11.18,0,.03-.01.15-.05.36-.04.16-.08.26-.12.31-.04.05-.13.07-.26.07-.21,0-.56,0-1.05-.02-.49-.01-.85-.02-1.09-.02-.93,0-1.53.01-1.78.04h-.16c-.08-.08-.12-.14-.13-.17,0-.03.01-.16.05-.37.05-.17.09-.28.12-.32l.08-.06h.4c.45-.01.71-.09.78-.24.04-.08.45-1.67,1.23-4.78.78-3.11,1.18-4.75,1.21-4.94.01-.07.02-.16.02-.28,0-.55-.17-.82-.5-.82-.16,0-.29.05-.4.14-.32.25-.64.99-.96,2.22,0,.01,0,.04-.02.07-.01.03-.02.05-.03.06l-.03.03s-.04.02-.07.02h-.53ZM433.35,133.51l-.54,2.14c-.36,1.43-.54,2.18-.54,2.26.09.32.18.55.26.7.29.55.7.82,1.22.82.43,0,.82-.15,1.18-.45.36-.3.66-.69.9-1.17.24-.45.49-1.2.74-2.24.24-.96.36-1.67.36-2.12,0-1.07-.41-1.6-1.22-1.6-.03,0-.07,0-.13.01s-.1,0-.11,0c-.69.15-1.35.63-1.96,1.44-.03.03-.06.07-.1.12l-.06.08Z"/><path class="uuid-c527dd77-1825-42e7-a83e-0cab83790a39" d="M439.77,142.37c1.42-1.98,2.52-4.58,2.52-8.18s-1.08-6.14-2.52-8.12h1.36c1.28,1.64,2.62,4.2,2.62,8.14s-1.34,6.46-2.62,8.16h-1.36Z"/><path class="uuid-c527dd77-1825-42e7-a83e-0cab83790a39" d="M453.63,141.55c0-.15.01-.39.03-.73.02-.34.03-.56.03-.65v-.08l-.3.08c-.61.15-1.17.22-1.68.22-1.41,0-2.59-.45-3.54-1.36-1.01-.99-1.52-2.31-1.52-3.96,0-.47,0-.77.02-.9.24-1.83,1.01-3.51,2.32-5.04.37-.43.77-.83,1.2-1.2,1.48-1.23,3.03-1.91,4.64-2.06h.34c.51,0,.83,0,.96.02,1.31.19,2.35.76,3.14,1.72.79.96,1.18,2.17,1.18,3.64,0,1.79-.55,3.46-1.66,5.01-1.11,1.55-2.41,2.68-3.92,3.37l-.34.16v.1s0,.04.02.07c.01.03.02.07.03.12,0,.05.02.09.03.13.12.52.27.88.46,1.08.19.2.49.3.9.3.51,0,.97-.16,1.38-.47.41-.31.68-.68.8-1.11.08-.19.17-.28.26-.28.12,0,.19.06.22.18,0,.08-.05.27-.14.58-.55,1.61-1.29,2.65-2.22,3.12-.33.15-.67.22-1,.22-.61,0-1.04-.2-1.28-.59-.24-.39-.36-.96-.36-1.69ZM452.59,136.85c.48,0,.88.17,1.19.52.31.35.5.84.57,1.48l.26-.18c1.03-.71,1.86-1.69,2.49-2.94.63-1.25,1.05-2.68,1.25-4.28.01-.13.02-.42.02-.86,0-1.56-.45-2.67-1.36-3.34-.52-.4-1.13-.6-1.82-.6-.64,0-1.29.17-1.96.5-1.2.59-2.2,1.58-3,2.97-.8,1.39-1.3,2.96-1.5,4.69-.01.15-.02.42-.02.82,0,1.39.36,2.43,1.08,3.14.32.28.51.42.58.42v-.16c0-.6.24-1.11.71-1.54.47-.43.98-.64,1.51-.64ZM451.93,139.59c.61,0,1.21-.14,1.8-.42l-.02-.2c-.03-.47-.13-.81-.3-1.03-.17-.22-.45-.33-.82-.33h-.1c-.37,0-.69.13-.96.39-.27.26-.4.56-.4.91,0,.45.27.68.8.68Z"/><path class="uuid-c527dd77-1825-42e7-a83e-0cab83790a39" d="M416.62,183.11c.19,0,.35.05.48.15.13.1.2.24.2.43,0,.17-.2,1.03-.59,2.56s-.6,2.41-.63,2.64c-.03.15-.04.38-.04.7,0,.67.17,1.13.52,1.38.24.16.51.24.82.24.95,0,1.7-.81,2.26-2.44.31-.8.51-1.53.62-2.2.01-.07.02-.17.02-.3,0-.67-.24-1.2-.72-1.6-.21-.17-.32-.39-.32-.64,0-.29.12-.56.37-.8.25-.24.52-.36.83-.36.03,0,.05,0,.08,0,.03,0,.05.01.08.01.56.15.84.64.84,1.48,0,.59-.13,1.37-.38,2.34-.25.97-.51,1.78-.76,2.42-.67,1.65-1.55,2.59-2.64,2.8-.08.01-.21.02-.38.02-.6,0-1.13-.1-1.58-.31-.45-.21-.77-.5-.96-.87-.29.39-.59.68-.89.88-.3.2-.69.3-1.17.3-.89,0-1.61-.21-2.15-.64-.54-.43-.81-1.06-.81-1.9,0-.36.01-.6.04-.72.08-.53.38-1.5.9-2.9.29-.79.44-1.33.44-1.64,0-.19-.02-.32-.05-.39-.03-.07-.11-.11-.23-.11h-.1c-.31,0-.6.14-.88.42-.43.43-.75,1.07-.98,1.92,0,.01,0,.04-.02.07-.01.03-.02.05-.03.06l-.03.03s-.04.02-.07.02h-.53c-.11-.11-.13-.26-.06-.46.13-.4.26-.72.38-.96.49-1,1.13-1.6,1.9-1.8.08-.03.23-.04.46-.04.55,0,.98.16,1.3.47.32.31.48.71.48,1.19,0,.27-.12.71-.36,1.34-.59,1.57-.91,2.69-.96,3.34v.26c0,.53.13.95.38,1.25.25.3.62.45,1.1.45.57,0,1.08-.41,1.52-1.22l.1-.18v-.46c.03-.39.05-.61.06-.68,0-.01.09-.41.28-1.2.19-.79.39-1.6.6-2.43.21-.83.35-1.3.4-1.39.17-.36.46-.54.86-.54Z"/><path class="uuid-c527dd77-1825-42e7-a83e-0cab83790a39" d="M428.26,179.17s0-.03-.02-.05c-.01-.02-.03-.03-.06-.04-.03,0-.05-.02-.08-.03-.03-.01-.07-.02-.12-.03s-.1-.01-.14-.01h-.16c-.07,0-.12,0-.17,0-.05,0-.11-.01-.19-.01h-.2c-.32,0-.51,0-.58-.02-.07-.01-.11-.05-.14-.12-.03-.04-.02-.16.02-.36.07-.25.13-.39.18-.4.04-.01.14-.02.3-.02.72.04,1.57.06,2.54.06.19,0,.45,0,.8,0,.35,0,.6-.01.76-.01.2,0,.44,0,.73,0s.51-.01.66-.02c.15,0,.25-.01.29-.01h.24c.08.08.12.14.13.17,0,.03-.01.16-.05.37-.05.19-.11.31-.18.38h-.76c-.92.01-1.46.07-1.62.18-.09.05-.19.24-.28.57-.09.33-.54,2.08-1.34,5.27-.21.87-.44,1.79-.68,2.77-.24.98-.42,1.71-.54,2.19l-.18.72c0,.05.06.08.18.09.12,0,.51.02,1.18.03,1,0,1.71-.03,2.13-.1.42-.07.88-.25,1.39-.54.53-.31.96-.72,1.29-1.23.33-.51.65-1.2.97-2.05.09-.27.17-.45.22-.56.07-.04.18-.06.34-.06h.26c.08.12.12.19.12.22s-.14.42-.41,1.18c-.27.76-.56,1.56-.87,2.41-.31.85-.48,1.34-.52,1.47-.04.08-.07.13-.1.14-.04.03-1.76.04-5.16.04s-5.12-.01-5.16-.04c-.09-.05-.11-.2-.04-.44,0-.01,0-.04.02-.08.07-.21.14-.33.22-.34.04-.01.13-.02.26-.02h.12c.36,0,.76-.02,1.2-.06.19-.04.31-.12.38-.24.04-.05.52-1.91,1.44-5.56.92-3.65,1.38-5.58,1.38-5.78Z"/><path class="uuid-c527dd77-1825-42e7-a83e-0cab83790a39" d="M443.18,184.99v-1.2h10.32v1.2h-10.32ZM443.18,188.91v-1.2h10.32v1.2h-10.32Z"/><path class="uuid-c527dd77-1825-42e7-a83e-0cab83790a39" d="M461.08,186.17c-.08-.08-.12-.14-.12-.18,0-.11.09-.42.26-.94.25-.77.55-1.33.9-1.68.32-.32.67-.48,1.06-.48,1,0,1.64.43,1.92,1.28l.2-.18c.6-.56,1.22-.91,1.86-1.06.16-.03.33-.04.5-.04s.34.01.5.04c.69.16,1.25.52,1.66,1.07s.62,1.26.62,2.11c0,.63-.13,1.31-.38,2.04-.33.88-.83,1.65-1.48,2.31-.65.66-1.37,1.11-2.14,1.35-.29.08-.61.12-.96.12-.71,0-1.26-.27-1.66-.82l-.1-.1s-.16.59-.44,1.74c-.28,1.15-.42,1.73-.42,1.74,0,.03,0,.05.01.07,0,.02.02.04.04.05s.04.02.06.03c.02,0,.05.01.08.02.03,0,.07,0,.1,0s.08,0,.13.01c.05,0,.1,0,.14,0h.84c.07.09.1.15.11.18,0,.03-.01.15-.05.36-.04.16-.08.26-.12.31-.04.05-.13.07-.26.07-.21,0-.56,0-1.05-.02-.49-.01-.85-.02-1.09-.02-.93,0-1.53.01-1.78.04h-.16c-.08-.08-.12-.14-.13-.17,0-.03.01-.16.05-.37.05-.17.09-.28.12-.32l.08-.06h.4c.45-.01.71-.09.78-.24.04-.08.45-1.67,1.23-4.78.78-3.11,1.18-4.75,1.21-4.94.01-.07.02-.16.02-.28,0-.55-.17-.82-.5-.82-.16,0-.29.05-.4.14-.32.25-.64.99-.96,2.22,0,.01,0,.04-.02.07-.01.03-.02.05-.03.06l-.03.03s-.04.02-.07.02h-.53ZM465.14,185.29l-.54,2.14c-.36,1.43-.54,2.18-.54,2.26.09.32.18.55.26.7.29.55.7.82,1.22.82.43,0,.82-.15,1.18-.45.36-.3.66-.69.9-1.17.24-.45.49-1.2.74-2.24.24-.96.36-1.67.36-2.12,0-1.07-.41-1.6-1.22-1.6-.03,0-.07,0-.13.01s-.1,0-.11,0c-.69.15-1.35.63-1.96,1.44-.03.03-.06.07-.1.12l-.06.08Z"/><path class="uuid-c527dd77-1825-42e7-a83e-0cab83790a39" d="M479.14,193.33c0-.15.01-.39.03-.73.02-.34.03-.56.03-.65v-.08l-.3.08c-.61.15-1.17.22-1.68.22-1.41,0-2.59-.45-3.54-1.36-1.01-.99-1.52-2.31-1.52-3.96,0-.47,0-.77.02-.9.24-1.83,1.01-3.51,2.32-5.04.37-.43.77-.83,1.2-1.2,1.48-1.23,3.03-1.91,4.64-2.06h.34c.51,0,.83,0,.96.02,1.31.19,2.35.76,3.14,1.72.79.96,1.18,2.17,1.18,3.64,0,1.79-.55,3.46-1.66,5.01-1.11,1.55-2.41,2.68-3.92,3.37l-.34.16v.1s0,.04.02.07c.01.03.02.07.03.12,0,.05.02.09.03.13.12.52.27.88.46,1.08.19.2.49.3.9.3.51,0,.97-.16,1.38-.47.41-.31.68-.68.8-1.11.08-.19.17-.28.26-.28.12,0,.19.06.22.18,0,.08-.05.27-.14.58-.55,1.61-1.29,2.65-2.22,3.12-.33.15-.67.22-1,.22-.61,0-1.04-.2-1.28-.59-.24-.39-.36-.96-.36-1.69ZM478.1,188.63c.48,0,.88.17,1.19.52.31.35.5.84.57,1.48l.26-.18c1.03-.71,1.86-1.69,2.49-2.94.63-1.25,1.05-2.68,1.25-4.28.01-.13.02-.42.02-.86,0-1.56-.45-2.67-1.36-3.34-.52-.4-1.13-.6-1.82-.6-.64,0-1.29.17-1.96.5-1.2.59-2.2,1.58-3,2.97-.8,1.39-1.3,2.96-1.5,4.69-.01.15-.02.42-.02.82,0,1.39.36,2.43,1.08,3.14.32.28.51.42.58.42v-.16c0-.6.24-1.11.71-1.54.47-.43.98-.64,1.51-.64ZM477.44,191.37c.61,0,1.21-.14,1.8-.42l-.02-.2c-.03-.47-.13-.81-.3-1.03-.17-.22-.45-.33-.82-.33h-.1c-.37,0-.69.13-.96.39-.27.26-.4.56-.4.91,0,.45.27.68.8.68Z"/><ellipse class="uuid-93caff5e-70ed-46db-a328-03a7a0bf7298" cx="314.33" cy="174.56" rx="13.56" ry="11.11"/><path class="uuid-ecd60dbe-7159-4e22-8590-89c5203cc6bb" d="M316.4,171.03c.19,0,.35.05.48.15.13.1.2.24.2.43,0,.17-.2,1.03-.59,2.56-.39,1.53-.6,2.41-.63,2.64-.03.15-.04.38-.04.7,0,.67.17,1.13.52,1.38.24.16.51.24.82.24.95,0,1.7-.81,2.26-2.44.31-.8.51-1.53.62-2.2.01-.07.02-.17.02-.3,0-.67-.24-1.2-.72-1.6-.21-.17-.32-.39-.32-.64,0-.29.12-.56.37-.8.25-.24.52-.36.83-.36.03,0,.05,0,.08.01s.05,0,.08,0c.56.15.84.64.84,1.48,0,.59-.13,1.37-.38,2.34-.25.97-.51,1.78-.76,2.42-.67,1.65-1.55,2.59-2.64,2.8-.08.01-.21.02-.38.02-.6,0-1.13-.1-1.58-.31-.45-.21-.77-.5-.96-.87-.29.39-.59.68-.89.88s-.69.3-1.17.3c-.89,0-1.61-.21-2.15-.64s-.81-1.06-.81-1.9c0-.36.01-.6.04-.72.08-.53.38-1.5.9-2.9.29-.79.44-1.33.44-1.64,0-.19-.02-.32-.05-.39-.03-.07-.11-.11-.23-.11h-.1c-.31,0-.6.14-.88.42-.43.43-.75,1.07-.98,1.92,0,.01,0,.04-.02.07-.01.03-.02.05-.03.06,0,0-.02.02-.03.03-.01.01-.04.02-.07.02h-.53c-.11-.11-.13-.26-.06-.46.13-.4.26-.72.38-.96.49-1,1.13-1.6,1.9-1.8.08-.03.23-.04.46-.04.55,0,.98.16,1.3.47s.48.71.48,1.19c0,.27-.12.71-.36,1.34-.59,1.57-.91,2.69-.96,3.34v.26c0,.53.13.95.38,1.25.25.3.62.45,1.1.45.57,0,1.08-.41,1.52-1.22l.1-.18v-.46c.03-.39.05-.61.06-.68,0-.01.09-.41.28-1.2.19-.79.39-1.6.6-2.43.21-.83.35-1.3.4-1.39.17-.36.46-.54.86-.54Z"/></g><g id="uuid-cd2d0c46-9390-4c8c-9cf6-c406bb2057c6"><line class="uuid-8c08b08e-26df-4b13-b1b3-73398ed57fe4" x1="137.41" y1="327.79" x2="241.31" y2="232.71"/><path class="uuid-ecd60dbe-7159-4e22-8590-89c5203cc6bb" d="M178.51,271.63c.19,0,.35.05.48.15.13.1.2.24.2.43,0,.17-.2,1.03-.59,2.56-.39,1.53-.6,2.41-.63,2.64-.03.15-.04.38-.04.7,0,.67.17,1.13.52,1.38.24.16.51.24.82.24.95,0,1.7-.81,2.26-2.44.31-.8.51-1.53.62-2.2.01-.07.02-.17.02-.3,0-.67-.24-1.2-.72-1.6-.21-.17-.32-.39-.32-.64,0-.29.12-.56.37-.8.25-.24.52-.36.83-.36.03,0,.05,0,.08.01s.05,0,.08,0c.56.15.84.64.84,1.48,0,.59-.13,1.37-.38,2.34-.25.97-.51,1.78-.76,2.42-.67,1.65-1.55,2.59-2.64,2.8-.08.01-.21.02-.38.02-.6,0-1.13-.1-1.58-.31-.45-.21-.77-.5-.96-.87-.29.39-.59.68-.89.88s-.69.3-1.17.3c-.89,0-1.61-.21-2.15-.64s-.81-1.06-.81-1.9c0-.36.01-.6.04-.72.08-.53.38-1.5.9-2.9.29-.79.44-1.33.44-1.64,0-.19-.02-.32-.05-.39-.03-.07-.11-.11-.23-.11h-.1c-.31,0-.6.14-.88.42-.43.43-.75,1.07-.98,1.92,0,.01,0,.04-.02.07-.01.03-.02.05-.03.06,0,0-.02.02-.03.03-.01.01-.04.02-.07.02h-.53c-.11-.11-.13-.26-.06-.46.13-.4.26-.72.38-.96.49-1,1.13-1.6,1.9-1.8.08-.03.23-.04.46-.04.55,0,.98.16,1.3.47s.48.71.48,1.19c0,.27-.12.71-.36,1.34-.59,1.57-.91,2.69-.96,3.34v.26c0,.53.13.95.38,1.25.25.3.62.45,1.1.45.57,0,1.08-.41,1.52-1.22l.1-.18v-.46c.03-.39.05-.61.06-.68,0-.01.09-.41.28-1.2.19-.79.39-1.6.6-2.43.21-.83.35-1.3.4-1.39.17-.36.46-.54.86-.54Z"/><line class="uuid-538b45dd-0855-472a-a774-c1df265b26c2" x1="172.75" y1="268.35" x2="181.92" y2="268.35"/><g id="uuid-39f06e27-c7a1-46a2-87bd-13ee27387c68"><path class="uuid-ecd60dbe-7159-4e22-8590-89c5203cc6bb" d="M545.67,151.43c.19,0,.35.05.48.15.13.1.2.24.2.43,0,.17-.2,1.03-.59,2.56-.39,1.53-.6,2.41-.63,2.64-.03.15-.04.38-.04.7,0,.67.17,1.13.52,1.38.24.16.51.24.82.24.95,0,1.7-.81,2.26-2.44.31-.8.51-1.53.62-2.2.01-.07.02-.17.02-.3,0-.67-.24-1.2-.72-1.6-.21-.17-.32-.39-.32-.64,0-.29.12-.56.37-.8.25-.24.52-.36.83-.36.03,0,.05,0,.08.01.03,0,.05,0,.08,0,.56.15.84.64.84,1.48,0,.59-.13,1.37-.38,2.34-.25.97-.51,1.78-.76,2.42-.67,1.65-1.55,2.59-2.64,2.8-.08.01-.21.02-.38.02-.6,0-1.13-.1-1.58-.31-.45-.21-.77-.5-.96-.87-.29.39-.59.68-.89.88s-.69.3-1.17.3c-.89,0-1.61-.21-2.15-.64s-.81-1.06-.81-1.9c0-.36.01-.6.04-.72.08-.53.38-1.5.9-2.9.29-.79.44-1.33.44-1.64,0-.19-.02-.32-.05-.39s-.11-.11-.23-.11h-.1c-.31,0-.6.14-.88.42-.43.43-.75,1.07-.98,1.92,0,.01,0,.04-.02.07-.01.03-.02.05-.03.06,0,0-.02.02-.03.03-.01.01-.04.02-.07.02h-.53c-.11-.11-.13-.26-.06-.46.13-.4.26-.72.38-.96.49-1,1.13-1.6,1.9-1.8.08-.03.23-.04.46-.04.55,0,.98.16,1.3.47.32.31.48.71.48,1.19,0,.27-.12.71-.36,1.34-.59,1.57-.91,2.69-.96,3.34v.26c0,.53.13.95.38,1.25.25.3.62.45,1.1.45.57,0,1.08-.41,1.52-1.22l.1-.18v-.46c.03-.39.05-.61.06-.68,0-.01.09-.41.28-1.2s.39-1.6.6-2.43c.21-.83.35-1.3.4-1.39.17-.36.46-.54.86-.54Z"/><line class="uuid-538b45dd-0855-472a-a774-c1df265b26c2" x1="539.92" y1="148.15" x2="549.08" y2="148.15"/><path class="uuid-ecd60dbe-7159-4e22-8590-89c5203cc6bb" d="M546.32,180.57c.19,0,.35.05.48.15.13.1.2.24.2.43,0,.17-.2,1.03-.59,2.56-.39,1.53-.6,2.41-.63,2.64-.03.15-.04.38-.04.7,0,.67.17,1.13.52,1.38.24.16.51.24.82.24.95,0,1.7-.81,2.26-2.44.31-.8.51-1.53.62-2.2.01-.07.02-.17.02-.3,0-.67-.24-1.2-.72-1.6-.21-.17-.32-.39-.32-.64,0-.29.12-.56.37-.8.25-.24.52-.36.83-.36.03,0,.05,0,.08.01.03,0,.05,0,.08,0,.56.15.84.64.84,1.48,0,.59-.13,1.37-.38,2.34-.25.97-.51,1.78-.76,2.42-.67,1.65-1.55,2.59-2.64,2.8-.08.01-.21.02-.38.02-.6,0-1.13-.1-1.58-.31-.45-.21-.77-.5-.96-.87-.29.39-.59.68-.89.88s-.69.3-1.17.3c-.89,0-1.61-.21-2.15-.64s-.81-1.06-.81-1.9c0-.36.01-.6.04-.72.08-.53.38-1.5.9-2.9.29-.79.44-1.33.44-1.64,0-.19-.02-.32-.05-.39s-.11-.11-.23-.11h-.1c-.31,0-.6.14-.88.42-.43.43-.75,1.07-.98,1.92,0,.01,0,.04-.02.07-.01.03-.02.05-.03.06,0,0-.02.02-.03.03-.01.01-.04.02-.07.02h-.53c-.11-.11-.13-.26-.06-.46.13-.4.26-.72.38-.96.49-1,1.13-1.6,1.9-1.8.08-.03.23-.04.46-.04.55,0,.98.16,1.3.47.32.31.48.71.48,1.19,0,.27-.12.71-.36,1.34-.59,1.57-.91,2.69-.96,3.34v.26c0,.53.13.95.38,1.25.25.3.62.45,1.1.45.57,0,1.08-.41,1.52-1.22l.1-.18v-.46c.03-.39.05-.61.06-.68,0-.01.09-.41.28-1.2s.39-1.6.6-2.43c.21-.83.35-1.3.4-1.39.17-.36.46-.54.86-.54Z"/><path class="uuid-c527dd77-1825-42e7-a83e-0cab83790a39" d="M553.7,150.47c0-.51.12-.86.36-1.06.24-.2.53-.3.86-.3s.64.1.89.3c.25.2.37.55.37,1.06,0,.48-.12.83-.37,1.04-.25.21-.54.32-.89.32s-.62-.11-.86-.32c-.24-.21-.36-.56-.36-1.04ZM553.7,159.03c0-.49.12-.84.36-1.04.24-.2.53-.3.86-.3s.64.1.89.3c.25.2.37.55.37,1.04s-.12.83-.37,1.04c-.25.21-.54.32-.89.32s-.62-.11-.86-.32c-.24-.21-.36-.56-.36-1.04Z"/><path class="uuid-c527dd77-1825-42e7-a83e-0cab83790a39" d="M569.52,149.19c.2,0,.42,0,.65.03s.44.05.61.09l-.22,1.62c-.17-.04-.36-.07-.57-.1s-.4-.04-.59-.04c-.41,0-.81.09-1.18.26-.37.17-.71.42-1,.73-.29.31-.52.69-.69,1.13-.17.44-.25.93-.25,1.48v5.72h-1.76v-10.72h1.44l.2,1.96h.08c.23-.4.5-.76.82-1.09.32-.33.69-.59,1.1-.78s.87-.29,1.36-.29Z"/><path class="uuid-c527dd77-1825-42e7-a83e-0cab83790a39" d="M576.52,149.19c.92,0,1.71.2,2.37.6.66.4,1.17.96,1.52,1.69.35.73.53,1.58.53,2.55v1.06h-7.34c.03,1.21.34,2.14.93,2.77.59.63,1.42.95,2.49.95.68,0,1.28-.06,1.81-.19.53-.13,1.07-.31,1.63-.55v1.54c-.55.24-1.09.42-1.62.53-.53.11-1.17.17-1.9.17-1.01,0-1.91-.21-2.69-.62-.78-.41-1.39-1.03-1.82-1.85s-.65-1.82-.65-3.01.2-2.18.59-3.02c.39-.84.95-1.49,1.66-1.94.71-.45,1.54-.68,2.49-.68ZM576.5,150.63c-.84,0-1.5.27-1.99.81-.49.54-.78,1.29-.87,2.25h5.46c0-.61-.09-1.15-.28-1.6-.19-.45-.47-.81-.85-1.07-.38-.26-.87-.39-1.47-.39Z"/><path class="uuid-c527dd77-1825-42e7-a83e-0cab83790a39" d="M590.64,157.15c0,.69-.17,1.27-.52,1.74-.35.47-.84.82-1.48,1.06-.64.24-1.4.36-2.28.36-.75,0-1.39-.06-1.93-.18s-1.02-.29-1.43-.5v-1.6c.43.21.94.41,1.55.59.61.18,1.22.27,1.85.27.89,0,1.54-.14,1.94-.43.4-.29.6-.67.6-1.15,0-.27-.07-.51-.22-.72-.15-.21-.41-.43-.79-.64-.38-.21-.92-.45-1.63-.72-.69-.27-1.29-.53-1.78-.8-.49-.27-.87-.59-1.14-.96-.27-.37-.4-.85-.4-1.44,0-.91.37-1.61,1.11-2.1.74-.49,1.71-.74,2.91-.74.65,0,1.26.06,1.83.19.57.13,1.1.3,1.59.53l-.6,1.4c-.45-.19-.93-.35-1.42-.48-.49-.13-1-.2-1.52-.2-.72,0-1.27.12-1.65.35-.38.23-.57.55-.57.95,0,.29.09.54.26.75.17.21.46.41.87.6.41.19.95.42,1.63.69.68.25,1.26.51,1.74.78.48.27.85.59,1.1.97.25.38.38.86.38,1.43Z"/><path class="uuid-c527dd77-1825-42e7-a83e-0cab83790a39" d="M597.38,149.19c.92,0,1.71.2,2.37.6.66.4,1.17.96,1.52,1.69.35.73.53,1.58.53,2.55v1.06h-7.34c.03,1.21.34,2.14.93,2.77.59.63,1.42.95,2.49.95.68,0,1.28-.06,1.81-.19.53-.13,1.07-.31,1.63-.55v1.54c-.55.24-1.09.42-1.62.53-.53.11-1.17.17-1.9.17-1.01,0-1.91-.21-2.69-.62-.78-.41-1.39-1.03-1.82-1.85s-.65-1.82-.65-3.01.2-2.18.59-3.02c.39-.84.95-1.49,1.66-1.94.71-.45,1.54-.68,2.49-.68ZM597.36,150.63c-.84,0-1.5.27-1.99.81-.49.54-.78,1.29-.87,2.25h5.46c0-.61-.09-1.15-.28-1.6-.19-.45-.47-.81-.85-1.07-.38-.26-.87-.39-1.47-.39Z"/><path class="uuid-c527dd77-1825-42e7-a83e-0cab83790a39" d="M609.52,149.19c.2,0,.42,0,.65.03s.44.05.61.09l-.22,1.62c-.17-.04-.36-.07-.57-.1s-.4-.04-.59-.04c-.41,0-.81.09-1.18.26-.37.17-.71.42-1,.73-.29.31-.52.69-.69,1.13-.17.44-.25.93-.25,1.48v5.72h-1.76v-10.72h1.44l.2,1.96h.08c.23-.4.5-.76.82-1.09.32-.33.69-.59,1.1-.78s.87-.29,1.36-.29Z"/><path class="uuid-c527dd77-1825-42e7-a83e-0cab83790a39" d="M615.14,160.11l-4.06-10.72h1.88l2.28,6.32c.11.29.22.62.34.98s.23.7.32,1.03c.09.33.16.6.2.83h.08c.05-.23.13-.51.23-.84.1-.33.21-.68.34-1.04s.24-.68.33-.96l2.28-6.32h1.88l-4.08,10.72h-2.02Z"/><path class="uuid-c527dd77-1825-42e7-a83e-0cab83790a39" d="M627,149.21c1.31,0,2.27.29,2.9.86.63.57.94,1.49.94,2.74v7.3h-1.28l-.34-1.52h-.08c-.31.39-.62.71-.95.97-.33.26-.7.45-1.12.57s-.93.18-1.53.18c-.64,0-1.22-.11-1.73-.34-.51-.23-.92-.58-1.21-1.05-.29-.47-.44-1.07-.44-1.79,0-1.07.42-1.89,1.26-2.47.84-.58,2.13-.9,3.88-.95l1.82-.06v-.64c0-.89-.19-1.51-.58-1.86s-.93-.52-1.64-.52c-.56,0-1.09.08-1.6.25-.51.17-.98.36-1.42.57l-.54-1.32c.47-.25,1.02-.47,1.66-.65.64-.18,1.31-.27,2-.27ZM627.52,154.93c-1.33.05-2.26.27-2.77.64-.51.37-.77.9-.77,1.58,0,.6.18,1.04.55,1.32.37.28.84.42,1.41.42.91,0,1.66-.25,2.26-.75s.9-1.27.9-2.31v-.96l-1.58.06Z"/><path class="uuid-c527dd77-1825-42e7-a83e-0cab83790a39" d="M637.74,158.87c.27,0,.54-.02.82-.07.28-.05.51-.1.68-.15v1.34c-.19.09-.45.17-.8.23-.35.06-.68.09-1,.09-.56,0-1.08-.1-1.55-.29-.47-.19-.86-.53-1.15-1.01-.29-.48-.44-1.15-.44-2.02v-6.24h-1.52v-.84l1.54-.7.7-2.28h1.04v2.46h3.1v1.36h-3.1v6.2c0,.65.16,1.14.47,1.45.31.31.72.47,1.21.47Z"/><path class="uuid-c527dd77-1825-42e7-a83e-0cab83790a39" d="M642.28,145.37c.27,0,.5.09.71.27.21.18.31.46.31.85s-.1.65-.31.84c-.21.19-.44.28-.71.28-.29,0-.54-.09-.74-.28-.2-.19-.3-.47-.3-.84s.1-.67.3-.85c.2-.18.45-.27.74-.27ZM643.14,149.39v10.72h-1.76v-10.72h1.76Z"/><path class="uuid-c527dd77-1825-42e7-a83e-0cab83790a39" d="M655.86,154.73c0,.89-.12,1.68-.35,2.37-.23.69-.57,1.27-1,1.75-.43.48-.96.84-1.58,1.09s-1.31.37-2.07.37c-.71,0-1.36-.12-1.96-.37-.6-.25-1.12-.61-1.56-1.09-.44-.48-.78-1.06-1.03-1.75-.25-.69-.37-1.48-.37-2.37,0-1.19.2-2.19.6-3.01.4-.82.97-1.45,1.72-1.88.75-.43,1.63-.65,2.66-.65.97,0,1.83.22,2.57.65.74.43,1.32,1.06,1.74,1.88.42.82.63,1.82.63,3.01ZM647.76,154.73c0,.84.11,1.57.33,2.19s.56,1.1,1.03,1.43c.47.33,1.06.5,1.78.5s1.31-.17,1.78-.5c.47-.33.81-.81,1.03-1.43s.33-1.35.33-2.19-.11-1.58-.34-2.18c-.23-.6-.57-1.06-1.03-1.39-.46-.33-1.06-.49-1.79-.49-1.09,0-1.89.36-2.38,1.08-.49.72-.74,1.71-.74,2.98Z"/><path class="uuid-c527dd77-1825-42e7-a83e-0cab83790a39" d="M663.8,149.19c1.28,0,2.25.31,2.9.93.65.62.98,1.62.98,3.01v6.98h-1.74v-6.86c0-.87-.19-1.51-.58-1.94s-.99-.64-1.82-.64c-1.19,0-2.01.33-2.46,1-.45.67-.68,1.63-.68,2.88v5.56h-1.76v-10.72h1.42l.26,1.46h.1c.24-.37.54-.68.89-.93.35-.25.74-.43,1.17-.55.43-.12.87-.18,1.32-.18Z"/><path class="uuid-c527dd77-1825-42e7-a83e-0cab83790a39" d="M681.29,149.19c1.32,0,2.38.46,3.19,1.38s1.21,2.31,1.21,4.16c0,1.21-.18,2.24-.55,3.07-.37.83-.88,1.46-1.54,1.88-.66.42-1.44.63-2.33.63-.55,0-1.03-.07-1.46-.22-.43-.15-.79-.34-1.09-.57-.3-.23-.56-.49-.77-.77h-.12c.03.23.05.51.08.86s.04.65.04.9v4.4h-1.76v-15.52h1.44l.24,1.46h.08c.21-.31.47-.59.77-.84.3-.25.66-.45,1.08-.6.42-.15.92-.22,1.49-.22ZM680.98,150.67c-.72,0-1.3.14-1.74.41-.44.27-.76.68-.96,1.23s-.31,1.24-.32,2.08v.34c0,.88.09,1.63.28,2.24.19.61.5,1.08.95,1.4.45.32,1.06.48,1.83.48.65,0,1.19-.18,1.61-.54.42-.36.73-.85.94-1.47.21-.62.31-1.33.31-2.13,0-1.23-.24-2.21-.71-2.94s-1.2-1.1-2.19-1.1Z"/><path class="uuid-c527dd77-1825-42e7-a83e-0cab83790a39" d="M693.5,149.19c.2,0,.42,0,.65.03s.44.05.61.09l-.22,1.62c-.17-.04-.36-.07-.57-.1s-.4-.04-.59-.04c-.41,0-.81.09-1.18.26-.37.17-.71.42-1,.73-.29.31-.52.69-.69,1.13-.17.44-.25.93-.25,1.48v5.72h-1.76v-10.72h1.44l.2,1.96h.08c.23-.4.5-.76.82-1.09.32-.33.69-.59,1.1-.78s.87-.29,1.36-.29Z"/><path class="uuid-c527dd77-1825-42e7-a83e-0cab83790a39" d="M697.65,145.37c.27,0,.5.09.71.27.21.18.31.46.31.85s-.1.65-.31.84c-.21.19-.44.28-.71.28-.29,0-.54-.09-.74-.28-.2-.19-.3-.47-.3-.84s.1-.67.3-.85c.2-.18.45-.27.74-.27ZM698.51,149.39v10.72h-1.76v-10.72h1.76Z"/><path class="uuid-c527dd77-1825-42e7-a83e-0cab83790a39" d="M706.21,160.31c-.95,0-1.79-.19-2.53-.58-.74-.39-1.32-.99-1.74-1.8-.42-.81-.63-1.85-.63-3.12s.22-2.39.66-3.22c.44-.83,1.04-1.43,1.79-1.82s1.61-.58,2.57-.58c.55,0,1.07.06,1.58.17s.92.25,1.24.41l-.54,1.46c-.32-.12-.69-.23-1.12-.34-.43-.11-.83-.16-1.2-.16-.72,0-1.31.15-1.78.46s-.81.76-1.04,1.36-.34,1.35-.34,2.24.11,1.58.34,2.18.57,1.05,1.02,1.36c.45.31,1.02.46,1.7.46.59,0,1.1-.06,1.55-.18.45-.12.86-.27,1.23-.44v1.56c-.36.19-.76.33-1.19.43-.43.1-.96.15-1.57.15Z"/><path class="uuid-c527dd77-1825-42e7-a83e-0cab83790a39" d="M715.65,149.19c.92,0,1.71.2,2.37.6.66.4,1.17.96,1.52,1.69.35.73.53,1.58.53,2.55v1.06h-7.34c.03,1.21.34,2.14.93,2.77.59.63,1.42.95,2.49.95.68,0,1.28-.06,1.81-.19.53-.13,1.07-.31,1.63-.55v1.54c-.55.24-1.09.42-1.62.53-.53.11-1.17.17-1.9.17-1.01,0-1.91-.21-2.69-.62-.78-.41-1.39-1.03-1.82-1.85s-.65-1.82-.65-3.01.2-2.18.59-3.02c.39-.84.95-1.49,1.66-1.94.71-.45,1.54-.68,2.49-.68ZM715.63,150.63c-.84,0-1.5.27-1.99.81-.49.54-.78,1.29-.87,2.25h5.46c0-.61-.09-1.15-.28-1.6-.19-.45-.47-.81-.85-1.07-.38-.26-.87-.39-1.47-.39Z"/><path class="uuid-c527dd77-1825-42e7-a83e-0cab83790a39" d="M555.14,179.77c0-.51.12-.86.36-1.06.24-.2.53-.3.86-.3s.64.1.89.3c.25.2.37.55.37,1.06,0,.48-.12.83-.37,1.04-.25.21-.54.32-.89.32s-.62-.11-.86-.32c-.24-.21-.36-.56-.36-1.04ZM555.14,188.33c0-.49.12-.84.36-1.04.24-.2.53-.3.86-.3s.64.1.89.3c.25.2.37.55.37,1.04s-.12.83-.37,1.04c-.25.21-.54.32-.89.32s-.62-.11-.86-.32c-.24-.21-.36-.56-.36-1.04Z"/><path class="uuid-c527dd77-1825-42e7-a83e-0cab83790a39" d="M577.72,178.49c1.21,0,2.12.31,2.72.93.6.62.9,1.62.9,3.01v6.98h-1.74v-6.9c0-.84-.18-1.47-.53-1.9-.35-.43-.9-.64-1.65-.64-1.04,0-1.78.3-2.23.9-.45.6-.67,1.47-.67,2.62v5.92h-1.74v-6.9c0-.56-.08-1.03-.24-1.41s-.4-.66-.72-.85c-.32-.19-.73-.28-1.24-.28-.72,0-1.29.15-1.7.45-.41.3-.71.74-.89,1.31-.18.57-.27,1.28-.27,2.12v5.56h-1.76v-10.72h1.42l.26,1.46h.1c.23-.37.5-.68.83-.93.33-.25.69-.43,1.09-.55.4-.12.81-.18,1.24-.18.83,0,1.52.15,2.07.44.55.29.96.75,1.21,1.36h.1c.36-.61.85-1.07,1.47-1.36.62-.29,1.28-.44,1.97-.44Z"/><path class="uuid-c527dd77-1825-42e7-a83e-0cab83790a39" d="M588.72,178.51c1.31,0,2.27.29,2.9.86.63.57.94,1.49.94,2.74v7.3h-1.28l-.34-1.52h-.08c-.31.39-.62.71-.95.97-.33.26-.7.45-1.12.57s-.93.18-1.53.18c-.64,0-1.22-.11-1.73-.34-.51-.23-.92-.58-1.21-1.05-.29-.47-.44-1.07-.44-1.79,0-1.07.42-1.89,1.26-2.47.84-.58,2.13-.9,3.88-.95l1.82-.06v-.64c0-.89-.19-1.51-.58-1.86s-.93-.52-1.64-.52c-.56,0-1.09.08-1.6.25-.51.17-.98.36-1.42.57l-.54-1.32c.47-.25,1.02-.47,1.66-.65.64-.18,1.31-.27,2-.27ZM589.24,184.23c-1.33.05-2.26.27-2.77.64-.51.37-.77.9-.77,1.58,0,.6.18,1.04.55,1.32.37.28.84.42,1.41.42.91,0,1.66-.25,2.26-.75s.9-1.27.9-2.31v-.96l-1.58.06Z"/><path class="uuid-c527dd77-1825-42e7-a83e-0cab83790a39" d="M600.88,178.49c.2,0,.42,0,.65.03s.44.05.61.09l-.22,1.62c-.17-.04-.36-.07-.57-.1s-.4-.04-.59-.04c-.41,0-.81.09-1.18.26-.37.17-.71.42-1,.73-.29.31-.52.69-.69,1.13-.17.44-.25.93-.25,1.48v5.72h-1.76v-10.72h1.44l.2,1.96h.08c.23-.4.5-.76.82-1.09.32-.33.69-.59,1.1-.78s.87-.29,1.36-.29Z"/><path class="uuid-c527dd77-1825-42e7-a83e-0cab83790a39" d="M605.88,182.15c0,.21-.01.49-.03.84-.02.35-.04.65-.05.9h.08c.08-.11.2-.26.36-.46s.32-.4.49-.61.31-.38.43-.51l3.42-3.62h2.06l-4.34,4.58,4.64,6.14h-2.12l-3.72-5-1.22,1.06v3.94h-1.74v-15.2h1.74v7.94Z"/><path class="uuid-c527dd77-1825-42e7-a83e-0cab83790a39" d="M618.96,178.49c.92,0,1.71.2,2.37.6.66.4,1.17.96,1.52,1.69.35.73.53,1.58.53,2.55v1.06h-7.34c.03,1.21.34,2.14.93,2.77.59.63,1.42.95,2.49.95.68,0,1.28-.06,1.81-.19.53-.13,1.07-.31,1.63-.55v1.54c-.55.24-1.09.42-1.62.53-.53.11-1.17.17-1.9.17-1.01,0-1.91-.21-2.69-.62-.78-.41-1.39-1.03-1.82-1.85s-.65-1.82-.65-3.01.2-2.18.59-3.02c.39-.84.95-1.49,1.66-1.94.71-.45,1.54-.68,2.49-.68ZM618.94,179.93c-.84,0-1.5.27-1.99.81-.49.54-.78,1.29-.87,2.25h5.46c0-.61-.09-1.15-.28-1.6-.19-.45-.47-.81-.85-1.07-.38-.26-.87-.39-1.47-.39Z"/><path class="uuid-c527dd77-1825-42e7-a83e-0cab83790a39" d="M629.68,188.17c.27,0,.54-.02.82-.07.28-.05.51-.1.68-.15v1.34c-.19.09-.45.17-.8.23-.35.06-.68.09-1,.09-.56,0-1.08-.1-1.55-.29-.47-.19-.86-.53-1.15-1.01-.29-.48-.44-1.15-.44-2.02v-6.24h-1.52v-.84l1.54-.7.7-2.28h1.04v2.46h3.1v1.36h-3.1v6.2c0,.65.16,1.14.47,1.45.31.31.72.47,1.21.47Z"/><path class="uuid-c527dd77-1825-42e7-a83e-0cab83790a39" d="M645.44,183.35c-.08-.28-.16-.56-.24-.83-.08-.27-.15-.53-.21-.78-.06-.25-.12-.48-.17-.69-.05-.21-.09-.39-.12-.54h-.08c-.03.15-.06.33-.11.54-.05.21-.1.45-.16.7-.06.25-.13.52-.2.79-.07.27-.16.55-.25.83l-1.92,6.02h-2l-2.94-10.72h1.82l1.48,5.72c.11.39.21.78.3,1.17.09.39.18.77.25,1.12.07.35.12.66.15.91h.08c.04-.16.09-.36.14-.6.05-.24.11-.49.17-.76.06-.27.13-.53.2-.8.07-.27.14-.51.21-.72l1.9-6.04h1.92l1.84,6.04c.09.31.19.63.29.98.1.35.19.68.27,1.01s.13.62.16.87h.08c.03-.23.08-.51.15-.85s.16-.71.26-1.12c.1-.41.2-.81.31-1.21l1.5-5.72h1.8l-2.98,10.72h-2.06l-1.84-6.04Z"/><path class="uuid-c527dd77-1825-42e7-a83e-0cab83790a39" d="M658.29,178.51c1.31,0,2.27.29,2.9.86.63.57.94,1.49.94,2.74v7.3h-1.28l-.34-1.52h-.08c-.31.39-.62.71-.95.97-.33.26-.7.45-1.12.57s-.93.18-1.53.18c-.64,0-1.22-.11-1.73-.34-.51-.23-.92-.58-1.21-1.05-.29-.47-.44-1.07-.44-1.79,0-1.07.42-1.89,1.26-2.47.84-.58,2.13-.9,3.88-.95l1.82-.06v-.64c0-.89-.19-1.51-.58-1.86s-.93-.52-1.64-.52c-.56,0-1.09.08-1.6.25-.51.17-.98.36-1.42.57l-.54-1.32c.47-.25,1.02-.47,1.66-.65.64-.18,1.31-.27,2-.27ZM658.82,184.23c-1.33.05-2.26.27-2.77.64-.51.37-.77.9-.77,1.58,0,.6.18,1.04.55,1.32.37.28.84.42,1.41.42.91,0,1.66-.25,2.26-.75s.9-1.27.9-2.31v-.96l-1.58.06Z"/><path class="uuid-c527dd77-1825-42e7-a83e-0cab83790a39" d="M669.25,178.49c.71,0,1.34.13,1.91.4.57.27,1.05.67,1.45,1.22h.1l.24-1.42h1.4v10.9c0,1.01-.17,1.86-.52,2.55-.35.69-.87,1.2-1.58,1.55s-1.61.52-2.7.52c-.77,0-1.48-.06-2.13-.17s-1.22-.28-1.73-.51v-1.62c.51.27,1.1.47,1.78.62.68.15,1.41.22,2.18.22.92,0,1.64-.27,2.17-.81.53-.54.79-1.28.79-2.21v-.42c0-.16,0-.39.02-.69s.03-.51.04-.63h-.08c-.37.55-.84.95-1.39,1.22-.55.27-1.2.4-1.93.4-1.39,0-2.47-.49-3.25-1.46-.78-.97-1.17-2.33-1.17-4.08s.39-3.06,1.17-4.07c.78-1.01,1.86-1.51,3.23-1.51ZM669.5,179.97c-.6,0-1.11.16-1.53.48s-.74.79-.96,1.4-.33,1.36-.33,2.24c0,1.32.24,2.33.73,3.03.49.7,1.2,1.05,2.13,1.05.55,0,1.01-.07,1.4-.21.39-.14.71-.36.96-.66.25-.3.44-.68.56-1.15s.18-1.02.18-1.66v-.42c0-.97-.11-1.76-.33-2.36-.22-.6-.56-1.04-1.03-1.32s-1.06-.42-1.78-.42Z"/><path class="uuid-c527dd77-1825-42e7-a83e-0cab83790a39" d="M681.89,178.49c.92,0,1.71.2,2.37.6.66.4,1.17.96,1.52,1.69.35.73.53,1.58.53,2.55v1.06h-7.34c.03,1.21.34,2.14.93,2.77.59.63,1.42.95,2.49.95.68,0,1.28-.06,1.81-.19.53-.13,1.07-.31,1.63-.55v1.54c-.55.24-1.09.42-1.62.53-.53.11-1.17.17-1.9.17-1.01,0-1.91-.21-2.69-.62-.78-.41-1.39-1.03-1.82-1.85s-.65-1.82-.65-3.01.2-2.18.59-3.02c.39-.84.95-1.49,1.66-1.94.71-.45,1.54-.68,2.49-.68ZM681.88,179.93c-.84,0-1.5.27-1.99.81-.49.54-.78,1.29-.87,2.25h5.46c0-.61-.09-1.15-.28-1.6-.19-.45-.47-.81-.85-1.07-.38-.26-.87-.39-1.47-.39Z"/><path class="uuid-c527dd77-1825-42e7-a83e-0cab83790a39" d="M554.57,121.31c0-.51.12-.86.36-1.06.24-.2.53-.3.86-.3s.64.1.89.3c.25.2.37.55.37,1.06,0,.48-.12.83-.37,1.04-.25.21-.54.32-.89.32s-.62-.11-.86-.32c-.24-.21-.36-.56-.36-1.04ZM554.57,129.87c0-.49.12-.84.36-1.04.24-.2.53-.3.86-.3s.64.1.89.3c.25.2.37.55.37,1.04s-.12.83-.37,1.04c-.25.21-.54.32-.89.32s-.62-.11-.86-.32c-.24-.21-.36-.56-.36-1.04Z"/><path class="uuid-c527dd77-1825-42e7-a83e-0cab83790a39" d="M568.97,129.71c.27,0,.54-.02.82-.07.28-.05.51-.1.68-.15v1.34c-.19.09-.45.17-.8.23-.35.06-.68.09-1,.09-.56,0-1.08-.1-1.55-.29-.47-.19-.86-.53-1.15-1.01-.29-.48-.44-1.15-.44-2.02v-6.24h-1.52v-.84l1.54-.7.7-2.28h1.04v2.46h3.1v1.36h-3.1v6.2c0,.65.16,1.14.47,1.45.31.31.72.47,1.21.47Z"/><path class="uuid-c527dd77-1825-42e7-a83e-0cab83790a39" d="M574.37,120.21c0,.25,0,.51-.03.78-.02.27-.04.51-.07.72h.12c.23-.37.51-.68.86-.92.35-.24.73-.42,1.16-.55.43-.13.87-.19,1.32-.19.87,0,1.59.14,2.17.41.58.27,1.02.7,1.31,1.27.29.57.44,1.32.44,2.24v6.98h-1.74v-6.86c0-.87-.19-1.51-.58-1.94s-.99-.64-1.82-.64-1.43.15-1.88.45c-.45.3-.78.74-.97,1.32s-.29,1.29-.29,2.13v5.54h-1.76v-15.2h1.76v4.46Z"/><path class="uuid-c527dd77-1825-42e7-a83e-0cab83790a39" d="M589.97,120.03c.2,0,.42,0,.65.03s.44.05.61.09l-.22,1.62c-.17-.04-.36-.07-.57-.1s-.4-.04-.59-.04c-.41,0-.81.09-1.18.26-.37.17-.71.42-1,.73-.29.31-.52.69-.69,1.13-.17.44-.25.93-.25,1.48v5.72h-1.76v-10.72h1.44l.2,1.96h.08c.23-.4.5-.76.82-1.09.32-.33.69-.59,1.1-.78s.87-.29,1.36-.29Z"/><path class="uuid-c527dd77-1825-42e7-a83e-0cab83790a39" d="M596.97,120.03c.92,0,1.71.2,2.37.6.66.4,1.17.96,1.52,1.69.35.73.53,1.58.53,2.55v1.06h-7.34c.03,1.21.34,2.14.93,2.77.59.63,1.42.95,2.49.95.68,0,1.28-.06,1.81-.19.53-.13,1.07-.31,1.63-.55v1.54c-.55.24-1.09.42-1.62.53-.53.11-1.17.17-1.9.17-1.01,0-1.91-.21-2.69-.62-.78-.41-1.39-1.03-1.82-1.85s-.65-1.82-.65-3.01.2-2.18.59-3.02c.39-.84.95-1.49,1.66-1.94.71-.45,1.54-.68,2.49-.68ZM596.95,121.47c-.84,0-1.5.27-1.99.81-.49.54-.78,1.29-.87,2.25h5.46c0-.61-.09-1.15-.28-1.6-.19-.45-.47-.81-.85-1.07-.38-.26-.87-.39-1.47-.39Z"/><path class="uuid-c527dd77-1825-42e7-a83e-0cab83790a39" d="M611.09,127.99c0,.69-.17,1.27-.52,1.74-.35.47-.84.82-1.48,1.06-.64.24-1.4.36-2.28.36-.75,0-1.39-.06-1.93-.18s-1.02-.29-1.43-.5v-1.6c.43.21.94.41,1.55.59.61.18,1.22.27,1.85.27.89,0,1.54-.14,1.94-.43.4-.29.6-.67.6-1.15,0-.27-.07-.51-.22-.72-.15-.21-.41-.43-.79-.64-.38-.21-.92-.45-1.63-.72-.69-.27-1.29-.53-1.78-.8-.49-.27-.87-.59-1.14-.96-.27-.37-.4-.85-.4-1.44,0-.91.37-1.61,1.11-2.1.74-.49,1.71-.74,2.91-.74.65,0,1.26.06,1.83.19.57.13,1.1.3,1.59.53l-.6,1.4c-.45-.19-.93-.35-1.42-.48-.49-.13-1-.2-1.52-.2-.72,0-1.27.12-1.65.35-.38.23-.57.55-.57.95,0,.29.09.54.26.75.17.21.46.41.87.6.41.19.95.42,1.63.69.68.25,1.26.51,1.74.78.48.27.85.59,1.1.97.25.38.38.86.38,1.43Z"/><path class="uuid-c527dd77-1825-42e7-a83e-0cab83790a39" d="M615.45,120.21c0,.25,0,.51-.03.78-.02.27-.04.51-.07.72h.12c.23-.37.51-.68.86-.92.35-.24.73-.42,1.16-.55.43-.13.87-.19,1.32-.19.87,0,1.59.14,2.17.41.58.27,1.02.7,1.31,1.27.29.57.44,1.32.44,2.24v6.98h-1.74v-6.86c0-.87-.19-1.51-.58-1.94s-.99-.64-1.82-.64-1.43.15-1.88.45c-.45.3-.78.74-.97,1.32s-.29,1.29-.29,2.13v5.54h-1.76v-15.2h1.76v4.46Z"/><path class="uuid-c527dd77-1825-42e7-a83e-0cab83790a39" d="M635.37,125.57c0,.89-.12,1.68-.35,2.37-.23.69-.57,1.27-1,1.75-.43.48-.96.84-1.58,1.09s-1.31.37-2.07.37c-.71,0-1.36-.12-1.96-.37-.6-.25-1.12-.61-1.56-1.09-.44-.48-.78-1.06-1.03-1.75-.25-.69-.37-1.48-.37-2.37,0-1.19.2-2.19.6-3.01.4-.82.97-1.45,1.72-1.88.75-.43,1.63-.65,2.66-.65.97,0,1.83.22,2.57.65.74.43,1.32,1.06,1.74,1.88.42.82.63,1.82.63,3.01ZM627.27,125.57c0,.84.11,1.57.33,2.19s.56,1.1,1.03,1.43c.47.33,1.06.5,1.78.5s1.31-.17,1.78-.5c.47-.33.81-.81,1.03-1.43s.33-1.35.33-2.19-.11-1.58-.34-2.18c-.23-.6-.57-1.06-1.03-1.39-.46-.33-1.06-.49-1.79-.49-1.09,0-1.89.36-2.38,1.08-.49.72-.74,1.71-.74,2.98Z"/><path class="uuid-c527dd77-1825-42e7-a83e-0cab83790a39" d="M639.91,130.95h-1.76v-15.2h1.76v15.2Z"/><path class="uuid-c527dd77-1825-42e7-a83e-0cab83790a39" d="M647.11,131.15c-1.33,0-2.4-.46-3.2-1.39s-1.2-2.31-1.2-4.15.4-3.23,1.21-4.17c.81-.94,1.88-1.41,3.21-1.41.56,0,1.05.07,1.46.21.41.14.77.33,1.08.57.31.24.57.51.78.8h.12c-.01-.17-.04-.43-.07-.77-.03-.34-.05-.61-.05-.81v-4.28h1.76v15.2h-1.42l-.26-1.44h-.08c-.21.31-.47.58-.78.83s-.67.44-1.09.59-.91.22-1.47.22ZM647.39,129.69c1.13,0,1.93-.31,2.39-.93s.69-1.56.69-2.81v-.32c0-1.33-.22-2.36-.66-3.07-.44-.71-1.25-1.07-2.44-1.07-.95,0-1.66.38-2.13,1.13-.47.75-.71,1.76-.71,3.03s.24,2.27.71,2.98,1.19,1.06,2.15,1.06Z"/><path class="uuid-c527dd77-1825-42e7-a83e-0cab83790a39" d="M665.75,121.59h-2.7v9.36h-1.76v-9.36h-1.88v-.82l1.88-.6v-.62c0-.92.14-1.67.41-2.24.27-.57.67-.99,1.19-1.26.52-.27,1.15-.4,1.88-.4.43,0,.82.04,1.17.11s.66.16.91.25l-.46,1.38c-.21-.07-.46-.13-.74-.2-.28-.07-.57-.1-.86-.1-.59,0-1.02.2-1.31.59-.29.39-.43,1.01-.43,1.85v.7h2.7v1.36Z"/><path class="uuid-c527dd77-1825-42e7-a83e-0cab83790a39" d="M677.01,125.57c0,.89-.12,1.68-.35,2.37-.23.69-.57,1.27-1,1.75-.43.48-.96.84-1.58,1.09s-1.31.37-2.07.37c-.71,0-1.36-.12-1.96-.37-.6-.25-1.12-.61-1.56-1.09-.44-.48-.78-1.06-1.03-1.75-.25-.69-.37-1.48-.37-2.37,0-1.19.2-2.19.6-3.01.4-.82.97-1.45,1.72-1.88.75-.43,1.63-.65,2.66-.65.97,0,1.83.22,2.57.65.74.43,1.32,1.06,1.74,1.88.42.82.63,1.82.63,3.01ZM668.91,125.57c0,.84.11,1.57.33,2.19s.56,1.1,1.03,1.43c.47.33,1.06.5,1.78.5s1.31-.17,1.78-.5c.47-.33.81-.81,1.03-1.43s.33-1.35.33-2.19-.11-1.58-.34-2.18c-.23-.6-.57-1.06-1.03-1.39-.46-.33-1.06-.49-1.79-.49-1.09,0-1.89.36-2.38,1.08-.49.72-.74,1.71-.74,2.98Z"/><path class="uuid-c527dd77-1825-42e7-a83e-0cab83790a39" d="M684.79,120.03c.2,0,.42,0,.65.03s.44.05.61.09l-.22,1.62c-.17-.04-.36-.07-.57-.1s-.4-.04-.59-.04c-.41,0-.81.09-1.18.26-.37.17-.71.42-1,.73-.29.31-.52.69-.69,1.13-.17.44-.25.93-.25,1.48v5.72h-1.76v-10.72h1.44l.2,1.96h.08c.23-.4.5-.76.82-1.09.32-.33.69-.59,1.1-.78s.87-.29,1.36-.29Z"/><path class="uuid-c527dd77-1825-42e7-a83e-0cab83790a39" d="M697.25,118.39s0-.03-.02-.05c-.01-.02-.03-.03-.06-.04-.03,0-.05-.02-.08-.03-.03-.01-.07-.02-.12-.03-.05,0-.1-.01-.14-.01h-.16c-.07,0-.12,0-.17,0-.05,0-.11-.01-.19-.01h-.2c-.32,0-.51,0-.58-.02-.07-.01-.11-.05-.14-.12-.03-.04-.02-.16.02-.36.07-.25.13-.39.18-.4.04-.01.14-.02.3-.02.72.04,1.57.06,2.54.06.19,0,.45,0,.8,0s.6-.01.76-.01c.2,0,.44,0,.73,0s.51-.01.66-.02.25-.01.29-.01h.24c.08.08.12.14.13.17,0,.03,0,.16-.05.37-.05.19-.11.31-.18.38h-.76c-.92.01-1.46.07-1.62.18-.09.05-.19.24-.28.57-.09.33-.54,2.08-1.34,5.27-.21.87-.44,1.79-.68,2.77s-.42,1.71-.54,2.19l-.18.72c0,.05.06.08.18.09.12,0,.51.02,1.18.03,1,0,1.71-.03,2.13-.1.42-.07.88-.25,1.39-.54.53-.31.96-.72,1.29-1.23.33-.51.65-1.2.97-2.05.09-.27.17-.45.22-.56.07-.04.18-.06.34-.06h.26c.08.12.12.19.12.22s-.14.42-.41,1.18c-.27.76-.56,1.56-.87,2.41s-.48,1.34-.52,1.47c-.04.08-.07.13-.1.14-.04.03-1.76.04-5.16.04s-5.12-.01-5.16-.04c-.09-.05-.11-.2-.04-.44,0-.01,0-.04.02-.08.07-.21.14-.33.22-.34.04-.01.13-.02.26-.02h.12c.36,0,.76-.02,1.2-.06.19-.04.31-.12.38-.24.04-.05.52-1.91,1.44-5.56s1.38-5.58,1.38-5.78Z"/><path class="uuid-c527dd77-1825-42e7-a83e-0cab83790a39" d="M711.17,127.07l7.54-3.14-7.54-3.58v-1.56l9.42,4.7v1l-9.42,4.14v-1.56Z"/><path class="uuid-c527dd77-1825-42e7-a83e-0cab83790a39" d="M728.53,119.25c.75-1.08,1.77-1.62,3.06-1.62.97,0,1.83.33,2.56,1,.36.35.67.8.92,1.36.49,1.11.74,2.63.74,4.56,0,2.07-.29,3.65-.86,4.74-.37.77-.92,1.33-1.64,1.68-.56.28-1.13.42-1.7.42-1.53,0-2.65-.7-3.36-2.1-.57-1.09-.86-2.67-.86-4.74,0-1.24.08-2.26.25-3.07.17-.81.46-1.55.89-2.23ZM733.03,119.01c-.39-.43-.86-.64-1.42-.64s-1.04.21-1.44.64c-.29.31-.49.68-.6,1.12s-.17,1.2-.2,2.28c0,.08,0,.34,0,.78,0,.44,0,.81,0,1.1,0,1.28.01,2.17.04,2.68.05.93.13,1.6.24,2.01.11.41.31.76.6,1.05.36.4.82.6,1.38.6s1-.2,1.36-.6c.29-.29.49-.64.6-1.05.11-.41.19-1.08.24-2.01.03-.51.04-1.4.04-2.68,0-.29,0-.66,0-1.1,0-.44-.01-.7-.01-.78-.03-1.08-.09-1.84-.2-2.28-.11-.44-.31-.81-.6-1.12Z"/><path class="uuid-ecd60dbe-7159-4e22-8590-89c5203cc6bb" d="M543.67,122.67c.19,0,.35.05.48.15.13.1.2.24.2.43,0,.17-.2,1.03-.59,2.56-.39,1.53-.6,2.41-.63,2.64-.03.15-.04.38-.04.7,0,.67.17,1.13.52,1.38.24.16.51.24.82.24.95,0,1.7-.81,2.26-2.44.31-.8.51-1.53.62-2.2.01-.07.02-.17.02-.3,0-.67-.24-1.2-.72-1.6-.21-.17-.32-.39-.32-.64,0-.29.12-.56.37-.8s.52-.36.83-.36c.03,0,.05,0,.08.01.03,0,.05,0,.08,0,.56.15.84.64.84,1.48,0,.59-.13,1.37-.38,2.34-.25.97-.51,1.78-.76,2.42-.67,1.65-1.55,2.59-2.64,2.8-.08.01-.21.02-.38.02-.6,0-1.13-.1-1.58-.31-.45-.21-.77-.5-.96-.87-.29.39-.59.68-.89.88s-.69.3-1.17.3c-.89,0-1.61-.21-2.15-.64s-.81-1.06-.81-1.9c0-.36.01-.6.04-.72.08-.53.38-1.5.9-2.9.29-.79.44-1.33.44-1.64,0-.19-.02-.32-.05-.39-.03-.07-.11-.11-.23-.11h-.1c-.31,0-.6.14-.88.42-.43.43-.75,1.07-.98,1.92,0,.01,0,.04-.02.07-.01.03-.02.05-.03.06,0,0-.02.02-.03.03-.01.01-.04.02-.07.02h-.53c-.11-.11-.13-.26-.06-.46.13-.4.26-.72.38-.96.49-1,1.13-1.6,1.9-1.8.08-.03.23-.04.46-.04.55,0,.98.16,1.3.47.32.31.48.71.48,1.19,0,.27-.12.71-.36,1.34-.59,1.57-.91,2.69-.96,3.34v.26c0,.53.13.95.38,1.25s.62.45,1.1.45c.57,0,1.08-.41,1.52-1.22l.1-.18v-.46c.03-.39.05-.61.06-.68,0-.01.09-.41.28-1.2.19-.79.39-1.6.6-2.43.21-.83.35-1.3.4-1.39.17-.36.46-.54.86-.54Z"/><line class="uuid-538b45dd-0855-472a-a774-c1df265b26c2" x1="537.91" y1="119.39" x2="547.08" y2="119.39"/><path class="uuid-ecd60dbe-7159-4e22-8590-89c5203cc6bb" d="M506.14,123.33c.19,0,.35.05.48.15.13.1.2.24.2.43,0,.17-.2,1.03-.59,2.56-.39,1.53-.6,2.41-.63,2.64-.03.15-.04.38-.04.7,0,.67.17,1.13.52,1.38.24.16.51.24.82.24.95,0,1.7-.81,2.26-2.44.31-.8.51-1.53.62-2.2.01-.07.02-.17.02-.3,0-.67-.24-1.2-.72-1.6-.21-.17-.32-.39-.32-.64,0-.29.12-.56.37-.8.25-.24.52-.36.83-.36.03,0,.05,0,.08.01s.05,0,.08,0c.56.15.84.64.84,1.48,0,.59-.13,1.37-.38,2.34-.25.97-.51,1.78-.76,2.42-.67,1.65-1.55,2.59-2.64,2.8-.08.01-.21.02-.38.02-.6,0-1.13-.1-1.58-.31-.45-.21-.77-.5-.96-.87-.29.39-.59.68-.89.88s-.69.3-1.17.3c-.89,0-1.61-.21-2.15-.64s-.81-1.06-.81-1.9c0-.36.01-.6.04-.72.08-.53.38-1.5.9-2.9.29-.79.44-1.33.44-1.64,0-.19-.02-.32-.05-.39-.03-.07-.11-.11-.23-.11h-.1c-.31,0-.6.14-.88.42-.43.43-.75,1.07-.98,1.92,0,.01,0,.04-.02.07-.01.03-.02.05-.03.06,0,0-.02.02-.03.03-.01.01-.04.02-.07.02h-.53c-.11-.11-.13-.26-.06-.46.13-.4.26-.72.38-.96.49-1,1.13-1.6,1.9-1.8.08-.03.23-.04.46-.04.55,0,.98.16,1.3.47s.48.71.48,1.19c0,.27-.12.71-.36,1.34-.59,1.57-.91,2.69-.96,3.34v.26c0,.53.13.95.38,1.25.25.3.62.45,1.1.45.57,0,1.08-.41,1.52-1.22l.1-.18v-.46c.03-.39.05-.61.06-.68,0-.01.09-.41.28-1.2.19-.79.39-1.6.6-2.43.21-.83.35-1.3.4-1.39.17-.36.46-.54.86-.54Z"/><path class="uuid-ecd60dbe-7159-4e22-8590-89c5203cc6bb" d="M519,126.09l9.28-4.78v1.38l-7.82,3.92v.04l7.82,3.92v1.38l-9.28-4.78v-1.08Z"/></g></g></svg>