<?xml version="1.0" encoding="UTF-8"?><svg xmlns="http://www.w3.org/2000/svg" width="1050" height="400" viewBox="0 0 1050 400"><defs><style>.uuid-ed63fd83-4cc2-4ab2-8c96-0a90b1333881,.uuid-8fdb3800-a0a5-4232-9dee-85e1c5337f3a,.uuid-7f0a6110-fa99-4875-b713-a4c0b67e3c6b,.uuid-87c5a956-4f32-44e1-b0c0-b95c2cb7f998,.uuid-4bee9e85-cdab-4544-8b63-c1066b7f5762,.uuid-5a02942b-c2b7-485a-8fda-759acce6e10b,.uuid-ace43787-907a-4dfe-acf1-35d92386b959,.uuid-620f42c4-7f95-44c7-a67b-e391761ffdf5,.uuid-660b9b0d-d3ad-4157-bf67-0ffd0b2978d2{stroke-miterlimit:10;}.uuid-ed63fd83-4cc2-4ab2-8c96-0a90b1333881,.uuid-7f0a6110-fa99-4875-b713-a4c0b67e3c6b,.uuid-443e1851-5ed5-4a08-8079-5ac5cf4e7495,.uuid-1a8ce428-1853-4853-b91c-6ec7bbb484e0,.uuid-87c5a956-4f32-44e1-b0c0-b95c2cb7f998,.uuid-5a02942b-c2b7-485a-8fda-759acce6e10b,.uuid-ace43787-907a-4dfe-acf1-35d92386b959,.uuid-84795703-aab1-4ade-b746-0a103e3b9caa{fill:none;}.uuid-ed63fd83-4cc2-4ab2-8c96-0a90b1333881,.uuid-7f0a6110-fa99-4875-b713-a4c0b67e3c6b,.uuid-1a8ce428-1853-4853-b91c-6ec7bbb484e0,.uuid-77fa0edf-4364-4232-a32a-73513c7d46f4,.uuid-87c5a956-4f32-44e1-b0c0-b95c2cb7f998,.uuid-5a02942b-c2b7-485a-8fda-759acce6e10b,.uuid-84795703-aab1-4ade-b746-0a103e3b9caa{stroke-linecap:round;}.uuid-ed63fd83-4cc2-4ab2-8c96-0a90b1333881,.uuid-1a8ce428-1853-4853-b91c-6ec7bbb484e0,.uuid-4bee9e85-cdab-4544-8b63-c1066b7f5762,.uuid-ace43787-907a-4dfe-acf1-35d92386b959,.uuid-620f42c4-7f95-44c7-a67b-e391761ffdf5,.uuid-84795703-aab1-4ade-b746-0a103e3b9caa{stroke:#222;}.uuid-ed63fd83-4cc2-4ab2-8c96-0a90b1333881,.uuid-84795703-aab1-4ade-b746-0a103e3b9caa{stroke-width:2px;}.uuid-8fdb3800-a0a5-4232-9dee-85e1c5337f3a,.uuid-7f0a6110-fa99-4875-b713-a4c0b67e3c6b,.uuid-87c5a956-4f32-44e1-b0c0-b95c2cb7f998,.uuid-5a02942b-c2b7-485a-8fda-759acce6e10b,.uuid-660b9b0d-d3ad-4157-bf67-0ffd0b2978d2{stroke:#959595;}.uuid-8fdb3800-a0a5-4232-9dee-85e1c5337f3a,.uuid-af64bba4-e5d9-427c-9dd7-4cfb6e599b86{opacity:.25;}.uuid-8fdb3800-a0a5-4232-9dee-85e1c5337f3a,.uuid-77fa0edf-4364-4232-a32a-73513c7d46f4,.uuid-4bee9e85-cdab-4544-8b63-c1066b7f5762,.uuid-660b9b0d-d3ad-4157-bf67-0ffd0b2978d2{fill:#fff;}.uuid-7f0a6110-fa99-4875-b713-a4c0b67e3c6b{stroke-dasharray:5.8 5.8;}.uuid-3bcc137b-c888-48b6-9a1a-a4b09a77421e{fill:#231f20;}.uuid-1a8ce428-1853-4853-b91c-6ec7bbb484e0{stroke-width:4px;}.uuid-1a8ce428-1853-4853-b91c-6ec7bbb484e0,.uuid-77fa0edf-4364-4232-a32a-73513c7d46f4,.uuid-84795703-aab1-4ade-b746-0a103e3b9caa{stroke-linejoin:round;}.uuid-77fa0edf-4364-4232-a32a-73513c7d46f4{stroke:#252324;stroke-width:2.5px;}.uuid-35912e60-94a6-47d1-b55c-2c63093df2f6,.uuid-620f42c4-7f95-44c7-a67b-e391761ffdf5{fill:#959595;}.uuid-5a02942b-c2b7-485a-8fda-759acce6e10b{stroke-dasharray:6.08 6.08;}</style></defs><g id="uuid-7aacf086-3a36-46f6-aa40-208097d45340"><line class="uuid-ed63fd83-4cc2-4ab2-8c96-0a90b1333881" x1="151" y1="315.01" x2="899" y2="315.01"/><path class="uuid-35912e60-94a6-47d1-b55c-2c63093df2f6" d="M374.04,337.84v-1.42h3.26v-10.3h-3.26v-1.4h8.2v1.4h-3.26v10.3h3.26v1.42h-8.2Z"/><path class="uuid-35912e60-94a6-47d1-b55c-2c63093df2f6" d="M385.78,337.84v-13.12h1.84l4.2,8.24,1.26,2.72h.04c-.03-.65-.07-1.34-.13-2.05-.06-.71-.09-1.42-.09-2.11v-6.8h1.6v13.12h-1.84l-4.2-8.24-1.26-2.72h-.04c.03.67.07,1.35.13,2.04s.09,1.38.09,2.06v6.86h-1.6Z"/><path class="uuid-35912e60-94a6-47d1-b55c-2c63093df2f6" d="M401.3,337.84v-11.72h-4.32v-1.4h10.32v1.4h-4.32v11.72h-1.68Z"/><path class="uuid-35912e60-94a6-47d1-b55c-2c63093df2f6" d="M410.14,337.84v-13.12h4.08c.89,0,1.68.12,2.37.35.69.23,1.23.62,1.62,1.16s.59,1.26.59,2.17-.2,1.61-.59,2.18-.93,1-1.62,1.29c-.69.29-1.48.43-2.37.43h-2.42v5.54h-1.66ZM411.8,330.94h2.18c1.03,0,1.81-.21,2.35-.63s.81-1.06.81-1.91-.27-1.46-.81-1.81-1.32-.53-2.35-.53h-2.18v4.88ZM413.88,331.84l1.32-.88,4,6.88h-1.9l-3.42-6Z"/><path class="uuid-35912e60-94a6-47d1-b55c-2c63093df2f6" d="M422.04,337.84v-1.42h3.26v-10.3h-3.26v-1.4h8.2v1.4h-3.26v10.3h3.26v1.42h-8.2Z"/><path class="uuid-35912e60-94a6-47d1-b55c-2c63093df2f6" d="M433.78,337.84v-13.12h1.84l4.2,8.24,1.26,2.72h.04c-.03-.65-.07-1.34-.13-2.05-.06-.71-.09-1.42-.09-2.11v-6.8h1.6v13.12h-1.84l-4.2-8.24-1.26-2.72h-.04c.03.67.07,1.35.13,2.04s.09,1.38.09,2.06v6.86h-1.6Z"/><path class="uuid-35912e60-94a6-47d1-b55c-2c63093df2f6" d="M450.24,338.08c-.96,0-1.84-.18-2.65-.53s-1.51-.82-2.11-1.41l1-1.16c.49.49,1.07.89,1.73,1.19s1.36.45,2.11.45c.91,0,1.61-.19,2.11-.58s.75-.89.75-1.5c0-.47-.1-.84-.31-1.12s-.49-.51-.84-.7-.76-.37-1.21-.56l-1.88-.82c-.44-.19-.88-.42-1.31-.7s-.8-.64-1.09-1.07c-.29-.43-.44-.97-.44-1.61s.18-1.26.55-1.79c.37-.53.88-.94,1.53-1.24.65-.3,1.39-.45,2.22-.45s1.59.15,2.28.45,1.28.69,1.76,1.17l-.88,1.08c-.43-.39-.9-.69-1.42-.91-.52-.22-1.12-.33-1.8-.33-.76,0-1.38.17-1.84.51-.47.34-.7.81-.7,1.41,0,.41.12.75.35,1.02.23.27.53.49.89.66s.73.34,1.1.5l1.84.8c.55.21,1.04.47,1.48.77.44.3.79.67,1.04,1.11.25.44.38.98.38,1.62,0,.69-.19,1.32-.56,1.89-.37.57-.91,1.02-1.6,1.35s-1.52.5-2.48.5Z"/><path class="uuid-35912e60-94a6-47d1-b55c-2c63093df2f6" d="M458.04,337.84v-1.42h3.26v-10.3h-3.26v-1.4h8.2v1.4h-3.26v10.3h3.26v1.42h-8.2Z"/><path class="uuid-35912e60-94a6-47d1-b55c-2c63093df2f6" d="M475.16,338.08c-.81,0-1.57-.15-2.26-.46s-1.3-.75-1.82-1.33c-.52-.58-.92-1.29-1.21-2.14-.29-.85-.43-1.8-.43-2.87,0-1.4.25-2.61.76-3.63.51-1.02,1.2-1.8,2.08-2.35s1.89-.82,3.04-.82c.79,0,1.49.16,2.1.49.61.33,1.11.7,1.48,1.11l-.94,1.06c-.33-.37-.72-.67-1.16-.88-.44-.21-.93-.32-1.48-.32-.84,0-1.57.22-2.19.65s-1.1,1.04-1.45,1.83-.52,1.73-.52,2.82.17,2.06.52,2.86.83,1.42,1.45,1.86c.62.44,1.35.66,2.19.66.6,0,1.14-.13,1.62-.38.48-.25.93-.61,1.34-1.08l.94,1.02c-.51.6-1.09,1.07-1.76,1.4-.67.33-1.43.5-2.3.5Z"/><path class="uuid-35912e60-94a6-47d1-b55c-2c63093df2f6" d="M494.18,337.84v-13.12h3.96c.97,0,1.82.12,2.55.37.73.25,1.29.65,1.7,1.21.41.56.61,1.32.61,2.28s-.2,1.68-.61,2.27c-.41.59-.98,1.04-1.71,1.34-.73.3-1.58.45-2.54.45h-2.3v5.2h-1.66ZM495.84,331.28h2.1c1.15,0,2-.22,2.55-.66.55-.44.83-1.12.83-2.04s-.28-1.6-.84-1.97c-.56-.37-1.41-.55-2.54-.55h-2.1v5.22Z"/><path class="uuid-35912e60-94a6-47d1-b55c-2c63093df2f6" d="M506.14,337.84v-13.12h4.08c.89,0,1.68.12,2.37.35.69.23,1.23.62,1.62,1.16.39.54.59,1.26.59,2.17s-.2,1.61-.59,2.18c-.39.57-.93,1-1.62,1.29-.69.29-1.48.43-2.37.43h-2.42v5.54h-1.66ZM507.8,330.94h2.18c1.03,0,1.81-.21,2.35-.63s.81-1.06.81-1.91-.27-1.46-.81-1.81-1.32-.53-2.35-.53h-2.18v4.88ZM509.88,331.84l1.32-.88,4,6.88h-1.9l-3.42-6Z"/><path class="uuid-35912e60-94a6-47d1-b55c-2c63093df2f6" d="M522.14,338.08c-.99,0-1.86-.27-2.62-.82s-1.35-1.33-1.78-2.35c-.43-1.02-.64-2.25-.64-3.69s.21-2.62.64-3.63,1.02-1.78,1.78-2.31,1.63-.8,2.62-.8,1.86.27,2.62.8,1.35,1.3,1.78,2.31c.43,1.01.64,2.22.64,3.63s-.21,2.67-.64,3.69c-.43,1.02-1.02,1.8-1.78,2.35s-1.63.82-2.62.82ZM522.14,336.62c.67,0,1.25-.22,1.75-.65.5-.43.89-1.05,1.16-1.86.27-.81.41-1.77.41-2.89s-.14-2.05-.41-2.84c-.27-.79-.66-1.39-1.16-1.81-.5-.42-1.08-.63-1.75-.63s-1.25.21-1.75.63c-.5.42-.89,1.02-1.16,1.81-.27.79-.41,1.73-.41,2.84s.14,2.08.41,2.89c.27.81.66,1.43,1.16,1.86.5.43,1.08.65,1.75.65Z"/><path class="uuid-35912e60-94a6-47d1-b55c-2c63093df2f6" d="M529.88,337.84v-13.12h3.24c1.32,0,2.43.25,3.33.75.9.5,1.58,1.24,2.05,2.21.47.97.7,2.15.7,3.54s-.23,2.59-.69,3.58c-.46.99-1.14,1.74-2.03,2.26-.89.52-1.99.78-3.28.78h-3.32ZM531.54,336.48h1.46c1,0,1.83-.21,2.49-.63.66-.42,1.16-1.02,1.49-1.8s.5-1.72.5-2.83-.17-2.03-.5-2.8-.83-1.36-1.49-1.75c-.66-.39-1.49-.59-2.49-.59h-1.46v10.4Z"/><path class="uuid-35912e60-94a6-47d1-b55c-2c63093df2f6" d="M546.16,338.08c-.64,0-1.23-.1-1.77-.29s-1.01-.49-1.41-.9c-.4-.41-.71-.94-.93-1.61-.22-.67-.33-1.47-.33-2.4v-8.16h1.68v8.2c0,.91.12,1.63.36,2.17s.57.93.99,1.17.89.36,1.41.36,1.01-.12,1.43-.36.75-.63.99-1.17c.24-.54.36-1.26.36-2.17v-8.2h1.62v8.16c0,.93-.11,1.73-.33,2.4-.22.67-.53,1.2-.92,1.61-.39.41-.86.71-1.39.9-.53.19-1.12.29-1.76.29Z"/><path class="uuid-35912e60-94a6-47d1-b55c-2c63093df2f6" d="M559.16,338.08c-.81,0-1.57-.15-2.26-.46s-1.3-.75-1.82-1.33c-.52-.58-.92-1.29-1.21-2.14-.29-.85-.43-1.8-.43-2.87,0-1.4.25-2.61.76-3.63.51-1.02,1.2-1.8,2.08-2.35s1.89-.82,3.04-.82c.79,0,1.49.16,2.1.49.61.33,1.11.7,1.48,1.11l-.94,1.06c-.33-.37-.72-.67-1.16-.88-.44-.21-.93-.32-1.48-.32-.84,0-1.57.22-2.19.65s-1.1,1.04-1.45,1.83-.52,1.73-.52,2.82.17,2.06.52,2.86.83,1.42,1.45,1.86c.62.44,1.35.66,2.19.66.6,0,1.14-.13,1.62-.38.48-.25.93-.61,1.34-1.08l.94,1.02c-.51.6-1.09,1.07-1.76,1.4-.67.33-1.43.5-2.3.5Z"/><path class="uuid-35912e60-94a6-47d1-b55c-2c63093df2f6" d="M569.3,337.84v-11.72h-4.32v-1.4h10.32v1.4h-4.32v11.72h-1.68Z"/><path class="uuid-35912e60-94a6-47d1-b55c-2c63093df2f6" d="M578.04,337.84v-1.42h3.26v-10.3h-3.26v-1.4h8.2v1.4h-3.26v10.3h3.26v1.42h-8.2Z"/><path class="uuid-35912e60-94a6-47d1-b55c-2c63093df2f6" d="M593.18,337.84l-4.18-13.12h1.76l2.12,7.08c.24.77.45,1.5.63,2.17.18.67.39,1.4.63,2.17h.08c.25-.77.47-1.5.65-2.17.18-.67.38-1.4.61-2.17l2.1-7.08h1.7l-4.16,13.12h-1.94Z"/><path class="uuid-35912e60-94a6-47d1-b55c-2c63093df2f6" d="M602.04,337.84v-1.42h3.26v-10.3h-3.26v-1.4h8.2v1.4h-3.26v10.3h3.26v1.42h-8.2Z"/><path class="uuid-35912e60-94a6-47d1-b55c-2c63093df2f6" d="M617.3,337.84v-11.72h-4.32v-1.4h10.32v1.4h-4.32v11.72h-1.68Z"/><path class="uuid-35912e60-94a6-47d1-b55c-2c63093df2f6" d="M629.3,337.84v-4.68l-4.4-8.44h1.76l1.98,3.9c.25.49.5.99.74,1.5s.49,1.03.76,1.56h.08c.27-.53.53-1.05.78-1.56.25-.51.51-1.01.76-1.52l1.9-3.88h1.72l-4.4,8.44v4.68h-1.68Z"/><path class="uuid-35912e60-94a6-47d1-b55c-2c63093df2f6" d="M652.64,340.88v-17.2h5.54v.94h-4.22v15.32h4.22v.94h-5.54Z"/><path class="uuid-35912e60-94a6-47d1-b55c-2c63093df2f6" d="M666.58,338.28c-1.57,0-2.87-.5-3.9-1.49-1.03-.99-1.54-2.32-1.54-3.99s.5-3.15,1.5-4.66c.6-.92,1.34-1.73,2.22-2.44.88-.71,1.85-1.23,2.92-1.58.79-.24,1.51-.36,2.16-.36.48,0,.76,0,.84.02.8.13,1.47.47,2.02,1,.03.03.08.09.16.2.08.11.15.2.21.28.06.08.1.12.11.12.04,0,.22-.17.54-.52l.82-.82.3-.3h.12c.19,0,.28.05.28.14,0,.11-.22,1.03-.66,2.78-.44,1.75-.67,2.67-.7,2.76-.03.07-.06.11-.1.13-.04.02-.16.03-.36.03h-.32c-.07-.07-.1-.11-.11-.13,0-.02,0-.14.03-.35.03-.27.04-.56.04-.88,0-1.11-.24-1.98-.73-2.61-.49-.63-1.18-.95-2.09-.95-.71,0-1.47.17-2.3.5-1.33.56-2.4,1.49-3.19,2.79-.79,1.3-1.31,2.86-1.55,4.69-.03.24-.04.5-.04.78,0,.76.13,1.42.4,1.98.63,1.21,1.77,1.87,3.42,1.96h.12c.72,0,1.38-.15,1.98-.46.6-.31,1.01-.7,1.24-1.18.04-.11.14-.48.3-1.11.16-.63.24-.98.24-1.05,0-.11-.09-.17-.27-.2-.18-.03-.58-.05-1.19-.06h-.74c-.08-.08-.12-.13-.13-.16,0-.03,0-.15.05-.38.05-.17.12-.3.2-.38h.34c.53.03,1.47.04,2.8.04.35,0,.76,0,1.24,0,.48,0,.82-.01,1.02-.01.19,0,.28.05.28.16,0,.04-.01.14-.04.3-.01.04-.03.09-.04.15-.01.06-.02.1-.03.12,0,.02-.02.05-.04.08-.02.03-.04.05-.07.06-.03,0-.07.01-.12.02-.05,0-.12,0-.2,0h-.18c-.52,0-.81.09-.86.28-.01.01-.19.71-.54,2.08s-.54,2.08-.58,2.12c-.07.07-.14.07-.22.02-.12-.07-.28-.22-.49-.45-.21-.23-.34-.42-.41-.55,0-.01-.01,0-.04,0-.03.02-.07.05-.12.09-.44.41-1.02.75-1.74,1-.72.25-1.47.38-2.26.38Z"/><path class="uuid-35912e60-94a6-47d1-b55c-2c63093df2f6" d="M677.82,340.88v-.94h4.22v-15.32h-4.22v-.94h5.54v17.2h-5.54Z"/><path class="uuid-35912e60-94a6-47d1-b55c-2c63093df2f6" d="M151.16,337.61v-9.72h1.32l.14,1.28h.04c.25-.45.55-.82.88-1.1.33-.28.78-.42,1.34-.42.48,0,.87.14,1.18.42.31.28.53.7.66,1.26.28-.52.59-.93.93-1.23.34-.3.79-.45,1.35-.45.68,0,1.21.26,1.59.77.38.51.57,1.26.57,2.23v6.96h-1.64v-6.84c0-1.13-.35-1.7-1.04-1.7-.33,0-.61.12-.83.37-.22.25-.46.62-.73,1.13v7.04h-1.52v-6.84c0-.56-.08-.98-.23-1.27-.15-.29-.41-.43-.77-.43-.33,0-.62.12-.87.37s-.49.62-.73,1.13v7.04h-1.64Z"/><path class="uuid-35912e60-94a6-47d1-b55c-2c63093df2f6" d="M168.32,337.61v-8.38h-4.52v-1.34h6.16v9.72h-1.64ZM168.96,325.85c-.37,0-.69-.12-.94-.35-.25-.23-.38-.54-.38-.93s.13-.7.38-.93c.25-.23.57-.35.94-.35s.69.12.94.35.38.54.38.93-.13.7-.38.93c-.25.23-.57.35-.94.35Z"/><path class="uuid-35912e60-94a6-47d1-b55c-2c63093df2f6" d="M175.86,337.61v-9.72h1.36l.14,1.66h.08c.51-.55,1.05-1,1.64-1.36.59-.36,1.26-.54,2.02-.54,1.15,0,1.99.33,2.54,1,.55.67.82,1.64.82,2.92v6.04h-1.64v-5.82c0-.92-.17-1.6-.52-2.05-.35-.45-.92-.67-1.72-.67-.57,0-1.09.15-1.54.44-.45.29-.97.73-1.54,1.32v6.78h-1.64Z"/><path class="uuid-35912e60-94a6-47d1-b55c-2c63093df2f6" d="M865.16,337.61v-9.72h1.32l.14,1.28h.04c.25-.45.55-.82.88-1.1.33-.28.78-.42,1.34-.42.48,0,.87.14,1.18.42s.53.7.66,1.26c.28-.52.59-.93.93-1.23.34-.3.79-.45,1.35-.45.68,0,1.21.26,1.59.77.38.51.57,1.26.57,2.23v6.96h-1.64v-6.84c0-1.13-.35-1.7-1.04-1.7-.33,0-.61.12-.83.37-.22.25-.46.62-.73,1.13v7.04h-1.52v-6.84c0-.56-.08-.98-.23-1.27-.15-.29-.41-.43-.77-.43-.33,0-.62.12-.87.37-.25.25-.49.62-.73,1.13v7.04h-1.64Z"/><path class="uuid-35912e60-94a6-47d1-b55c-2c63093df2f6" d="M880.92,337.85c-.6,0-1.15-.11-1.66-.33s-.91-.54-1.2-.95-.44-.91-.44-1.48c0-1.09.55-1.92,1.64-2.49,1.09-.57,2.89-.95,5.4-1.15-.01-.44-.1-.85-.27-1.22s-.44-.67-.81-.89c-.37-.22-.87-.33-1.5-.33-.41,0-.82.06-1.23.17s-.79.26-1.16.44c-.37.18-.7.36-1.01.55l-.64-1.12c.32-.21.71-.43,1.17-.65s.96-.4,1.49-.54c.53-.14,1.09-.21,1.66-.21.89,0,1.63.17,2.21.5.58.33,1.01.8,1.3,1.39.29.59.43,1.3.43,2.11v5.96h-1.34l-.14-1.32h-.06c-.53.43-1.13.79-1.8,1.1-.67.31-1.35.46-2.04.46ZM881.36,336.53c.56,0,1.11-.13,1.66-.38s1.09-.61,1.64-1.06v-2.56c-1.39.12-2.48.29-3.27.5-.79.21-1.35.48-1.68.81-.33.33-.49.7-.49,1.13,0,.36.1.66.3.89s.46.4.79.51c.33.11.68.16,1.05.16Z"/><path class="uuid-35912e60-94a6-47d1-b55c-2c63093df2f6" d="M889.28,337.61l3.7-5.04-3.42-4.68h1.82l1.54,2.14c.17.25.36.52.56.8.2.28.39.56.58.84h.08c.17-.28.36-.56.55-.85.19-.29.38-.56.55-.83l1.46-2.1h1.74l-3.46,4.82,3.72,4.9h-1.8l-1.7-2.24c-.2-.28-.41-.57-.63-.88s-.44-.6-.65-.88h-.08c-.2.28-.4.57-.6.86-.2.29-.4.59-.6.9l-1.6,2.24h-1.76Z"/></g><g id="uuid-fc45a8e1-7ce0-440e-a03e-7c43e2b676d3"><g class="uuid-af64bba4-e5d9-427c-9dd7-4cfb6e599b86"><line class="uuid-87c5a956-4f32-44e1-b0c0-b95c2cb7f998" x1="152.96" y1="306.23" x2="152.96" y2="303.23"/><line class="uuid-7f0a6110-fa99-4875-b713-a4c0b67e3c6b" x1="152.96" y1="297.43" x2="152.96" y2="161.17"/><line class="uuid-87c5a956-4f32-44e1-b0c0-b95c2cb7f998" x1="152.96" y1="158.27" x2="152.96" y2="155.27"/></g><rect class="uuid-8fdb3800-a0a5-4232-9dee-85e1c5337f3a" x="153.89" y="80.89" width="312.94" height="69.2" rx="5" ry="5"/><g class="uuid-af64bba4-e5d9-427c-9dd7-4cfb6e599b86"><rect class="uuid-443e1851-5ed5-4a08-8079-5ac5cf4e7495" x="166.48" y="92.53" width="296.51" height="49.34"/><path class="uuid-3bcc137b-c888-48b6-9a1a-a4b09a77421e" d="M169.16,109.13v-13.12h1.64v11.7h6.5v1.42h-8.14Z"/><path class="uuid-3bcc137b-c888-48b6-9a1a-a4b09a77421e" d="M185.08,109.37c-.97,0-1.86-.2-2.65-.6-.79-.4-1.42-.98-1.89-1.75-.47-.77-.7-1.69-.7-2.77s.23-1.96.7-2.72c.47-.76,1.08-1.34,1.83-1.75.75-.41,1.56-.61,2.43-.61.93,0,1.73.19,2.39.57.66.38,1.17.91,1.52,1.59.35.68.53,1.48.53,2.4,0,.19,0,.37-.02.54-.01.17-.03.33-.06.46h-8.22v-1.28h7.24l-.42.46c0-1.15-.26-2.01-.79-2.58-.53-.57-1.24-.86-2.13-.86-.6,0-1.16.15-1.67.44-.51.29-.92.72-1.23,1.28s-.46,1.25-.46,2.06.17,1.54.5,2.1c.33.56.79.98,1.36,1.27s1.22.43,1.94.43c.59,0,1.12-.08,1.59-.25.47-.17.93-.39,1.37-.67l.6,1.08c-.48.32-1.03.59-1.65.82s-1.32.34-2.11.34Z"/><path class="uuid-3bcc137b-c888-48b6-9a1a-a4b09a77421e" d="M195.4,109.37c-.6,0-1.15-.11-1.66-.33-.51-.22-.91-.54-1.2-.95-.29-.41-.44-.91-.44-1.48,0-1.09.55-1.92,1.64-2.49,1.09-.57,2.89-.95,5.4-1.15-.01-.44-.1-.85-.27-1.22-.17-.37-.44-.67-.81-.89-.37-.22-.87-.33-1.5-.33-.41,0-.82.06-1.23.17-.41.11-.79.26-1.16.44-.37.18-.7.36-1.01.55l-.64-1.12c.32-.21.71-.43,1.17-.65.46-.22.96-.4,1.49-.54.53-.14,1.09-.21,1.66-.21.89,0,1.63.17,2.21.5.58.33,1.01.8,1.3,1.39.29.59.43,1.3.43,2.11v5.96h-1.34l-.14-1.32h-.06c-.53.43-1.13.79-1.8,1.1-.67.31-1.35.46-2.04.46ZM195.84,108.05c.56,0,1.11-.13,1.66-.38.55-.25,1.09-.61,1.64-1.06v-2.56c-1.39.12-2.48.29-3.27.5-.79.21-1.35.48-1.68.81s-.49.7-.49,1.13c0,.36.1.66.3.89.2.23.46.4.79.51.33.11.68.16,1.05.16Z"/><path class="uuid-3bcc137b-c888-48b6-9a1a-a4b09a77421e" d="M208.68,109.37c-.95,0-1.83-.15-2.66-.46-.83-.31-1.53-.66-2.12-1.06l.76-1.08c.56.4,1.18.72,1.86.96.68.24,1.47.36,2.36.36.83,0,1.44-.15,1.85-.46s.61-.66.61-1.06c0-.19-.04-.36-.11-.52s-.21-.31-.42-.46c-.21-.15-.51-.29-.91-.42s-.93-.27-1.6-.4c-1.27-.27-2.22-.63-2.85-1.08-.63-.45-.95-1.04-.95-1.76,0-.79.34-1.44,1.02-1.97s1.69-.79,3.02-.79c.75,0,1.47.12,2.16.37.69.25,1.28.54,1.76.87l-.8,1.06c-.44-.32-.94-.57-1.5-.75-.56-.18-1.15-.27-1.76-.27-.56,0-1,.06-1.33.19-.33.13-.56.3-.7.51-.14.21-.21.45-.21.7,0,.41.22.74.67.97.45.23,1.16.45,2.15.65,1.08.23,1.91.48,2.49.76.58.28.98.6,1.2.96.22.36.33.79.33,1.28,0,.53-.17,1.02-.5,1.45-.33.43-.82.78-1.46,1.05s-1.43.4-2.36.4Z"/><path class="uuid-3bcc137b-c888-48b6-9a1a-a4b09a77421e" d="M222.36,109.37c-.95,0-1.69-.17-2.24-.51-.55-.34-.94-.81-1.17-1.41-.23-.6-.35-1.3-.35-2.1v-4.6h-2.74v-1.24l2.8-.1.22-3.12h1.36v3.12h4.78v1.34h-4.78v4.62c0,.57.07,1.06.22,1.46.15.4.4.7.76.9.36.2.85.3,1.48.3.47,0,.89-.04,1.26-.12.37-.08.73-.19,1.08-.32l.36,1.2c-.44.16-.9.3-1.39.41-.49.11-1.04.17-1.65.17Z"/><path class="uuid-3bcc137b-c888-48b6-9a1a-a4b09a77421e" d="M240.34,113.23v-13.82h1.36l.14,1.24h.06c.45-.43.98-.78,1.57-1.06.59-.28,1.19-.42,1.79-.42.88,0,1.62.2,2.21.61.59.41,1.04.98,1.35,1.72.31.74.46,1.62.46,2.63,0,1.09-.21,2.03-.62,2.82-.41.79-.95,1.39-1.62,1.8-.67.41-1.39.62-2.18.62-.44,0-.92-.11-1.45-.33-.53-.22-1.01-.53-1.45-.93h-.06l.08,1.84v3.28h-1.64ZM244.58,107.99c.57,0,1.09-.15,1.54-.46.45-.31.81-.75,1.07-1.33.26-.58.39-1.27.39-2.07,0-.71-.09-1.33-.28-1.87s-.48-.96-.88-1.26c-.4-.3-.93-.45-1.58-.45-.44,0-.9.12-1.39.35-.49.23-.98.6-1.47,1.11v4.84c.47.41.94.71,1.41.88.47.17.87.26,1.19.26Z"/><path class="uuid-3bcc137b-c888-48b6-9a1a-a4b09a77421e" d="M253.4,109.13v-9.72h1.36l.14,2.3h.06c.51-.79,1.13-1.41,1.88-1.86s1.57-.68,2.46-.68c.36,0,.7.03,1.01.09.31.06.62.16.91.31l-.38,1.42c-.33-.12-.62-.21-.86-.26s-.55-.08-.94-.08c-.73,0-1.44.21-2.11.63-.67.42-1.3,1.14-1.89,2.15v5.7h-1.64Z"/><path class="uuid-3bcc137b-c888-48b6-9a1a-a4b09a77421e" d="M268.48,109.37c-.85,0-1.64-.2-2.37-.6s-1.31-.98-1.76-1.74c-.45-.76-.67-1.67-.67-2.74s.22-2.02.67-2.78c.45-.76,1.03-1.34,1.76-1.74s1.52-.6,2.37-.6,1.64.2,2.37.6c.73.4,1.31.98,1.76,1.74.45.76.67,1.69.67,2.78s-.22,1.98-.67,2.74c-.45.76-1.03,1.34-1.76,1.74-.73.4-1.52.6-2.37.6ZM268.48,108.01c.63,0,1.17-.16,1.64-.47.47-.31.83-.75,1.08-1.31.25-.56.38-1.21.38-1.94s-.13-1.4-.38-1.97c-.25-.57-.61-1.01-1.08-1.32-.47-.31-1.01-.47-1.64-.47s-1.17.16-1.63.47-.82.75-1.08,1.32c-.26.57-.39,1.22-.39,1.97s.13,1.38.39,1.94c.26.56.62,1,1.08,1.31s1,.47,1.63.47Z"/><path class="uuid-3bcc137b-c888-48b6-9a1a-a4b09a77421e" d="M279.9,109.37c-1.27,0-2.29-.44-3.06-1.33s-1.16-2.14-1.16-3.75c0-1.05.21-1.96.63-2.73s.97-1.36,1.64-1.77c.67-.41,1.39-.62,2.15-.62.57,0,1.1.11,1.57.33.47.22.92.53,1.33.93h.06l-.08-1.8v-3.74h1.64v14.24h-1.36l-.14-1.28h-.06c-.39.41-.86.77-1.41,1.07s-1.14.45-1.75.45ZM280.24,107.99c.48,0,.95-.12,1.4-.37.45-.25.9-.61,1.34-1.09v-4.84c-.44-.41-.87-.71-1.29-.88s-.84-.26-1.27-.26c-.56,0-1.07.16-1.53.47s-.83.75-1.1,1.3c-.27.55-.41,1.2-.41,1.95,0,1.16.25,2.07.76,2.73.51.66,1.21.99,2.1.99Z"/><path class="uuid-3bcc137b-c888-48b6-9a1a-a4b09a77421e" d="M291.4,109.37c-1.16,0-2.01-.33-2.56-1-.55-.67-.82-1.64-.82-2.92v-6.04h1.66v5.82c0,.92.17,1.6.51,2.05.34.45.92.67,1.73.67.56,0,1.07-.14,1.53-.43.46-.29.96-.74,1.49-1.37v-6.74h1.64v9.72h-1.34l-.14-1.7h-.08c-.49.56-1.03,1.02-1.62,1.39-.59.37-1.25.55-2,.55Z"/><path class="uuid-3bcc137b-c888-48b6-9a1a-a4b09a77421e" d="M305.4,109.37c-1.01,0-1.92-.2-2.73-.6s-1.44-.98-1.9-1.74c-.46-.76-.69-1.67-.69-2.74s.25-2.02.74-2.78c.49-.76,1.15-1.34,1.97-1.74s1.72-.6,2.71-.6c.8,0,1.49.14,2.07.42.58.28,1.07.61,1.47,1l-.82,1.06c-.4-.35-.81-.62-1.24-.82-.43-.2-.9-.3-1.42-.3-.75,0-1.41.16-1.98.47-.57.31-1.02.75-1.33,1.32-.31.57-.47,1.22-.47,1.97s.15,1.38.46,1.94.74,1,1.31,1.31,1.22.47,1.97.47c.6,0,1.15-.12,1.65-.36.5-.24.95-.53,1.35-.86l.74,1.06c-.53.48-1.13.85-1.79,1.12-.66.27-1.35.4-2.07.4Z"/><path class="uuid-3bcc137b-c888-48b6-9a1a-a4b09a77421e" d="M318.36,109.37c-.95,0-1.69-.17-2.24-.51-.55-.34-.94-.81-1.17-1.41-.23-.6-.35-1.3-.35-2.1v-4.6h-2.74v-1.24l2.8-.1.22-3.12h1.36v3.12h4.78v1.34h-4.78v4.62c0,.57.07,1.06.22,1.46.15.4.4.7.76.9.36.2.85.3,1.48.3.47,0,.89-.04,1.26-.12.37-.08.73-.19,1.08-.32l.36,1.2c-.44.16-.9.3-1.39.41-.49.11-1.04.17-1.65.17Z"/><path class="uuid-3bcc137b-c888-48b6-9a1a-a4b09a77421e" d="M328.8,109.13v-8.38h-4.52v-1.34h6.16v9.72h-1.64ZM329.44,97.37c-.37,0-.69-.12-.94-.35-.25-.23-.38-.54-.38-.93s.13-.7.38-.93c.25-.23.57-.35.94-.35s.69.12.94.35c.25.23.38.54.38.93s-.13.7-.38.93-.57.35-.94.35Z"/><path class="uuid-3bcc137b-c888-48b6-9a1a-a4b09a77421e" d="M339.6,109.13l-4.1-9.72h1.66l2.24,5.52c.2.48.39.96.57,1.44.18.48.36.95.53,1.42h.08c.17-.47.35-.94.52-1.42.17-.48.35-.96.54-1.44l2.24-5.52h1.58l-4.02,9.72h-1.84Z"/><path class="uuid-3bcc137b-c888-48b6-9a1a-a4b09a77421e" d="M353.08,109.37c-.97,0-1.86-.2-2.65-.6-.79-.4-1.42-.98-1.89-1.75-.47-.77-.7-1.69-.7-2.77s.23-1.96.7-2.72c.47-.76,1.08-1.34,1.83-1.75.75-.41,1.56-.61,2.43-.61.93,0,1.73.19,2.39.57.66.38,1.17.91,1.52,1.59.35.68.53,1.48.53,2.4,0,.19,0,.37-.02.54-.01.17-.03.33-.06.46h-8.22v-1.28h7.24l-.42.46c0-1.15-.26-2.01-.79-2.58-.53-.57-1.24-.86-2.13-.86-.6,0-1.16.15-1.67.44-.51.29-.92.72-1.23,1.28s-.46,1.25-.46,2.06.17,1.54.5,2.1c.33.56.79.98,1.36,1.27s1.22.43,1.94.43c.59,0,1.12-.08,1.59-.25.47-.17.93-.39,1.37-.67l.6,1.08c-.48.32-1.03.59-1.65.82s-1.32.34-2.11.34Z"/><path class="uuid-3bcc137b-c888-48b6-9a1a-a4b09a77421e" d="M372.54,100.75v-1.24l2.84-.1h5.64v1.34h-8.48ZM375.32,109.13v-10.54c0-.79.14-1.48.43-2.07.29-.59.72-1.05,1.29-1.38.57-.33,1.31-.49,2.2-.49.48,0,.95.04,1.41.13.46.09.92.23,1.39.43l-.38,1.24c-.4-.19-.77-.31-1.11-.37-.34-.06-.72-.09-1.15-.09-.87,0-1.49.23-1.88.68-.39.45-.58,1.07-.58,1.86v10.6h-1.62Z"/><path class="uuid-3bcc137b-c888-48b6-9a1a-a4b09a77421e" d="M387.4,109.37c-.6,0-1.15-.11-1.66-.33-.51-.22-.91-.54-1.2-.95-.29-.41-.44-.91-.44-1.48,0-1.09.55-1.92,1.64-2.49,1.09-.57,2.89-.95,5.4-1.15-.01-.44-.1-.85-.27-1.22-.17-.37-.44-.67-.81-.89-.37-.22-.87-.33-1.5-.33-.41,0-.82.06-1.23.17-.41.11-.79.26-1.16.44-.37.18-.7.36-1.01.55l-.64-1.12c.32-.21.71-.43,1.17-.65.46-.22.96-.4,1.49-.54.53-.14,1.09-.21,1.66-.21.89,0,1.63.17,2.21.5.58.33,1.01.8,1.3,1.39.29.59.43,1.3.43,2.11v5.96h-1.34l-.14-1.32h-.06c-.53.43-1.13.79-1.8,1.1-.67.31-1.35.46-2.04.46ZM387.84,108.05c.56,0,1.11-.13,1.66-.38.55-.25,1.09-.61,1.64-1.06v-2.56c-1.39.12-2.48.29-3.27.5-.79.21-1.35.48-1.68.81s-.49.7-.49,1.13c0,.36.1.66.3.89.2.23.46.4.79.51.33.11.68.16,1.05.16Z"/><path class="uuid-3bcc137b-c888-48b6-9a1a-a4b09a77421e" d="M397.4,109.13v-9.72h1.36l.14,2.3h.06c.51-.79,1.13-1.41,1.88-1.86s1.57-.68,2.46-.68c.36,0,.7.03,1.01.09.31.06.62.16.91.31l-.38,1.42c-.33-.12-.62-.21-.86-.26s-.55-.08-.94-.08c-.73,0-1.44.21-2.11.63-.67.42-1.3,1.14-1.89,2.15v5.7h-1.64Z"/><path class="uuid-3bcc137b-c888-48b6-9a1a-a4b09a77421e" d="M407.64,109.13v-9.72h1.32l.14,1.28h.04c.25-.45.55-.82.88-1.1.33-.28.78-.42,1.34-.42.48,0,.87.14,1.18.42.31.28.53.7.66,1.26.28-.52.59-.93.93-1.23.34-.3.79-.45,1.35-.45.68,0,1.21.26,1.59.77.38.51.57,1.26.57,2.23v6.96h-1.64v-6.84c0-1.13-.35-1.7-1.04-1.7-.33,0-.61.12-.83.37-.22.25-.46.62-.73,1.13v7.04h-1.52v-6.84c0-.56-.08-.98-.23-1.27s-.41-.43-.77-.43c-.33,0-.62.12-.87.37s-.49.62-.73,1.13v7.04h-1.64Z"/><path class="uuid-3bcc137b-c888-48b6-9a1a-a4b09a77421e" d="M436.8,109.13v-8.38h-4.52v-1.34h6.16v9.72h-1.64ZM437.44,97.37c-.37,0-.69-.12-.94-.35-.25-.23-.38-.54-.38-.93s.13-.7.38-.93c.25-.23.57-.35.94-.35s.69.12.94.35c.25.23.38.54.38.93s-.13.7-.38.93-.57.35-.94.35Z"/><path class="uuid-3bcc137b-c888-48b6-9a1a-a4b09a77421e" d="M448.68,109.37c-.95,0-1.83-.15-2.66-.46-.83-.31-1.53-.66-2.12-1.06l.76-1.08c.56.4,1.18.72,1.86.96.68.24,1.47.36,2.36.36.83,0,1.44-.15,1.85-.46s.61-.66.61-1.06c0-.19-.04-.36-.11-.52s-.21-.31-.42-.46c-.21-.15-.51-.29-.91-.42s-.93-.27-1.6-.4c-1.27-.27-2.22-.63-2.85-1.08-.63-.45-.95-1.04-.95-1.76,0-.79.34-1.44,1.02-1.97s1.69-.79,3.02-.79c.75,0,1.47.12,2.16.37.69.25,1.28.54,1.76.87l-.8,1.06c-.44-.32-.94-.57-1.5-.75-.56-.18-1.15-.27-1.76-.27-.56,0-1,.06-1.33.19-.33.13-.56.3-.7.51-.14.21-.21.45-.21.7,0,.41.22.74.67.97.45.23,1.16.45,2.15.65,1.08.23,1.91.48,2.49.76.58.28.98.6,1.2.96.22.36.33.79.33,1.28,0,.53-.17,1.02-.5,1.45-.33.43-.82.78-1.46,1.05s-1.43.4-2.36.4Z"/><path class="uuid-3bcc137b-c888-48b6-9a1a-a4b09a77421e" d="M174.24,133.37c-1.05,0-1.89-.18-2.51-.54-.62-.36-1.07-.87-1.35-1.53-.28-.66-.42-1.42-.42-2.29v-3.48h-2.48v-2.2l2.62-.12.38-3.04h2.42v3.04h4.2v2.32h-4.2v3.46c0,.49.07.89.22,1.2.15.31.38.53.69.67.31.14.7.21,1.17.21.39,0,.74-.03,1.06-.1.32-.07.63-.15.92-.26l.52,2.12c-.44.13-.93.26-1.46.37-.53.11-1.13.17-1.78.17Z"/><path class="uuid-3bcc137b-c888-48b6-9a1a-a4b09a77421e" d="M184.48,133.37c-.87,0-1.69-.2-2.46-.61-.77-.41-1.4-1-1.88-1.78-.48-.78-.72-1.72-.72-2.81s.24-2.03.72-2.81,1.11-1.37,1.88-1.78c.77-.41,1.59-.61,2.46-.61s1.69.2,2.46.61c.77.41,1.4,1,1.88,1.78s.72,1.72.72,2.81-.24,2.03-.72,2.81c-.48.78-1.11,1.37-1.88,1.78-.77.41-1.59.61-2.46.61ZM184.48,130.99c.45,0,.83-.11,1.13-.34.3-.23.53-.55.68-.98.15-.43.23-.93.23-1.5s-.08-1.07-.23-1.5c-.15-.43-.38-.75-.68-.98-.3-.23-.68-.34-1.13-.34s-.83.11-1.13.34c-.3.23-.53.55-.68.98s-.23.93-.23,1.5.08,1.07.23,1.5.38.75.68.98c.3.23.68.34,1.13.34Z"/><path class="uuid-3bcc137b-c888-48b6-9a1a-a4b09a77421e" d="M196.48,133.37c-.87,0-1.69-.2-2.46-.61-.77-.41-1.4-1-1.88-1.78-.48-.78-.72-1.72-.72-2.81s.24-2.03.72-2.81,1.11-1.37,1.88-1.78c.77-.41,1.59-.61,2.46-.61s1.69.2,2.46.61c.77.41,1.4,1,1.88,1.78s.72,1.72.72,2.81-.24,2.03-.72,2.81c-.48.78-1.11,1.37-1.88,1.78-.77.41-1.59.61-2.46.61ZM196.48,130.99c.45,0,.83-.11,1.13-.34.3-.23.53-.55.68-.98.15-.43.23-.93.23-1.5s-.08-1.07-.23-1.5c-.15-.43-.38-.75-.68-.98-.3-.23-.68-.34-1.13-.34s-.83.11-1.13.34c-.3.23-.53.55-.68.98s-.23.93-.23,1.5.08,1.07.23,1.5.38.75.68.98c.3.23.68.34,1.13.34Z"/><path class="uuid-3bcc137b-c888-48b6-9a1a-a4b09a77421e" d="M215.92,136.81v-13.6h2.4l.22,1h.06c.41-.36.88-.66,1.39-.89.51-.23,1.04-.35,1.57-.35.83,0,1.54.21,2.13.62.59.41,1.05,1,1.37,1.76.32.76.48,1.65.48,2.66,0,1.13-.2,2.1-.61,2.9-.41.8-.94,1.41-1.59,1.83s-1.35.63-2.1.63c-.44,0-.87-.09-1.29-.28-.42-.19-.8-.45-1.15-.8h-.08l.14,1.62v2.9h-2.94ZM220.56,130.97c.37,0,.71-.1,1-.3.29-.2.53-.52.7-.95.17-.43.26-.99.26-1.67,0-.6-.07-1.1-.2-1.49s-.33-.69-.59-.89-.6-.3-1.03-.3c-.32,0-.63.07-.93.21-.3.14-.6.38-.91.71v4.02c.28.23.57.39.87.5s.58.16.83.16Z"/><path class="uuid-3bcc137b-c888-48b6-9a1a-a4b09a77421e" d="M232.48,133.37c-.87,0-1.69-.2-2.46-.61-.77-.41-1.4-1-1.88-1.78-.48-.78-.72-1.72-.72-2.81s.24-2.03.72-2.81,1.11-1.37,1.88-1.78c.77-.41,1.59-.61,2.46-.61s1.69.2,2.46.61c.77.41,1.4,1,1.88,1.78s.72,1.72.72,2.81-.24,2.03-.72,2.81c-.48.78-1.11,1.37-1.88,1.78-.77.41-1.59.61-2.46.61ZM232.48,130.99c.45,0,.83-.11,1.13-.34.3-.23.53-.55.68-.98.15-.43.23-.93.23-1.5s-.08-1.07-.23-1.5c-.15-.43-.38-.75-.68-.98-.3-.23-.68-.34-1.13-.34s-.83.11-1.13.34c-.3.23-.53.55-.68.98s-.23.93-.23,1.5.08,1.07.23,1.5.38.75.68.98c.3.23.68.34,1.13.34Z"/><path class="uuid-3bcc137b-c888-48b6-9a1a-a4b09a77421e" d="M244.48,133.37c-.87,0-1.69-.2-2.46-.61-.77-.41-1.4-1-1.88-1.78-.48-.78-.72-1.72-.72-2.81s.24-2.03.72-2.81,1.11-1.37,1.88-1.78c.77-.41,1.59-.61,2.46-.61s1.69.2,2.46.61c.77.41,1.4,1,1.88,1.78s.72,1.72.72,2.81-.24,2.03-.72,2.81c-.48.78-1.11,1.37-1.88,1.78-.77.41-1.59.61-2.46.61ZM244.48,130.99c.45,0,.83-.11,1.13-.34.3-.23.53-.55.68-.98.15-.43.23-.93.23-1.5s-.08-1.07-.23-1.5c-.15-.43-.38-.75-.68-.98-.3-.23-.68-.34-1.13-.34s-.83.11-1.13.34c-.3.23-.53.55-.68.98s-.23.93-.23,1.5.08,1.07.23,1.5.38.75.68.98c.3.23.68.34,1.13.34Z"/><path class="uuid-3bcc137b-c888-48b6-9a1a-a4b09a77421e" d="M252.8,133.13v-9.92h2.4l.24,2.16h.06c.49-.81,1.09-1.42,1.79-1.81.7-.39,1.44-.59,2.23-.59.44,0,.8.03,1.07.1.27.07.56.17.85.3l-.6,2.46c-.31-.09-.58-.16-.83-.21s-.56-.07-.93-.07c-.61,0-1.22.18-1.81.54s-1.1.99-1.53,1.88v5.16h-2.94Z"/><path class="uuid-3bcc137b-c888-48b6-9a1a-a4b09a77421e" d="M282.24,133.37c-1.05,0-1.89-.18-2.51-.54-.62-.36-1.07-.87-1.35-1.53-.28-.66-.42-1.42-.42-2.29v-3.48h-2.48v-2.2l2.62-.12.38-3.04h2.42v3.04h4.2v2.32h-4.2v3.46c0,.49.07.89.22,1.2.15.31.38.53.69.67.31.14.7.21,1.17.21.39,0,.74-.03,1.06-.1.32-.07.63-.15.92-.26l.52,2.12c-.44.13-.93.26-1.46.37-.53.11-1.13.17-1.78.17Z"/><path class="uuid-3bcc137b-c888-48b6-9a1a-a4b09a77421e" d="M292.48,133.37c-.87,0-1.69-.2-2.46-.61-.77-.41-1.4-1-1.88-1.78-.48-.78-.72-1.72-.72-2.81s.24-2.03.72-2.81,1.11-1.37,1.88-1.78c.77-.41,1.59-.61,2.46-.61s1.69.2,2.46.61c.77.41,1.4,1,1.88,1.78s.72,1.72.72,2.81-.24,2.03-.72,2.81c-.48.78-1.11,1.37-1.88,1.78-.77.41-1.59.61-2.46.61ZM292.48,130.99c.45,0,.83-.11,1.13-.34.3-.23.53-.55.68-.98.15-.43.23-.93.23-1.5s-.08-1.07-.23-1.5c-.15-.43-.38-.75-.68-.98-.3-.23-.68-.34-1.13-.34s-.83.11-1.13.34c-.3.23-.53.55-.68.98s-.23.93-.23,1.5.08,1.07.23,1.5.38.75.68.98c.3.23.68.34,1.13.34Z"/><path class="uuid-3bcc137b-c888-48b6-9a1a-a4b09a77421e" d="M311.92,133.13v-14.02h2.94v3.44l-.16,1.9h.06c.37-.39.83-.73,1.37-1.03s1.18-.45,1.93-.45c1.12,0,1.94.36,2.45,1.08.51.72.77,1.71.77,2.96v6.12h-2.94v-5.74c0-.67-.11-1.15-.33-1.46-.22-.31-.6-.46-1.13-.46-.4,0-.75.09-1.05.27-.3.18-.62.44-.97.77v6.62h-2.94Z"/><path class="uuid-3bcc137b-c888-48b6-9a1a-a4b09a77421e" d="M328.06,133.13v-7.6h-4.02v-2.32h6.94v9.92h-2.92ZM329.38,121.65c-.56,0-1.03-.16-1.4-.49-.37-.33-.56-.76-.56-1.29s.19-.99.56-1.33c.37-.34.84-.51,1.4-.51s1.04.17,1.41.51c.37.34.55.78.55,1.33s-.18.96-.55,1.29c-.37.33-.84.49-1.41.49Z"/><path class="uuid-3bcc137b-c888-48b6-9a1a-a4b09a77421e" d="M336.8,133.13v-9.92h2.4l.24,2.16h.06c.49-.81,1.09-1.42,1.79-1.81.7-.39,1.44-.59,2.23-.59.44,0,.8.03,1.07.1.27.07.56.17.85.3l-.6,2.46c-.31-.09-.58-.16-.83-.21s-.56-.07-.93-.07c-.61,0-1.22.18-1.81.54s-1.1.99-1.53,1.88v5.16h-2.94Z"/><path class="uuid-3bcc137b-c888-48b6-9a1a-a4b09a77421e" d="M353.08,133.37c-1.03,0-1.96-.2-2.79-.61-.83-.41-1.49-1-1.98-1.78-.49-.78-.73-1.72-.73-2.83s.24-2,.73-2.77c.49-.77,1.13-1.36,1.92-1.78.79-.42,1.63-.63,2.51-.63,1.01,0,1.87.21,2.56.63.69.42,1.22.99,1.57,1.7.35.71.53,1.52.53,2.43,0,.27,0,.52-.03.77s-.04.43-.07.55h-7.54v-1.98h5.54l-.48.56c0-.8-.17-1.4-.5-1.81s-.83-.61-1.48-.61c-.48,0-.9.11-1.26.33-.36.22-.64.55-.84.98-.2.43-.3.98-.3,1.65s.12,1.24.36,1.67c.24.43.59.75,1.04.96.45.21,1,.31,1.64.31.45,0,.88-.06,1.29-.17s.83-.28,1.27-.49l.96,1.76c-.56.36-1.19.64-1.88.85-.69.21-1.37.31-2.04.31Z"/><path class="uuid-3bcc137b-c888-48b6-9a1a-a4b09a77421e" d="M364.48,133.37c-.44,0-.82-.16-1.14-.47-.32-.31-.48-.72-.48-1.21s.16-.92.48-1.23c.32-.31.7-.47,1.14-.47s.84.16,1.15.47c.31.31.47.72.47,1.23s-.16.9-.47,1.21c-.31.31-.7.47-1.15.47Z"/></g><g id="uuid-1373ad1d-e6ea-42c2-886b-c4c4a470feef" class="uuid-af64bba4-e5d9-427c-9dd7-4cfb6e599b86"><polygon class="uuid-4bee9e85-cdab-4544-8b63-c1066b7f5762" points="80.22 114.67 80.22 114.56 111.7 88.24 143.07 114.61 139.79 118.55 111.59 95.01 83.5 118.55 80.22 114.67"/><path class="uuid-620f42c4-7f95-44c7-a67b-e391761ffdf5" d="M111.59,98.48l-24.15,20.51.06,23.99,15.49-.05.11-20.58c-.03-.34.18-.53.5-.67h16.1l.5.43v20.72l15.66.05v-23.97l-24.26-20.44ZM117.73,115.78c0,.94-.89,1.7-1.98,1.7h-8.26c-1.09,0-1.98-.76-1.98-1.7v-6.44c0-.94.89-1.7,1.98-1.7h8.26c1.09,0,1.98.76,1.98,1.7v6.44Z"/><polygon class="uuid-620f42c4-7f95-44c7-a67b-e391761ffdf5" points="127.13 91.76 136.62 91.76 136.62 106.14 127.13 98.17 127.13 91.76"/><rect class="uuid-ace43787-907a-4dfe-acf1-35d92386b959" x="84.68" y="145.35" width="53.93" height="2.79"/></g><g class="uuid-af64bba4-e5d9-427c-9dd7-4cfb6e599b86"><rect class="uuid-443e1851-5ed5-4a08-8079-5ac5cf4e7495" x="149.83" y="52.87" width="195.42" height="24.84"/><path class="uuid-35912e60-94a6-47d1-b55c-2c63093df2f6" d="M154.33,72.51v-17.2h5.54v.94h-4.22v15.32h4.22v.94h-5.54Z"/><path class="uuid-35912e60-94a6-47d1-b55c-2c63093df2f6" d="M168.23,69.71c-.48,0-.99-.12-1.53-.35-.54-.23-1.04-.56-1.49-.97h-.06l-.14,1.08h-1.32v-14.24h1.64v3.88l-.06,1.88h.06c.44-.45.95-.81,1.53-1.08.58-.27,1.16-.4,1.73-.4.88,0,1.62.2,2.22.61.6.41,1.05.98,1.36,1.72.31.74.46,1.61.46,2.61,0,1.11-.2,2.05-.61,2.84-.41.79-.94,1.39-1.61,1.8-.67.41-1.39.62-2.18.62ZM167.98,68.33c.56,0,1.06-.15,1.51-.46.45-.31.8-.75,1.06-1.33.26-.58.39-1.27.39-2.07,0-.71-.09-1.33-.28-1.87s-.48-.96-.88-1.26c-.4-.3-.93-.45-1.58-.45-.44,0-.9.12-1.39.35-.49.23-.98.6-1.47,1.11v4.84c.47.41.94.71,1.41.88.47.17.88.26,1.23.26Z"/><path class="uuid-35912e60-94a6-47d1-b55c-2c63093df2f6" d="M180.44,69.71c-.97,0-1.86-.2-2.65-.6-.79-.4-1.42-.98-1.89-1.75-.47-.77-.7-1.69-.7-2.77s.23-1.96.7-2.72c.47-.76,1.08-1.34,1.83-1.75.75-.41,1.56-.61,2.43-.61.93,0,1.73.19,2.39.57.66.38,1.17.91,1.52,1.59.35.68.53,1.48.53,2.4,0,.19,0,.37-.02.54-.01.17-.03.33-.06.46h-8.22v-1.28h7.24l-.42.46c0-1.15-.26-2.01-.79-2.58-.53-.57-1.24-.86-2.13-.86-.6,0-1.16.15-1.67.44-.51.29-.92.72-1.23,1.28s-.46,1.25-.46,2.06.17,1.54.5,2.1c.33.56.79.98,1.36,1.27s1.22.43,1.94.43c.59,0,1.12-.08,1.59-.25.47-.17.93-.39,1.37-.67l.6,1.08c-.48.32-1.03.59-1.65.82s-1.32.34-2.11.34Z"/><path class="uuid-35912e60-94a6-47d1-b55c-2c63093df2f6" d="M192.75,69.71c-1.01,0-1.92-.2-2.73-.6s-1.44-.98-1.9-1.74c-.46-.76-.69-1.67-.69-2.74s.25-2.02.74-2.78c.49-.76,1.15-1.34,1.97-1.74s1.72-.6,2.71-.6c.8,0,1.49.14,2.07.42.58.28,1.07.61,1.47,1l-.82,1.06c-.4-.35-.81-.62-1.24-.82-.43-.2-.9-.3-1.42-.3-.75,0-1.41.16-1.98.47-.57.31-1.02.75-1.33,1.32-.31.57-.47,1.22-.47,1.97s.15,1.38.46,1.94.74,1,1.31,1.31,1.22.47,1.97.47c.6,0,1.15-.12,1.65-.36.5-.24.95-.53,1.35-.86l.74,1.06c-.53.48-1.13.85-1.79,1.12-.66.27-1.35.4-2.07.4Z"/><path class="uuid-35912e60-94a6-47d1-b55c-2c63093df2f6" d="M203.83,69.71c-.85,0-1.64-.2-2.37-.6s-1.31-.98-1.76-1.74c-.45-.76-.67-1.67-.67-2.74s.22-2.02.67-2.78c.45-.76,1.03-1.34,1.76-1.74s1.52-.6,2.37-.6,1.64.2,2.37.6c.73.4,1.31.98,1.76,1.74.45.76.67,1.69.67,2.78s-.22,1.98-.67,2.74c-.45.76-1.03,1.34-1.76,1.74-.73.4-1.52.6-2.37.6ZM203.83,68.35c.63,0,1.17-.16,1.64-.47.47-.31.83-.75,1.08-1.31.25-.56.38-1.21.38-1.94s-.13-1.4-.38-1.97c-.25-.57-.61-1.01-1.08-1.32-.47-.31-1.01-.47-1.64-.47s-1.17.16-1.63.47-.82.75-1.08,1.32c-.26.57-.39,1.22-.39,1.97s.13,1.38.39,1.94c.26.56.62,1,1.08,1.31s1,.47,1.63.47Z"/><path class="uuid-35912e60-94a6-47d1-b55c-2c63093df2f6" d="M211,69.47v-9.72h1.32l.14,1.28h.04c.25-.45.55-.82.88-1.1.33-.28.78-.42,1.34-.42.48,0,.87.14,1.18.42.31.28.53.7.66,1.26.28-.52.59-.93.93-1.23.34-.3.79-.45,1.35-.45.68,0,1.21.26,1.59.77.38.51.57,1.26.57,2.23v6.96h-1.64v-6.84c0-1.13-.35-1.7-1.04-1.7-.33,0-.61.12-.83.37-.22.25-.46.62-.73,1.13v7.04h-1.52v-6.84c0-.56-.08-.98-.23-1.27s-.41-.43-.77-.43c-.33,0-.62.12-.87.37s-.49.62-.73,1.13v7.04h-1.64Z"/><path class="uuid-35912e60-94a6-47d1-b55c-2c63093df2f6" d="M228.44,69.71c-.97,0-1.86-.2-2.65-.6-.79-.4-1.42-.98-1.89-1.75-.47-.77-.7-1.69-.7-2.77s.23-1.96.7-2.72c.47-.76,1.08-1.34,1.83-1.75.75-.41,1.56-.61,2.43-.61.93,0,1.73.19,2.39.57.66.38,1.17.91,1.52,1.59.35.68.53,1.48.53,2.4,0,.19,0,.37-.02.54-.01.17-.03.33-.06.46h-8.22v-1.28h7.24l-.42.46c0-1.15-.26-2.01-.79-2.58-.53-.57-1.24-.86-2.13-.86-.6,0-1.16.15-1.67.44-.51.29-.92.72-1.23,1.28s-.46,1.25-.46,2.06.17,1.54.5,2.1c.33.56.79.98,1.36,1.27s1.22.43,1.94.43c.59,0,1.12-.08,1.59-.25.47-.17.93-.39,1.37-.67l.6,1.08c-.48.32-1.03.59-1.65.82s-1.32.34-2.11.34Z"/><path class="uuid-35912e60-94a6-47d1-b55c-2c63093df2f6" d="M252.75,69.71c-1.01,0-1.92-.2-2.73-.6s-1.44-.98-1.9-1.74c-.46-.76-.69-1.67-.69-2.74s.25-2.02.74-2.78c.49-.76,1.15-1.34,1.97-1.74s1.72-.6,2.71-.6c.8,0,1.49.14,2.07.42.58.28,1.07.61,1.47,1l-.82,1.06c-.4-.35-.81-.62-1.24-.82-.43-.2-.9-.3-1.42-.3-.75,0-1.41.16-1.98.47-.57.31-1.02.75-1.33,1.32-.31.57-.47,1.22-.47,1.97s.15,1.38.46,1.94.74,1,1.31,1.31,1.22.47,1.97.47c.6,0,1.15-.12,1.65-.36.5-.24.95-.53,1.35-.86l.74,1.06c-.53.48-1.13.85-1.79,1.12-.66.27-1.35.4-2.07.4Z"/><path class="uuid-35912e60-94a6-47d1-b55c-2c63093df2f6" d="M265.96,69.71c-1.03,0-1.81-.3-2.36-.89s-.82-1.46-.82-2.61v-9.64h-3.32v-1.34h4.96v11.1c0,.71.17,1.22.52,1.54.35.32.81.48,1.38.48.28,0,.57-.04.86-.11s.62-.19.98-.35l.42,1.24c-.44.16-.85.3-1.24.41-.39.11-.85.17-1.38.17Z"/><path class="uuid-35912e60-94a6-47d1-b55c-2c63093df2f6" d="M276.15,69.47v-8.38h-4.52v-1.34h6.16v9.72h-1.64ZM276.79,57.71c-.37,0-.69-.12-.94-.35-.25-.23-.38-.54-.38-.93s.13-.7.38-.93c.25-.23.57-.35.94-.35s.69.12.94.35c.25.23.38.54.38.93s-.13.7-.38.93-.57.35-.94.35Z"/><path class="uuid-35912e60-94a6-47d1-b55c-2c63093df2f6" d="M288.44,69.71c-.97,0-1.86-.2-2.65-.6-.79-.4-1.42-.98-1.89-1.75-.47-.77-.7-1.69-.7-2.77s.23-1.96.7-2.72c.47-.76,1.08-1.34,1.83-1.75.75-.41,1.56-.61,2.43-.61.93,0,1.73.19,2.39.57.66.38,1.17.91,1.52,1.59.35.68.53,1.48.53,2.4,0,.19,0,.37-.02.54-.01.17-.03.33-.06.46h-8.22v-1.28h7.24l-.42.46c0-1.15-.26-2.01-.79-2.58-.53-.57-1.24-.86-2.13-.86-.6,0-1.16.15-1.67.44-.51.29-.92.72-1.23,1.28s-.46,1.25-.46,2.06.17,1.54.5,2.1c.33.56.79.98,1.36,1.27s1.22.43,1.94.43c.59,0,1.12-.08,1.59-.25.47-.17.93-.39,1.37-.67l.6,1.08c-.48.32-1.03.59-1.65.82s-1.32.34-2.11.34Z"/><path class="uuid-35912e60-94a6-47d1-b55c-2c63093df2f6" d="M295.69,69.47v-9.72h1.36l.14,1.66h.08c.51-.55,1.05-1,1.64-1.36.59-.36,1.26-.54,2.02-.54,1.15,0,1.99.33,2.54,1,.55.67.82,1.64.82,2.92v6.04h-1.64v-5.82c0-.92-.17-1.6-.52-2.05-.35-.45-.92-.67-1.72-.67-.57,0-1.09.15-1.54.44-.45.29-.97.73-1.54,1.32v6.78h-1.64Z"/><path class="uuid-35912e60-94a6-47d1-b55c-2c63093df2f6" d="M313.71,69.71c-.95,0-1.69-.17-2.24-.51-.55-.34-.94-.81-1.17-1.41-.23-.6-.35-1.3-.35-2.1v-4.6h-2.74v-1.24l2.8-.1.22-3.12h1.36v3.12h4.78v1.34h-4.78v4.62c0,.57.07,1.06.22,1.46.15.4.4.7.76.9.36.2.85.3,1.48.3.47,0,.89-.04,1.26-.12.37-.08.73-.19,1.08-.32l.36,1.2c-.44.16-.9.3-1.39.41-.49.11-1.04.17-1.65.17Z"/><path class="uuid-35912e60-94a6-47d1-b55c-2c63093df2f6" d="M324.04,69.71c-.95,0-1.83-.15-2.66-.46-.83-.31-1.53-.66-2.12-1.06l.76-1.08c.56.4,1.18.72,1.86.96.68.24,1.47.36,2.36.36.83,0,1.44-.15,1.85-.46s.61-.66.61-1.06c0-.19-.04-.36-.11-.52s-.21-.31-.42-.46c-.21-.15-.51-.29-.91-.42s-.93-.27-1.6-.4c-1.27-.27-2.22-.63-2.85-1.08-.63-.45-.95-1.04-.95-1.76,0-.79.34-1.44,1.02-1.97s1.69-.79,3.02-.79c.75,0,1.47.12,2.16.37.69.25,1.28.54,1.76.87l-.8,1.06c-.44-.32-.94-.57-1.5-.75-.56-.18-1.15-.27-1.76-.27-.56,0-1,.06-1.33.19-.33.13-.56.3-.7.51-.14.21-.21.45-.21.7,0,.41.22.74.67.97.45.23,1.16.45,2.15.65,1.08.23,1.91.48,2.49.76.58.28.98.6,1.2.96.22.36.33.79.33,1.28,0,.53-.17,1.02-.5,1.45-.33.43-.82.78-1.46,1.05s-1.43.4-2.36.4Z"/><path class="uuid-35912e60-94a6-47d1-b55c-2c63093df2f6" d="M331.79,72.51v-.94h4.22v-15.32h-4.22v-.94h5.54v17.2h-5.54Z"/></g></g><g id="uuid-0e2c47e4-a26a-471c-9d94-b19d9c5f0368"><line class="uuid-87c5a956-4f32-44e1-b0c0-b95c2cb7f998" x1="897.74" y1="305.73" x2="897.74" y2="302.73"/><line class="uuid-5a02942b-c2b7-485a-8fda-759acce6e10b" x1="897.74" y1="296.65" x2="897.74" y2="263.23"/><line class="uuid-87c5a956-4f32-44e1-b0c0-b95c2cb7f998" x1="897.74" y1="260.19" x2="897.74" y2="257.19"/><rect class="uuid-660b9b0d-d3ad-4157-bf67-0ffd0b2978d2" x="566.48" y="181.41" width="331.06" height="69.2" rx="5" ry="5"/><rect class="uuid-443e1851-5ed5-4a08-8079-5ac5cf4e7495" x="576.73" y="193.05" width="316.84" height="49.34"/><path class="uuid-3bcc137b-c888-48b6-9a1a-a4b09a77421e" d="M578.18,209.65v-13.12h2.05l1.85,5.6.64,2.12h.08l.62-2.12,1.87-5.6h2.05v13.12h-1.61v-6.56c0-.32.01-.69.03-1.1.02-.41.05-.84.08-1.28.03-.44.07-.86.1-1.25.03-.39.06-.73.07-1.01h-.06l-.75,2.56-1.89,5.16h-1.21l-1.85-5.16-.76-2.56h-.04c.03.28.06.62.09,1.01.03.39.06.81.09,1.25s.05.87.07,1.28c.02.41.03.78.03,1.1v6.56h-1.57Z"/><path class="uuid-3bcc137b-c888-48b6-9a1a-a4b09a77421e" d="M594.86,209.89c-.86,0-1.65-.2-2.39-.6-.73-.4-1.32-.98-1.77-1.74s-.67-1.67-.67-2.74.22-2.02.67-2.78c.45-.76,1.04-1.34,1.77-1.74.73-.4,1.53-.6,2.39-.6s1.66.2,2.39.6,1.32.98,1.77,1.74c.45.76.67,1.69.67,2.78s-.23,1.98-.67,2.74c-.45.76-1.04,1.34-1.77,1.74-.73.4-1.53.6-2.39.6ZM594.86,208.53c.63,0,1.18-.16,1.65-.47s.83-.75,1.09-1.31c.25-.56.38-1.21.38-1.94s-.13-1.4-.38-1.97-.62-1.01-1.09-1.32-1.02-.47-1.65-.47-1.18.16-1.64.47-.83.75-1.09,1.32-.39,1.22-.39,1.97.13,1.38.39,1.94c.26.56.62,1,1.09,1.31s1.01.47,1.64.47Z"/><path class="uuid-3bcc137b-c888-48b6-9a1a-a4b09a77421e" d="M607.14,209.89c-.95,0-1.85-.15-2.68-.46-.83-.31-1.54-.66-2.13-1.06l.77-1.08c.56.4,1.19.72,1.87.96.68.24,1.48.36,2.38.36.83,0,1.45-.15,1.86-.46.41-.31.61-.66.61-1.06,0-.19-.04-.36-.11-.52-.07-.16-.21-.31-.42-.46-.21-.15-.51-.29-.92-.42-.4-.13-.94-.27-1.61-.4-1.28-.27-2.23-.63-2.87-1.08s-.96-1.04-.96-1.76c0-.79.34-1.44,1.03-1.97.69-.53,1.7-.79,3.04-.79.75,0,1.48.12,2.17.37s1.29.54,1.77.87l-.81,1.06c-.44-.32-.95-.57-1.51-.75-.56-.18-1.16-.27-1.77-.27-.56,0-1.01.06-1.34.19-.33.13-.56.3-.71.51-.14.21-.21.45-.21.7,0,.41.22.74.67.97s1.17.45,2.17.65c1.09.23,1.92.48,2.51.76.58.28.99.6,1.21.96.22.36.33.79.33,1.28,0,.53-.17,1.02-.5,1.45-.33.43-.83.78-1.47,1.05s-1.44.4-2.38.4Z"/><path class="uuid-3bcc137b-c888-48b6-9a1a-a4b09a77421e" d="M620.92,209.89c-.95,0-1.71-.17-2.26-.51s-.94-.81-1.18-1.41c-.24-.6-.35-1.3-.35-2.1v-4.6h-2.76v-1.24l2.82-.1.22-3.12h1.37v3.12h4.81v1.34h-4.81v4.62c0,.57.07,1.06.22,1.46.15.4.4.7.76.9.36.2.86.3,1.49.3.47,0,.89-.04,1.27-.12.38-.08.74-.19,1.09-.32l.36,1.2c-.44.16-.91.3-1.4.41s-1.04.17-1.66.17Z"/><path class="uuid-3bcc137b-c888-48b6-9a1a-a4b09a77421e" d="M639.02,213.75v-13.82h1.37l.14,1.24h.06c.46-.43.98-.78,1.58-1.06.6-.28,1.2-.42,1.8-.42.89,0,1.63.2,2.22.61.6.41,1.05.98,1.36,1.72s.46,1.62.46,2.63c0,1.09-.21,2.03-.62,2.82s-.96,1.39-1.63,1.8c-.67.41-1.4.62-2.2.62-.44,0-.93-.11-1.46-.33s-1.02-.53-1.46-.93h-.06l.08,1.84v3.28h-1.65ZM643.29,208.51c.58,0,1.09-.15,1.55-.46.46-.31.82-.75,1.08-1.33s.39-1.27.39-2.07c0-.71-.09-1.33-.28-1.87-.19-.54-.48-.96-.89-1.26-.4-.3-.93-.45-1.59-.45-.44,0-.91.12-1.4.35s-.98.6-1.48,1.11v4.84c.47.41.94.71,1.42.88.48.17.88.26,1.2.26Z"/><path class="uuid-3bcc137b-c888-48b6-9a1a-a4b09a77421e" d="M652.17,209.65v-9.72h1.37l.14,2.3h.06c.51-.79,1.14-1.41,1.89-1.86.75-.45,1.58-.68,2.48-.68.36,0,.7.03,1.02.09s.62.16.92.31l-.38,1.42c-.34-.12-.62-.21-.87-.26-.24-.05-.56-.08-.95-.08-.74,0-1.45.21-2.12.63s-1.31,1.14-1.9,2.15v5.7h-1.65Z"/><path class="uuid-3bcc137b-c888-48b6-9a1a-a4b09a77421e" d="M667.35,209.89c-.86,0-1.65-.2-2.39-.6-.73-.4-1.32-.98-1.77-1.74s-.67-1.67-.67-2.74.22-2.02.67-2.78c.45-.76,1.04-1.34,1.77-1.74.73-.4,1.53-.6,2.39-.6s1.66.2,2.39.6,1.32.98,1.77,1.74c.45.76.67,1.69.67,2.78s-.23,1.98-.67,2.74c-.45.76-1.04,1.34-1.77,1.74-.73.4-1.53.6-2.39.6ZM667.35,208.53c.63,0,1.18-.16,1.65-.47s.83-.75,1.09-1.31c.25-.56.38-1.21.38-1.94s-.13-1.4-.38-1.97-.62-1.01-1.09-1.32-1.02-.47-1.65-.47-1.18.16-1.64.47-.83.75-1.09,1.32-.39,1.22-.39,1.97.13,1.38.39,1.94c.26.56.62,1,1.09,1.31s1.01.47,1.64.47Z"/><path class="uuid-3bcc137b-c888-48b6-9a1a-a4b09a77421e" d="M678.85,209.89c-1.28,0-2.3-.44-3.08-1.33s-1.17-2.14-1.17-3.75c0-1.05.21-1.96.63-2.73s.97-1.36,1.65-1.77c.68-.41,1.4-.62,2.17-.62.58,0,1.1.11,1.58.33.48.22.92.53,1.34.93h.06l-.08-1.8v-3.74h1.65v14.24h-1.37l-.14-1.28h-.06c-.39.41-.86.77-1.42,1.07-.56.3-1.14.45-1.76.45ZM679.2,208.51c.48,0,.95-.12,1.41-.37.46-.25.91-.61,1.35-1.09v-4.84c-.44-.41-.88-.71-1.3-.88-.42-.17-.85-.26-1.28-.26-.56,0-1.08.16-1.54.47s-.83.75-1.11,1.3c-.28.55-.41,1.2-.41,1.95,0,1.16.25,2.07.77,2.73.51.66,1.21.99,2.11.99Z"/><path class="uuid-3bcc137b-c888-48b6-9a1a-a4b09a77421e" d="M690.43,209.89c-1.17,0-2.03-.33-2.58-1s-.83-1.64-.83-2.92v-6.04h1.67v5.82c0,.92.17,1.6.51,2.05.34.45.92.67,1.74.67.56,0,1.08-.14,1.54-.43.46-.29.96-.74,1.5-1.37v-6.74h1.65v9.72h-1.35l-.14-1.7h-.08c-.5.56-1.04,1.02-1.63,1.39-.59.37-1.26.55-2.01.55Z"/><path class="uuid-3bcc137b-c888-48b6-9a1a-a4b09a77421e" d="M704.53,209.89c-1.02,0-1.94-.2-2.75-.6-.81-.4-1.45-.98-1.91-1.74s-.69-1.67-.69-2.74.25-2.02.75-2.78c.5-.76,1.16-1.34,1.98-1.74.83-.4,1.74-.6,2.73-.6.81,0,1.5.14,2.08.42.58.28,1.08.61,1.48,1l-.83,1.06c-.4-.35-.82-.62-1.25-.82s-.91-.3-1.43-.3c-.75,0-1.42.16-1.99.47s-1.02.75-1.34,1.32-.47,1.22-.47,1.97.15,1.38.46,1.94c.31.56.75,1,1.32,1.31.57.31,1.23.47,1.98.47.6,0,1.16-.12,1.66-.36.5-.24.96-.53,1.36-.86l.75,1.06c-.54.48-1.14.85-1.8,1.12-.66.27-1.36.4-2.08.4Z"/><path class="uuid-3bcc137b-c888-48b6-9a1a-a4b09a77421e" d="M717.58,209.89c-.95,0-1.71-.17-2.26-.51s-.94-.81-1.18-1.41c-.24-.6-.35-1.3-.35-2.1v-4.6h-2.76v-1.24l2.82-.1.22-3.12h1.37v3.12h4.81v1.34h-4.81v4.62c0,.57.07,1.06.22,1.46.15.4.4.7.76.9.36.2.86.3,1.49.3.47,0,.89-.04,1.27-.12.38-.08.74-.19,1.09-.32l.36,1.2c-.44.16-.91.3-1.4.41s-1.04.17-1.66.17Z"/><path class="uuid-3bcc137b-c888-48b6-9a1a-a4b09a77421e" d="M728.09,209.65v-8.38h-4.55v-1.34h6.2v9.72h-1.65ZM728.74,197.89c-.38,0-.69-.12-.95-.35s-.38-.54-.38-.93.13-.7.38-.93c.25-.23.57-.35.95-.35s.69.12.95.35c.25.23.38.54.38.93s-.13.7-.38.93-.57.35-.95.35Z"/><path class="uuid-3bcc137b-c888-48b6-9a1a-a4b09a77421e" d="M738.97,209.65l-4.13-9.72h1.67l2.26,5.52c.2.48.39.96.57,1.44.18.48.36.95.53,1.42h.08c.17-.47.35-.94.52-1.42.17-.48.36-.96.54-1.44l2.25-5.52h1.59l-4.05,9.72h-1.85Z"/><path class="uuid-3bcc137b-c888-48b6-9a1a-a4b09a77421e" d="M752.54,209.89c-.98,0-1.87-.2-2.67-.6-.8-.4-1.43-.98-1.9-1.75s-.71-1.69-.71-2.77.24-1.96.71-2.72,1.08-1.34,1.84-1.75c.76-.41,1.57-.61,2.45-.61.94,0,1.74.19,2.41.57.66.38,1.17.91,1.53,1.59.36.68.53,1.48.53,2.4,0,.19,0,.37-.02.54-.01.17-.03.33-.06.46h-8.28v-1.28h7.29l-.42.46c0-1.15-.26-2.01-.79-2.58s-1.25-.86-2.14-.86c-.6,0-1.17.15-1.68.44-.52.29-.93.72-1.24,1.28-.31.56-.46,1.25-.46,2.06s.17,1.54.5,2.1c.33.56.79.98,1.37,1.27.58.29,1.23.43,1.95.43.59,0,1.12-.08,1.6-.25.48-.17.94-.39,1.38-.67l.6,1.08c-.48.32-1.04.59-1.66.82-.62.23-1.33.34-2.12.34Z"/><path class="uuid-3bcc137b-c888-48b6-9a1a-a4b09a77421e" d="M772.13,201.27v-1.24l2.86-.1h5.68v1.34h-8.54ZM774.93,209.65v-10.54c0-.79.14-1.48.43-2.07.29-.59.72-1.05,1.3-1.38.58-.33,1.32-.49,2.21-.49.48,0,.96.04,1.42.13.46.09.93.23,1.4.43l-.38,1.24c-.4-.19-.78-.31-1.12-.37-.34-.06-.73-.09-1.16-.09-.87,0-1.5.23-1.89.68-.39.45-.58,1.07-.58,1.86v10.6h-1.63Z"/><path class="uuid-3bcc137b-c888-48b6-9a1a-a4b09a77421e" d="M787.1,209.89c-.6,0-1.16-.11-1.67-.33-.51-.22-.91-.54-1.21-.95-.3-.41-.44-.91-.44-1.48,0-1.09.55-1.92,1.65-2.49s2.91-.95,5.44-1.15c-.01-.44-.1-.85-.27-1.22-.17-.37-.44-.67-.82-.89-.38-.22-.88-.33-1.51-.33-.42,0-.83.06-1.24.17-.41.11-.8.26-1.17.44-.37.18-.71.36-1.02.55l-.64-1.12c.32-.21.71-.43,1.18-.65.46-.22.96-.4,1.5-.54s1.09-.21,1.67-.21c.9,0,1.64.17,2.22.5.58.33,1.02.8,1.31,1.39.29.59.43,1.3.43,2.11v5.96h-1.35l-.14-1.32h-.06c-.54.43-1.14.79-1.81,1.1-.67.31-1.36.46-2.05.46ZM787.54,208.57c.56,0,1.12-.13,1.67-.38.55-.25,1.1-.61,1.65-1.06v-2.56c-1.4.12-2.49.29-3.29.5-.8.21-1.36.48-1.69.81-.33.33-.49.7-.49,1.13,0,.36.1.66.3.89.2.23.47.4.8.51.33.11.68.16,1.06.16Z"/><path class="uuid-3bcc137b-c888-48b6-9a1a-a4b09a77421e" d="M797.17,209.65v-9.72h1.37l.14,2.3h.06c.51-.79,1.14-1.41,1.89-1.86.75-.45,1.58-.68,2.48-.68.36,0,.7.03,1.02.09s.62.16.92.31l-.38,1.42c-.34-.12-.62-.21-.87-.26-.24-.05-.56-.08-.95-.08-.74,0-1.45.21-2.12.63s-1.31,1.14-1.9,2.15v5.7h-1.65Z"/><path class="uuid-3bcc137b-c888-48b6-9a1a-a4b09a77421e" d="M807.48,209.65v-9.72h1.33l.14,1.28h.04c.25-.45.55-.82.89-1.1.33-.28.79-.42,1.35-.42.48,0,.88.14,1.19.42.31.28.53.7.67,1.26.28-.52.59-.93.94-1.23.34-.3.79-.45,1.36-.45.68,0,1.22.26,1.6.77s.57,1.26.57,2.23v6.96h-1.65v-6.84c0-1.13-.35-1.7-1.05-1.7-.34,0-.61.12-.84.37-.22.25-.47.62-.74,1.13v7.04h-1.53v-6.84c0-.56-.08-.98-.23-1.27-.16-.29-.41-.43-.78-.43-.34,0-.63.12-.88.37-.25.25-.49.62-.74,1.13v7.04h-1.65Z"/><path class="uuid-3bcc137b-c888-48b6-9a1a-a4b09a77421e" d="M836.84,209.65v-8.38h-4.55v-1.34h6.2v9.72h-1.65ZM837.48,197.89c-.38,0-.69-.12-.95-.35s-.38-.54-.38-.93.13-.7.38-.93c.25-.23.57-.35.95-.35s.69.12.95.35c.25.23.38.54.38.93s-.13.7-.38.93-.57.35-.95.35Z"/><path class="uuid-3bcc137b-c888-48b6-9a1a-a4b09a77421e" d="M848.8,209.89c-.95,0-1.85-.15-2.68-.46-.83-.31-1.54-.66-2.13-1.06l.77-1.08c.56.4,1.19.72,1.87.96.68.24,1.48.36,2.38.36.83,0,1.45-.15,1.86-.46.41-.31.61-.66.61-1.06,0-.19-.04-.36-.11-.52-.07-.16-.21-.31-.42-.46-.21-.15-.51-.29-.92-.42-.4-.13-.94-.27-1.61-.4-1.28-.27-2.23-.63-2.87-1.08s-.96-1.04-.96-1.76c0-.79.34-1.44,1.03-1.97.69-.53,1.7-.79,3.04-.79.75,0,1.48.12,2.17.37s1.29.54,1.77.87l-.81,1.06c-.44-.32-.95-.57-1.51-.75-.56-.18-1.16-.27-1.77-.27-.56,0-1.01.06-1.34.19-.33.13-.56.3-.71.51-.14.21-.21.45-.21.7,0,.41.22.74.67.97s1.17.45,2.17.65c1.09.23,1.92.48,2.51.76.58.28.99.6,1.21.96.22.36.33.79.33,1.28,0,.53-.17,1.02-.5,1.45-.33.43-.83.78-1.47,1.05s-1.44.4-2.38.4Z"/><path class="uuid-3bcc137b-c888-48b6-9a1a-a4b09a77421e" d="M584.54,233.89c-1.06,0-1.9-.18-2.53-.54-.62-.36-1.08-.87-1.36-1.53s-.42-1.42-.42-2.29v-3.48h-2.5v-2.2l2.64-.12.38-3.04h2.44v3.04h4.23v2.32h-4.23v3.46c0,.49.07.89.22,1.2.15.31.38.53.7.67.32.14.71.21,1.18.21.39,0,.75-.03,1.07-.1.32-.07.63-.15.93-.26l.52,2.12c-.44.13-.93.26-1.47.37s-1.13.17-1.79.17Z"/><path class="uuid-3bcc137b-c888-48b6-9a1a-a4b09a77421e" d="M594.86,233.89c-.87,0-1.7-.2-2.48-.61s-1.41-1-1.89-1.78c-.48-.78-.73-1.72-.73-2.81s.24-2.03.73-2.81c.48-.78,1.11-1.37,1.89-1.78.78-.41,1.6-.61,2.48-.61s1.7.2,2.48.61c.78.41,1.41,1,1.89,1.78.48.78.73,1.72.73,2.81s-.24,2.03-.73,2.81c-.48.78-1.11,1.37-1.89,1.78-.78.41-1.6.61-2.48.61ZM594.86,231.51c.46,0,.84-.11,1.14-.34.3-.23.53-.55.68-.98.15-.43.23-.93.23-1.5s-.08-1.07-.23-1.5c-.16-.43-.38-.75-.68-.98-.3-.23-.68-.34-1.14-.34s-.83.11-1.14.34c-.3.23-.53.55-.68.98s-.23.93-.23,1.5.08,1.07.23,1.5.38.75.68.98c.3.23.68.34,1.14.34Z"/><path class="uuid-3bcc137b-c888-48b6-9a1a-a4b09a77421e" d="M606.94,233.89c-.87,0-1.7-.2-2.48-.61s-1.41-1-1.89-1.78c-.48-.78-.73-1.72-.73-2.81s.24-2.03.73-2.81c.48-.78,1.11-1.37,1.89-1.78.78-.41,1.6-.61,2.48-.61s1.7.2,2.48.61c.78.41,1.41,1,1.89,1.78.48.78.73,1.72.73,2.81s-.24,2.03-.73,2.81c-.48.78-1.11,1.37-1.89,1.78-.78.41-1.6.61-2.48.61ZM606.94,231.51c.46,0,.84-.11,1.14-.34.3-.23.53-.55.68-.98.15-.43.23-.93.23-1.5s-.08-1.07-.23-1.5c-.16-.43-.38-.75-.68-.98-.3-.23-.68-.34-1.14-.34s-.83.11-1.14.34c-.3.23-.53.55-.68.98s-.23.93-.23,1.5.08,1.07.23,1.5.38.75.68.98c.3.23.68.34,1.14.34Z"/><path class="uuid-3bcc137b-c888-48b6-9a1a-a4b09a77421e" d="M631.71,233.89c-1.03,0-1.97-.2-2.81-.61s-1.5-1-1.99-1.78c-.49-.78-.74-1.72-.74-2.83s.25-2,.74-2.77,1.13-1.36,1.93-1.78c.8-.42,1.64-.63,2.53-.63,1.02,0,1.88.21,2.58.63s1.22.99,1.58,1.7c.36.71.53,1.52.53,2.43,0,.27,0,.52-.03.77-.02.25-.04.43-.07.55h-7.59v-1.98h5.58l-.48.56c0-.8-.17-1.4-.5-1.81-.34-.41-.83-.61-1.49-.61-.48,0-.91.11-1.27.33-.36.22-.64.55-.85.98-.2.43-.3.98-.3,1.65s.12,1.24.36,1.67c.24.43.59.75,1.05.96.46.21,1.01.31,1.65.31.46,0,.89-.06,1.3-.17.41-.11.83-.28,1.28-.49l.97,1.76c-.56.36-1.2.64-1.89.85-.7.21-1.38.31-2.05.31Z"/><path class="uuid-3bcc137b-c888-48b6-9a1a-a4b09a77421e" d="M637.89,233.65l3.46-5.16-3.24-4.76h3.18l1.03,1.6c.16.28.33.56.52.85.19.29.36.57.52.85h.08c.12-.28.26-.57.41-.86.15-.29.29-.57.41-.84l.89-1.6h3.1l-3.26,5.1,3.46,4.82h-3.18l-1.15-1.64c-.19-.28-.38-.57-.57-.86s-.39-.58-.57-.86h-.08c-.15.28-.3.56-.46.85s-.32.58-.46.87l-.99,1.64h-3.1Z"/><path class="uuid-3bcc137b-c888-48b6-9a1a-a4b09a77421e" d="M650.68,237.33v-13.6h2.42l.22,1h.06c.42-.36.88-.66,1.4-.89s1.04-.35,1.58-.35c.83,0,1.55.21,2.14.62s1.06,1,1.38,1.76c.32.76.48,1.65.48,2.66,0,1.13-.21,2.1-.61,2.9-.41.8-.94,1.41-1.6,1.83-.66.42-1.36.63-2.11.63-.44,0-.88-.09-1.3-.28s-.81-.45-1.16-.8h-.08l.14,1.62v2.9h-2.96ZM655.35,231.49c.38,0,.71-.1,1.01-.3.29-.2.53-.52.71-.95.17-.43.26-.99.26-1.67,0-.6-.07-1.1-.2-1.49-.13-.39-.33-.69-.59-.89s-.61-.3-1.04-.3c-.32,0-.63.07-.94.21-.3.14-.61.38-.92.71v4.02c.28.23.57.39.88.5.3.11.58.16.84.16Z"/><path class="uuid-3bcc137b-c888-48b6-9a1a-a4b09a77421e" d="M667.96,233.89c-1.03,0-1.97-.2-2.81-.61s-1.5-1-1.99-1.78c-.49-.78-.74-1.72-.74-2.83s.25-2,.74-2.77,1.13-1.36,1.93-1.78c.8-.42,1.64-.63,2.53-.63,1.02,0,1.88.21,2.58.63s1.22.99,1.58,1.7c.36.71.53,1.52.53,2.43,0,.27,0,.52-.03.77-.02.25-.04.43-.07.55h-7.59v-1.98h5.58l-.48.56c0-.8-.17-1.4-.5-1.81-.34-.41-.83-.61-1.49-.61-.48,0-.91.11-1.27.33-.36.22-.64.55-.85.98-.2.43-.3.98-.3,1.65s.12,1.24.36,1.67c.24.43.59.75,1.05.96.46.21,1.01.31,1.65.31.46,0,.89-.06,1.3-.17.41-.11.83-.28,1.28-.49l.97,1.76c-.56.36-1.2.64-1.89.85-.7.21-1.38.31-2.05.31Z"/><path class="uuid-3bcc137b-c888-48b6-9a1a-a4b09a77421e" d="M674.85,233.65v-9.92h2.42l.22,1.32h.08c.43-.43.92-.79,1.48-1.1.56-.31,1.21-.46,1.96-.46,1.13,0,1.95.36,2.48,1.08.52.72.79,1.71.79,2.96v6.12h-2.96v-5.74c0-.67-.11-1.15-.33-1.46s-.6-.46-1.14-.46c-.4,0-.75.09-1.06.27-.3.18-.63.44-.98.77v6.62h-2.96Z"/><path class="uuid-3bcc137b-c888-48b6-9a1a-a4b09a77421e" d="M691.44,233.89c-.89,0-1.77-.15-2.64-.45-.87-.3-1.62-.66-2.26-1.07l1.27-1.84c.6.39,1.25.68,1.92.88s1.38.3,2.1.3c.55,0,.95-.08,1.21-.25.25-.17.38-.36.38-.59,0-.15-.04-.27-.11-.37-.07-.1-.2-.19-.38-.28-.18-.09-.43-.17-.75-.25s-.72-.17-1.22-.28c-1.36-.29-2.33-.69-2.92-1.2-.59-.51-.89-1.14-.89-1.9,0-.93.41-1.68,1.23-2.25.82-.57,1.94-.85,3.36-.85.9,0,1.71.14,2.45.43.73.29,1.36.6,1.88.93l-1.33,1.76c-.5-.31-1.03-.54-1.59-.7-.56-.16-1.12-.24-1.67-.24-.31,0-.56.03-.77.09-.2.06-.36.15-.46.28-.11.13-.16.26-.16.41,0,.27.17.46.52.59.35.13.95.28,1.79.47,1.02.23,1.82.49,2.4.78.58.29.98.63,1.2,1.01.22.38.33.84.33,1.39,0,.6-.19,1.14-.55,1.62-.37.48-.92.86-1.65,1.15-.73.29-1.63.43-2.71.43Z"/><path class="uuid-3bcc137b-c888-48b6-9a1a-a4b09a77421e" d="M703.18,233.65v-7.6h-4.05v-2.32h6.99v9.92h-2.94ZM704.51,222.17c-.56,0-1.03-.16-1.41-.49-.38-.33-.56-.76-.56-1.29s.19-.99.56-1.33.85-.51,1.41-.51,1.05.17,1.42.51.55.78.55,1.33-.18.96-.55,1.29c-.37.33-.84.49-1.42.49Z"/><path class="uuid-3bcc137b-c888-48b6-9a1a-a4b09a77421e" d="M714.03,233.65l-3.77-9.92h2.98l1.57,4.68c.16.49.32.99.46,1.5.15.51.29,1.03.44,1.56h.08c.15-.53.29-1.05.43-1.56.14-.51.29-1.01.45-1.5l1.57-4.68h2.84l-3.67,9.92h-3.4Z"/><path class="uuid-3bcc137b-c888-48b6-9a1a-a4b09a77421e" d="M728.37,233.89c-1.03,0-1.97-.2-2.81-.61s-1.5-1-1.99-1.78c-.49-.78-.74-1.72-.74-2.83s.25-2,.74-2.77,1.13-1.36,1.93-1.78c.8-.42,1.64-.63,2.53-.63,1.02,0,1.88.21,2.58.63s1.22.99,1.58,1.7c.36.71.53,1.52.53,2.43,0,.27,0,.52-.03.77-.02.25-.04.43-.07.55h-7.59v-1.98h5.58l-.48.56c0-.8-.17-1.4-.5-1.81-.34-.41-.83-.61-1.49-.61-.48,0-.91.11-1.27.33-.36.22-.64.55-.85.98-.2.43-.3.98-.3,1.65s.12,1.24.36,1.67c.24.43.59.75,1.05.96.46.21,1.01.31,1.65.31.46,0,.89-.06,1.3-.17.41-.11.83-.28,1.28-.49l.97,1.76c-.56.36-1.2.64-1.89.85-.7.21-1.38.31-2.05.31Z"/><path class="uuid-3bcc137b-c888-48b6-9a1a-a4b09a77421e" d="M753.71,233.89c-1.06,0-1.9-.18-2.53-.54-.62-.36-1.08-.87-1.36-1.53s-.42-1.42-.42-2.29v-3.48h-2.5v-2.2l2.64-.12.38-3.04h2.44v3.04h4.23v2.32h-4.23v3.46c0,.49.07.89.22,1.2.15.31.38.53.7.67.32.14.71.21,1.18.21.39,0,.75-.03,1.07-.1.32-.07.63-.15.93-.26l.52,2.12c-.44.13-.93.26-1.47.37s-1.13.17-1.79.17Z"/><path class="uuid-3bcc137b-c888-48b6-9a1a-a4b09a77421e" d="M764.02,233.89c-.87,0-1.7-.2-2.48-.61s-1.41-1-1.89-1.78c-.48-.78-.73-1.72-.73-2.81s.24-2.03.73-2.81c.48-.78,1.11-1.37,1.89-1.78.78-.41,1.6-.61,2.48-.61s1.7.2,2.48.61c.78.41,1.41,1,1.89,1.78.48.78.73,1.72.73,2.81s-.24,2.03-.73,2.81c-.48.78-1.11,1.37-1.89,1.78-.78.41-1.6.61-2.48.61ZM764.02,231.51c.46,0,.84-.11,1.14-.34.3-.23.53-.55.68-.98.15-.43.23-.93.23-1.5s-.08-1.07-.23-1.5c-.16-.43-.38-.75-.68-.98-.3-.23-.68-.34-1.14-.34s-.83.11-1.14.34c-.3.23-.53.55-.68.98s-.23.93-.23,1.5.08,1.07.23,1.5.38.75.68.98c.3.23.68.34,1.14.34Z"/><path class="uuid-3bcc137b-c888-48b6-9a1a-a4b09a77421e" d="M788.95,233.89c-.46,0-.92-.11-1.4-.34s-.92-.55-1.32-.98h-.08l-.24,1.08h-2.32v-14.02h2.96v3.44l-.1,1.56h.06c.39-.36.82-.64,1.3-.84.48-.2.96-.3,1.44-.3.85,0,1.57.21,2.17.62s1.06,1,1.38,1.75c.32.75.48,1.64.48,2.65,0,1.13-.21,2.1-.61,2.91-.41.81-.94,1.42-1.6,1.84-.66.42-1.36.63-2.11.63ZM788.29,231.49c.36,0,.69-.1.99-.3.29-.2.53-.52.71-.95.17-.43.26-.99.26-1.67,0-.6-.07-1.1-.2-1.49-.13-.39-.33-.69-.59-.89s-.61-.3-1.04-.3c-.32,0-.63.07-.94.21-.3.14-.61.38-.92.71v4.02c.28.23.57.39.88.5.3.11.59.16.86.16Z"/><path class="uuid-3bcc137b-c888-48b6-9a1a-a4b09a77421e" d="M800.87,233.89c-1.03,0-1.97-.2-2.81-.61s-1.5-1-1.99-1.78c-.49-.78-.74-1.72-.74-2.83s.25-2,.74-2.77,1.13-1.36,1.93-1.78c.8-.42,1.64-.63,2.53-.63,1.02,0,1.88.21,2.58.63s1.22.99,1.58,1.7c.36.71.53,1.52.53,2.43,0,.27,0,.52-.03.77-.02.25-.04.43-.07.55h-7.59v-1.98h5.58l-.48.56c0-.8-.17-1.4-.5-1.81-.34-.41-.83-.61-1.49-.61-.48,0-.91.11-1.27.33-.36.22-.64.55-.85.98-.2.43-.3.98-.3,1.65s.12,1.24.36,1.67c.24.43.59.75,1.05.96.46.21,1.01.31,1.65.31.46,0,.89-.06,1.3-.17.41-.11.83-.28,1.28-.49l.97,1.76c-.56.36-1.2.64-1.89.85-.7.21-1.38.31-2.05.31Z"/><path class="uuid-3bcc137b-c888-48b6-9a1a-a4b09a77421e" d="M819.84,233.65v-14.02h2.96v3.44l-.16,1.9h.06c.38-.39.84-.73,1.38-1.03.54-.3,1.19-.45,1.94-.45,1.13,0,1.95.36,2.47,1.08.52.72.78,1.71.78,2.96v6.12h-2.96v-5.74c0-.67-.11-1.15-.33-1.46s-.6-.46-1.14-.46c-.4,0-.75.09-1.06.27-.3.18-.63.44-.98.77v6.62h-2.96Z"/><path class="uuid-3bcc137b-c888-48b6-9a1a-a4b09a77421e" d="M836.09,233.65v-7.6h-4.05v-2.32h6.99v9.92h-2.94ZM837.42,222.17c-.56,0-1.03-.16-1.41-.49-.38-.33-.56-.76-.56-1.29s.19-.99.56-1.33.85-.51,1.41-.51,1.05.17,1.42.51.55.78.55,1.33-.18.96-.55,1.29c-.37.33-.84.49-1.42.49Z"/><path class="uuid-3bcc137b-c888-48b6-9a1a-a4b09a77421e" d="M844.89,233.65v-9.92h2.42l.24,2.16h.06c.5-.81,1.1-1.42,1.8-1.81.7-.39,1.45-.59,2.25-.59.44,0,.8.03,1.08.1.28.07.56.17.86.3l-.6,2.46c-.31-.09-.59-.16-.84-.21s-.56-.07-.94-.07c-.62,0-1.22.18-1.82.54s-1.11.99-1.54,1.88v5.16h-2.96Z"/><path class="uuid-3bcc137b-c888-48b6-9a1a-a4b09a77421e" d="M861.29,233.89c-1.03,0-1.97-.2-2.81-.61s-1.5-1-1.99-1.78c-.49-.78-.74-1.72-.74-2.83s.25-2,.74-2.77,1.13-1.36,1.93-1.78c.8-.42,1.64-.63,2.53-.63,1.02,0,1.88.21,2.58.63s1.22.99,1.58,1.7c.36.71.53,1.52.53,2.43,0,.27,0,.52-.03.77-.02.25-.04.43-.07.55h-7.59v-1.98h5.58l-.48.56c0-.8-.17-1.4-.5-1.81-.34-.41-.83-.61-1.49-.61-.48,0-.91.11-1.27.33-.36.22-.64.55-.85.98-.2.43-.3.98-.3,1.65s.12,1.24.36,1.67c.24.43.59.75,1.05.96.46.21,1.01.31,1.65.31.46,0,.89-.06,1.3-.17.41-.11.83-.28,1.28-.49l.97,1.76c-.56.36-1.2.64-1.89.85-.7.21-1.38.31-2.05.31Z"/><path class="uuid-3bcc137b-c888-48b6-9a1a-a4b09a77421e" d="M871.88,233.89c-1.26,0-2.28-.46-3.05-1.39-.77-.93-1.16-2.2-1.16-3.81,0-1.08.21-2.01.61-2.78.41-.77.94-1.37,1.6-1.79.66-.42,1.34-.63,2.05-.63.55,0,1.03.09,1.43.28.4.19.77.45,1.09.78h.08l-.14-1.54v-3.38h2.96v14.02h-2.42l-.22-1.02h-.06c-.36.36-.79.66-1.28.9s-.99.36-1.5.36ZM872.64,231.49c.33,0,.65-.07.94-.21.29-.14.56-.38.82-.71v-4.02c-.27-.24-.54-.41-.82-.51-.28-.1-.56-.15-.86-.15-.36,0-.7.1-1.01.3s-.55.5-.74.91c-.18.41-.27.92-.27,1.55,0,.97.17,1.69.5,2.15.33.46.81.69,1.43.69Z"/><path class="uuid-3bcc137b-c888-48b6-9a1a-a4b09a77421e" d="M884.85,233.89c-.44,0-.83-.16-1.15-.47-.32-.31-.48-.72-.48-1.21s.16-.92.48-1.23.71-.47,1.15-.47.84.16,1.16.47.47.72.47,1.23-.16.9-.47,1.21c-.32.31-.7.47-1.16.47Z"/><g id="uuid-90f21e3b-8b28-4b13-bfda-be748f689573"><polyline class="uuid-77fa0edf-4364-4232-a32a-73513c7d46f4" points="934.71 247.18 935.13 177.13 968.51 177.31 968.54 247.18"/><polyline class="uuid-84795703-aab1-4ade-b746-0a103e3b9caa" points="933.9 194.86 916.21 195.16 916.18 247.18"/><polyline class="uuid-84795703-aab1-4ade-b746-0a103e3b9caa" points="969.34 194.86 987.1 195.07 987.23 247.18"/><rect class="uuid-35912e60-94a6-47d1-b55c-2c63093df2f6" x="944.04" y="227.16" width="15.48" height="20.75"/><line class="uuid-84795703-aab1-4ade-b746-0a103e3b9caa" x1="911.03" y1="247.91" x2="992.54" y2="247.91"/><polyline class="uuid-1a8ce428-1853-4853-b91c-6ec7bbb484e0" points="943.73 246.31 944.06 227.16 959.53 227.2 959.51 246.17"/><rect class="uuid-35912e60-94a6-47d1-b55c-2c63093df2f6" x="953.99" y="183.82" width="9.2" height="8.36"/><rect class="uuid-35912e60-94a6-47d1-b55c-2c63093df2f6" x="940.08" y="198.24" width="9.2" height="8.36"/><rect class="uuid-35912e60-94a6-47d1-b55c-2c63093df2f6" x="953.99" y="198.24" width="9.2" height="8.36"/><rect class="uuid-35912e60-94a6-47d1-b55c-2c63093df2f6" x="940.08" y="212.66" width="9.2" height="8.36"/><rect class="uuid-35912e60-94a6-47d1-b55c-2c63093df2f6" x="953.99" y="212.66" width="9.2" height="8.36"/><rect class="uuid-35912e60-94a6-47d1-b55c-2c63093df2f6" x="921.29" y="201.6" width="9.2" height="8.36"/><rect class="uuid-35912e60-94a6-47d1-b55c-2c63093df2f6" x="921.29" y="216.41" width="9.2" height="8.36"/><rect class="uuid-35912e60-94a6-47d1-b55c-2c63093df2f6" x="921.29" y="231.21" width="9.2" height="8.36"/><rect class="uuid-35912e60-94a6-47d1-b55c-2c63093df2f6" x="973.06" y="201.6" width="9.2" height="8.36"/><rect class="uuid-35912e60-94a6-47d1-b55c-2c63093df2f6" x="973.06" y="216.41" width="9.2" height="8.36"/><rect class="uuid-35912e60-94a6-47d1-b55c-2c63093df2f6" x="973.06" y="231.21" width="9.2" height="8.36"/><rect class="uuid-35912e60-94a6-47d1-b55c-2c63093df2f6" x="940.3" y="183.73" width="9.2" height="8.36"/></g><rect class="uuid-443e1851-5ed5-4a08-8079-5ac5cf4e7495" x="710.11" y="154.77" width="195.42" height="24.84"/><path class="uuid-35912e60-94a6-47d1-b55c-2c63093df2f6" d="M714.61,174.41v-17.2h5.54v.94h-4.22v15.32h4.22v.94h-5.54Z"/><path class="uuid-35912e60-94a6-47d1-b55c-2c63093df2f6" d="M728.51,171.61c-.48,0-.99-.12-1.53-.35-.54-.23-1.04-.56-1.49-.97h-.06l-.14,1.08h-1.32v-14.24h1.64v3.88l-.06,1.88h.06c.44-.45.95-.81,1.53-1.08.58-.27,1.16-.4,1.73-.4.88,0,1.62.2,2.22.61.6.41,1.05.98,1.36,1.72.31.74.46,1.61.46,2.61,0,1.11-.2,2.05-.61,2.84-.41.79-.94,1.39-1.61,1.8s-1.39.62-2.18.62ZM728.25,170.23c.56,0,1.06-.15,1.51-.46.45-.31.8-.75,1.06-1.33.26-.58.39-1.27.39-2.07,0-.71-.09-1.33-.28-1.87s-.48-.96-.88-1.26c-.4-.3-.93-.45-1.58-.45-.44,0-.9.12-1.39.35-.49.23-.98.6-1.47,1.11v4.84c.47.41.94.71,1.41.88s.88.26,1.23.26Z"/><path class="uuid-35912e60-94a6-47d1-b55c-2c63093df2f6" d="M740.71,171.61c-.97,0-1.86-.2-2.65-.6s-1.42-.98-1.89-1.75c-.47-.77-.7-1.69-.7-2.77s.23-1.96.7-2.72c.47-.76,1.08-1.34,1.83-1.75.75-.41,1.56-.61,2.43-.61.93,0,1.73.19,2.39.57.66.38,1.17.91,1.52,1.59.35.68.53,1.48.53,2.4,0,.19,0,.37-.02.54-.01.17-.03.33-.06.46h-8.22v-1.28h7.24l-.42.46c0-1.15-.26-2.01-.79-2.58-.53-.57-1.24-.86-2.13-.86-.6,0-1.16.15-1.67.44-.51.29-.92.72-1.23,1.28s-.46,1.25-.46,2.06.17,1.54.5,2.1c.33.56.79.98,1.36,1.27s1.22.43,1.94.43c.59,0,1.12-.08,1.59-.25.47-.17.93-.39,1.37-.67l.6,1.08c-.48.32-1.03.59-1.65.82s-1.32.34-2.11.34Z"/><path class="uuid-35912e60-94a6-47d1-b55c-2c63093df2f6" d="M753.03,171.61c-1.01,0-1.92-.2-2.73-.6s-1.44-.98-1.9-1.74c-.46-.76-.69-1.67-.69-2.74s.25-2.02.74-2.78c.49-.76,1.15-1.34,1.97-1.74.82-.4,1.72-.6,2.71-.6.8,0,1.49.14,2.07.42.58.28,1.07.61,1.47,1l-.82,1.06c-.4-.35-.81-.62-1.24-.82-.43-.2-.9-.3-1.42-.3-.75,0-1.41.16-1.98.47-.57.31-1.02.75-1.33,1.32-.31.57-.47,1.22-.47,1.97s.15,1.38.46,1.94.74,1,1.31,1.31c.57.31,1.22.47,1.97.47.6,0,1.15-.12,1.65-.36.5-.24.95-.53,1.35-.86l.74,1.06c-.53.48-1.13.85-1.79,1.12s-1.35.4-2.07.4Z"/><path class="uuid-35912e60-94a6-47d1-b55c-2c63093df2f6" d="M764.11,171.61c-.85,0-1.64-.2-2.37-.6s-1.31-.98-1.76-1.74c-.45-.76-.67-1.67-.67-2.74s.22-2.02.67-2.78c.45-.76,1.03-1.34,1.76-1.74s1.52-.6,2.37-.6,1.64.2,2.37.6,1.31.98,1.76,1.74c.45.76.67,1.69.67,2.78s-.22,1.98-.67,2.74c-.45.76-1.03,1.34-1.76,1.74s-1.52.6-2.37.6ZM764.11,170.25c.63,0,1.17-.16,1.64-.47.47-.31.83-.75,1.08-1.31.25-.56.38-1.21.38-1.94s-.13-1.4-.38-1.97c-.25-.57-.61-1.01-1.08-1.32-.47-.31-1.01-.47-1.64-.47s-1.17.16-1.63.47-.82.75-1.08,1.32c-.26.57-.39,1.22-.39,1.97s.13,1.38.39,1.94.62,1,1.08,1.31,1,.47,1.63.47Z"/><path class="uuid-35912e60-94a6-47d1-b55c-2c63093df2f6" d="M771.27,171.37v-9.72h1.32l.14,1.28h.04c.25-.45.55-.82.88-1.1.33-.28.78-.42,1.34-.42.48,0,.87.14,1.18.42.31.28.53.7.66,1.26.28-.52.59-.93.93-1.23.34-.3.79-.45,1.35-.45.68,0,1.21.26,1.59.77.38.51.57,1.26.57,2.23v6.96h-1.64v-6.84c0-1.13-.35-1.7-1.04-1.7-.33,0-.61.12-.83.37s-.46.62-.73,1.13v7.04h-1.52v-6.84c0-.56-.08-.98-.23-1.27s-.41-.43-.77-.43c-.33,0-.62.12-.87.37-.25.25-.49.62-.73,1.13v7.04h-1.64Z"/><path class="uuid-35912e60-94a6-47d1-b55c-2c63093df2f6" d="M788.71,171.61c-.97,0-1.86-.2-2.65-.6s-1.42-.98-1.89-1.75c-.47-.77-.7-1.69-.7-2.77s.23-1.96.7-2.72c.47-.76,1.08-1.34,1.83-1.75.75-.41,1.56-.61,2.43-.61.93,0,1.73.19,2.39.57.66.38,1.17.91,1.52,1.59.35.68.53,1.48.53,2.4,0,.19,0,.37-.02.54-.01.17-.03.33-.06.46h-8.22v-1.28h7.24l-.42.46c0-1.15-.26-2.01-.79-2.58-.53-.57-1.24-.86-2.13-.86-.6,0-1.16.15-1.67.44-.51.29-.92.72-1.23,1.28s-.46,1.25-.46,2.06.17,1.54.5,2.1c.33.56.79.98,1.36,1.27s1.22.43,1.94.43c.59,0,1.12-.08,1.59-.25.47-.17.93-.39,1.37-.67l.6,1.08c-.48.32-1.03.59-1.65.82s-1.32.34-2.11.34Z"/><path class="uuid-35912e60-94a6-47d1-b55c-2c63093df2f6" d="M807.97,175.47v-13.82h1.36l.14,1.24h.06c.45-.43.98-.78,1.57-1.06.59-.28,1.19-.42,1.79-.42.88,0,1.62.2,2.21.61.59.41,1.04.98,1.35,1.72.31.74.46,1.62.46,2.63,0,1.09-.21,2.03-.62,2.82-.41.79-.95,1.39-1.62,1.8-.67.41-1.39.62-2.18.62-.44,0-.92-.11-1.45-.33-.53-.22-1.01-.53-1.45-.93h-.06l.08,1.84v3.28h-1.64ZM812.21,170.23c.57,0,1.09-.15,1.54-.46.45-.31.81-.75,1.07-1.33.26-.58.39-1.27.39-2.07,0-.71-.09-1.33-.28-1.87s-.48-.96-.88-1.26c-.4-.3-.93-.45-1.58-.45-.44,0-.9.12-1.39.35-.49.23-.98.6-1.47,1.11v4.84c.47.41.94.71,1.41.88s.87.26,1.19.26Z"/><path class="uuid-35912e60-94a6-47d1-b55c-2c63093df2f6" d="M823.03,171.61c-.6,0-1.15-.11-1.66-.33-.51-.22-.91-.54-1.2-.95-.29-.41-.44-.91-.44-1.48,0-1.09.55-1.92,1.64-2.49,1.09-.57,2.89-.95,5.4-1.15-.01-.44-.1-.85-.27-1.22-.17-.37-.44-.67-.81-.89s-.87-.33-1.5-.33c-.41,0-.82.06-1.23.17-.41.11-.79.26-1.16.44-.37.18-.7.36-1.01.55l-.64-1.12c.32-.21.71-.43,1.17-.65.46-.22.96-.4,1.49-.54s1.09-.21,1.66-.21c.89,0,1.63.17,2.21.5.58.33,1.01.8,1.3,1.39s.43,1.3.43,2.11v5.96h-1.34l-.14-1.32h-.06c-.53.43-1.13.79-1.8,1.1-.67.31-1.35.46-2.04.46ZM823.47,170.29c.56,0,1.11-.13,1.66-.38.55-.25,1.09-.61,1.64-1.06v-2.56c-1.39.12-2.48.29-3.27.5-.79.21-1.35.48-1.68.81-.33.33-.49.7-.49,1.13,0,.36.1.66.3.89.2.23.46.4.79.51.33.11.68.16,1.05.16Z"/><path class="uuid-35912e60-94a6-47d1-b55c-2c63093df2f6" d="M837.99,171.61c-.95,0-1.69-.17-2.24-.51-.55-.34-.94-.81-1.17-1.41-.23-.6-.35-1.3-.35-2.1v-4.6h-2.74v-1.24l2.8-.1.22-3.12h1.36v3.12h4.78v1.34h-4.78v4.62c0,.57.07,1.06.22,1.46.15.4.4.7.76.9.36.2.85.3,1.48.3.47,0,.89-.04,1.26-.12.37-.08.73-.19,1.08-.32l.36,1.2c-.44.16-.9.3-1.39.41-.49.11-1.04.17-1.65.17Z"/><path class="uuid-35912e60-94a6-47d1-b55c-2c63093df2f6" d="M845.03,171.37v-9.72h1.36l.14,2.3h.06c.51-.79,1.13-1.41,1.88-1.86.75-.45,1.57-.68,2.46-.68.36,0,.7.03,1.01.09s.62.16.91.31l-.38,1.42c-.33-.12-.62-.21-.86-.26s-.55-.08-.94-.08c-.73,0-1.44.21-2.11.63-.67.42-1.3,1.14-1.89,2.15v5.7h-1.64Z"/><path class="uuid-35912e60-94a6-47d1-b55c-2c63093df2f6" d="M860.11,171.61c-.85,0-1.64-.2-2.37-.6s-1.31-.98-1.76-1.74c-.45-.76-.67-1.67-.67-2.74s.22-2.02.67-2.78c.45-.76,1.03-1.34,1.76-1.74s1.52-.6,2.37-.6,1.64.2,2.37.6,1.31.98,1.76,1.74c.45.76.67,1.69.67,2.78s-.22,1.98-.67,2.74c-.45.76-1.03,1.34-1.76,1.74s-1.52.6-2.37.6ZM860.11,170.25c.63,0,1.17-.16,1.64-.47.47-.31.83-.75,1.08-1.31.25-.56.38-1.21.38-1.94s-.13-1.4-.38-1.97c-.25-.57-.61-1.01-1.08-1.32-.47-.31-1.01-.47-1.64-.47s-1.17.16-1.63.47-.82.75-1.08,1.32c-.26.57-.39,1.22-.39,1.97s.13,1.38.39,1.94.62,1,1.08,1.31,1,.47,1.63.47Z"/><path class="uuid-35912e60-94a6-47d1-b55c-2c63093df2f6" d="M867.97,171.37v-9.72h1.36l.14,1.66h.08c.51-.55,1.05-1,1.64-1.36s1.26-.54,2.02-.54c1.15,0,1.99.33,2.54,1,.55.67.82,1.64.82,2.92v6.04h-1.64v-5.82c0-.92-.17-1.6-.52-2.05-.35-.45-.92-.67-1.72-.67-.57,0-1.09.15-1.54.44-.45.29-.97.73-1.54,1.32v6.78h-1.64Z"/><path class="uuid-35912e60-94a6-47d1-b55c-2c63093df2f6" d="M884.31,171.61c-.95,0-1.83-.15-2.66-.46-.83-.31-1.53-.66-2.12-1.06l.76-1.08c.56.4,1.18.72,1.86.96.68.24,1.47.36,2.36.36.83,0,1.44-.15,1.85-.46.41-.31.61-.66.61-1.06,0-.19-.04-.36-.11-.52s-.21-.31-.42-.46c-.21-.15-.51-.29-.91-.42-.4-.13-.93-.27-1.6-.4-1.27-.27-2.22-.63-2.85-1.08-.63-.45-.95-1.04-.95-1.76,0-.79.34-1.44,1.02-1.97.68-.53,1.69-.79,3.02-.79.75,0,1.47.12,2.16.37.69.25,1.28.54,1.76.87l-.8,1.06c-.44-.32-.94-.57-1.5-.75-.56-.18-1.15-.27-1.76-.27-.56,0-1,.06-1.33.19-.33.13-.56.3-.7.51-.14.21-.21.45-.21.7,0,.41.22.74.67.97.45.23,1.16.45,2.15.65,1.08.23,1.91.48,2.49.76.58.28.98.6,1.2.96s.33.79.33,1.28c0,.53-.17,1.02-.5,1.45-.33.43-.82.78-1.46,1.05-.64.27-1.43.4-2.36.4Z"/><path class="uuid-35912e60-94a6-47d1-b55c-2c63093df2f6" d="M892.07,174.41v-.94h4.22v-15.32h-4.22v-.94h5.54v17.2h-5.54Z"/></g></svg>