<?xml version="1.0" encoding="UTF-8"?><svg id="uuid-fe861538-8dc3-4b01-9129-a3a5d3d7605c" xmlns="http://www.w3.org/2000/svg" width="1050" height="500" viewBox="0 0 1050 500"><defs><style>.uuid-32c44829-b2f1-4654-aba5-80393e372fd1{isolation:isolate;}.uuid-ca9771e6-c19b-4d8d-90d6-9856efc44af2{fill:#959595;}.uuid-507c26b0-1e61-4ae1-83fb-8c1536190899{fill:none;stroke:#959595;stroke-linecap:round;stroke-miterlimit:10;}</style></defs><g id="uuid-a72ba60d-0add-4390-b46c-8bb3067324f4"><g class="uuid-32c44829-b2f1-4654-aba5-80393e372fd1"><path class="uuid-ca9771e6-c19b-4d8d-90d6-9856efc44af2" d="M127.52,52.38h4.88c3.58,0,5.99,1.18,5.99,4.63s-2.44,4.87-5.99,4.87h-2.81v6.24h-2.07v-15.75ZM132.15,60.25c2.81,0,4.17-1.01,4.17-3.24s-1.38-3-4.17-3h-2.56v6.24h2.56Z"/><path class="uuid-ca9771e6-c19b-4d8d-90d6-9856efc44af2" d="M142.23,52.38h5.06c3.28,0,5.67,1.15,5.67,4.44s-2.39,4.66-5.67,4.66h-2.96v6.65h-2.1v-15.75ZM146.99,59.85c2.52,0,3.9-1.01,3.9-3.02s-1.38-2.81-3.9-2.81h-2.66v5.83h2.66ZM148.5,59.87l4.93,8.26h-2.34l-4.22-7.2,1.63-1.06Z"/><path class="uuid-ca9771e6-c19b-4d8d-90d6-9856efc44af2" d="M155.77,60.18c0-5.09,2.56-8.09,6.21-8.09s6.21,3,6.21,8.09-2.56,8.23-6.21,8.23-6.21-3.07-6.21-8.23ZM166.05,60.18c0-3.96-1.63-6.31-4.07-6.31s-4.07,2.35-4.07,6.31,1.63,6.46,4.07,6.46,4.07-2.42,4.07-6.46Z"/><path class="uuid-ca9771e6-c19b-4d8d-90d6-9856efc44af2" d="M171.52,52.38h3.99c4.86,0,7.5,2.81,7.5,7.8s-2.64,7.94-7.4,7.94h-4.09v-15.75ZM175.37,66.47c3.67,0,5.5-2.3,5.5-6.29s-1.82-6.14-5.5-6.14h-1.78v12.43h1.78Z"/><path class="uuid-ca9771e6-c19b-4d8d-90d6-9856efc44af2" d="M186.11,62.17v-9.79h2.1v9.84c0,3.24,1.45,4.42,3.38,4.42s3.43-1.18,3.43-4.42v-9.84h2v9.79c0,4.51-2.27,6.24-5.42,6.24s-5.47-1.73-5.47-6.24Z"/><path class="uuid-ca9771e6-c19b-4d8d-90d6-9856efc44af2" d="M200.56,60.25c0-5.06,3.03-8.16,7.25-8.16,1.95,0,3.48.91,4.44,1.92l-1.18,1.27c-.84-.86-1.9-1.42-3.25-1.42-3.08,0-5.1,2.42-5.1,6.34s2.02,6.43,5.1,6.43c1.48,0,2.61-.62,3.62-1.73l1.18,1.22c-1.26,1.44-2.86,2.28-5.01,2.28-4,0-7.05-3.02-7.05-8.16Z"/><path class="uuid-ca9771e6-c19b-4d8d-90d6-9856efc44af2" d="M220.11,54.08h-5.35v-1.7h12.77v1.7h-5.35v14.04h-2.07v-14.04Z"/><path class="uuid-ca9771e6-c19b-4d8d-90d6-9856efc44af2" d="M230.88,66.42h4.02v-12.34h-4.02v-1.7h10.11v1.7h-4.02v12.34h4.02v1.7h-10.11v-1.7Z"/><path class="uuid-ca9771e6-c19b-4d8d-90d6-9856efc44af2" d="M244.52,60.18c0-5.09,2.56-8.09,6.21-8.09s6.21,3,6.21,8.09-2.56,8.23-6.21,8.23-6.21-3.07-6.21-8.23ZM254.8,60.18c0-3.96-1.63-6.31-4.07-6.31s-4.07,2.35-4.07,6.31,1.63,6.46,4.07,6.46,4.07-2.42,4.07-6.46Z"/><path class="uuid-ca9771e6-c19b-4d8d-90d6-9856efc44af2" d="M260.15,52.38h2.27l5.18,9.89,1.55,3.26h.05c-.07-1.56-.27-3.34-.27-4.99v-8.16h1.97v15.75h-2.27l-5.18-9.89-1.55-3.26h-.05c.07,1.61.27,3.29.27,4.92v8.23h-1.97v-15.75Z"/></g><polyline class="uuid-507c26b0-1e61-4ae1-83fb-8c1536190899" points="484.5 434.5 125.5 434.5 125.5 75.5"/></g></svg>